<svg width="334" height="597" viewBox="0 0 334 597" fill="none" xmlns="http://www.w3.org/2000/svg">
<path fill-rule="evenodd" clip-rule="evenodd" d="M278.619 155.044C278.619 157.254 276.828 159.044 274.619 159.044C272.41 159.044 270.619 157.254 270.619 155.044C270.619 152.835 272.41 151.044 274.619 151.044C276.828 151.044 278.619 152.835 278.619 155.044ZM186.731 207.776C188.293 206.214 188.293 203.682 186.731 202.119C185.169 200.557 182.636 200.557 181.074 202.119C179.512 203.682 179.512 206.214 181.074 207.776C182.636 209.338 185.169 209.338 186.731 207.776ZM159.043 304.382C159.043 302.172 157.253 300.382 155.043 300.382C152.834 300.382 151.043 302.172 151.043 304.382C151.043 306.591 152.834 308.382 155.043 308.382C157.253 308.382 159.043 306.591 159.043 304.382ZM371.225 186.732C372.787 188.294 375.319 188.294 376.881 186.732C378.443 185.17 378.443 182.637 376.881 181.075C375.319 179.513 372.787 179.513 371.225 181.075C369.662 182.637 369.662 185.17 371.225 186.732ZM422.545 281.442C419.556 281.442 417.134 279.019 417.134 276.031C417.134 273.042 419.556 270.62 422.545 270.62C425.534 270.62 427.956 273.042 427.956 276.031C427.956 279.019 425.534 281.442 422.545 281.442ZM389.275 370.227C387.162 372.34 387.162 375.766 389.275 377.88C391.388 379.993 394.814 379.993 396.927 377.88C399.041 375.766 399.041 372.34 396.927 370.227C394.814 368.114 391.388 368.114 389.275 370.227ZM297.558 422.545C297.558 419.556 299.98 417.134 302.969 417.134C305.957 417.134 308.38 419.556 308.38 422.545C308.38 425.533 305.957 427.956 302.969 427.956C299.98 427.956 297.558 425.533 297.558 422.545ZM208.773 389.276C206.66 387.162 203.233 387.162 201.12 389.276C199.007 391.389 199.007 394.815 201.12 396.928C203.233 399.042 206.66 399.042 208.773 396.928C210.886 394.815 210.886 391.389 208.773 389.276Z" fill="url(#paint0_linear)"/>
<circle cx="337.959" cy="591.421" r="5.57944" transform="rotate(180 337.959 591.421)" fill="url(#paint1_linear)"/>
<circle cx="337.959" cy="591.421" r="5.57944" transform="rotate(180 337.959 591.421)" fill="url(#paint2_linear)" fill-opacity="0.8"/>
<circle cx="261.672" cy="585.034" r="5.57944" transform="rotate(-165 261.672 585.034)" fill="url(#paint3_linear)"/>
<circle cx="261.672" cy="585.034" r="5.57944" transform="rotate(-165 261.672 585.034)" fill="url(#paint4_linear)" fill-opacity="0.8"/>
<circle cx="189.637" cy="559.12" r="5.57944" transform="rotate(-150 189.637 559.12)" fill="url(#paint5_linear)"/>
<circle cx="189.637" cy="559.12" r="5.57944" transform="rotate(-150 189.637 559.12)" fill="url(#paint6_linear)" fill-opacity="0.8"/>
<circle cx="126.764" cy="515.445" r="5.57944" transform="rotate(-135 126.764 515.445)" fill="url(#paint7_linear)"/>
<circle cx="126.764" cy="515.445" r="5.57944" transform="rotate(-135 126.764 515.445)" fill="url(#paint8_linear)" fill-opacity="0.8"/>
<circle cx="77.3376" cy="456.987" r="5.57944" transform="rotate(-120 77.3376 456.987)" fill="url(#paint9_linear)"/>
<circle cx="77.3376" cy="456.987" r="5.57944" transform="rotate(-120 77.3376 456.987)" fill="url(#paint10_linear)" fill-opacity="0.8"/>
<circle cx="44.725" cy="387.727" r="5.57944" transform="rotate(-105 44.725 387.727)" fill="url(#paint11_linear)"/>
<circle cx="44.725" cy="387.727" r="5.57944" transform="rotate(-105 44.725 387.727)" fill="url(#paint12_linear)" fill-opacity="0.8"/>
<circle cx="31.1498" cy="312.388" r="5.57944" transform="rotate(-90 31.1498 312.388)" fill="url(#paint13_linear)"/>
<circle cx="31.1498" cy="312.388" r="5.57944" transform="rotate(-90 31.1498 312.388)" fill="url(#paint14_linear)" fill-opacity="0.8"/>
<circle cx="37.5365" cy="236.101" r="5.57944" transform="rotate(-75 37.5365 236.101)" fill="url(#paint15_linear)"/>
<circle cx="37.5365" cy="236.101" r="5.57944" transform="rotate(-75 37.5365 236.101)" fill="url(#paint16_linear)" fill-opacity="0.8"/>
<circle cx="63.4498" cy="164.067" r="5.57944" transform="rotate(-60 63.4498 164.067)" fill="url(#paint17_linear)"/>
<circle cx="63.4498" cy="164.067" r="5.57944" transform="rotate(-60 63.4498 164.067)" fill="url(#paint18_linear)" fill-opacity="0.8"/>
<circle cx="107.123" cy="101.193" r="5.57944" transform="rotate(-45 107.123 101.193)" fill="url(#paint19_linear)"/>
<circle cx="107.123" cy="101.193" r="5.57944" transform="rotate(-45 107.123 101.193)" fill="url(#paint20_linear)" fill-opacity="0.8"/>
<circle cx="165.583" cy="51.7676" r="5.57944" transform="rotate(-30 165.583 51.7676)" fill="url(#paint21_linear)"/>
<circle cx="165.583" cy="51.7676" r="5.57944" transform="rotate(-30 165.583 51.7676)" fill="url(#paint22_linear)" fill-opacity="0.8"/>
<circle cx="234.842" cy="19.155" r="5.57944" transform="rotate(-15 234.842 19.155)" fill="url(#paint23_linear)"/>
<circle cx="234.842" cy="19.155" r="5.57944" transform="rotate(-15 234.842 19.155)" fill="url(#paint24_linear)" fill-opacity="0.8"/>
<circle cx="310.182" cy="5.57944" r="5.57944" fill="url(#paint25_linear)"/>
<circle cx="310.182" cy="5.57944" r="5.57944" fill="url(#paint26_linear)" fill-opacity="0.8"/>
<circle cx="302.969" cy="498.067" r="4.91121" transform="rotate(180 302.969 498.067)" stroke="url(#paint27_radial)" stroke-opacity="0.3"/>
<circle cx="222.129" cy="487.345" r="4.91122" transform="rotate(-157.5 222.129 487.345)" stroke="url(#paint28_radial)" stroke-opacity="0.3"/>
<circle cx="151.544" cy="446.504" r="4.91121" transform="rotate(-135 151.544 446.504)" stroke="url(#paint29_radial)" stroke-opacity="0.3"/>
<circle cx="101.963" cy="381.759" r="4.91122" transform="rotate(-112.5 101.963 381.759)" stroke="url(#paint30_radial)" stroke-opacity="0.3"/>
<circle cx="80.9327" cy="302.97" r="4.91121" transform="rotate(-90 80.9327 302.97)" stroke="url(#paint31_radial)" stroke-opacity="0.3"/>
<circle cx="91.6546" cy="222.129" r="4.91121" transform="rotate(-67.5 91.6546 222.129)" stroke="url(#paint32_radial)" stroke-opacity="0.3"/>
<circle cx="132.496" cy="151.546" r="4.91122" transform="rotate(-45 132.496 151.546)" stroke="url(#paint33_radial)" stroke-opacity="0.3"/>
<circle cx="197.241" cy="101.965" r="4.91121" transform="rotate(-22.5 197.241 101.965)" stroke="url(#paint34_radial)" stroke-opacity="0.3"/>
<circle cx="276.03" cy="80.9334" r="4.91121" stroke="url(#paint35_radial)" stroke-opacity="0.3"/>
<defs>
<linearGradient id="paint0_linear" x1="289.5" y1="151.044" x2="289.5" y2="427.956" gradientUnits="userSpaceOnUse">
<stop stop-color="#0C0C12"/>
<stop offset="1" stop-color="#1C1D2F" stop-opacity="0.79"/>
</linearGradient>
<linearGradient id="paint1_linear" x1="337.959" y1="585.841" x2="337.959" y2="597" gradientUnits="userSpaceOnUse">
<stop stop-color="#0C0C12"/>
<stop offset="1" stop-color="#1C1D2F" stop-opacity="0.79"/>
</linearGradient>
<linearGradient id="paint2_linear" x1="339.737" y1="585.841" x2="333.988" y2="595.239" gradientUnits="userSpaceOnUse">
<stop stop-color="#041B47" stop-opacity="0.39"/>
<stop offset="1" stop-color="#373485"/>
</linearGradient>
<linearGradient id="paint3_linear" x1="261.672" y1="579.454" x2="261.672" y2="590.613" gradientUnits="userSpaceOnUse">
<stop stop-color="#0C0C12"/>
<stop offset="1" stop-color="#1C1D2F" stop-opacity="0.79"/>
</linearGradient>
<linearGradient id="paint4_linear" x1="263.45" y1="579.454" x2="257.701" y2="588.852" gradientUnits="userSpaceOnUse">
<stop stop-color="#041B47" stop-opacity="0.39"/>
<stop offset="1" stop-color="#373485"/>
</linearGradient>
<linearGradient id="paint5_linear" x1="189.637" y1="553.54" x2="189.637" y2="564.699" gradientUnits="userSpaceOnUse">
<stop stop-color="#0C0C12"/>
<stop offset="1" stop-color="#1C1D2F" stop-opacity="0.79"/>
</linearGradient>
<linearGradient id="paint6_linear" x1="191.416" y1="553.54" x2="185.667" y2="562.938" gradientUnits="userSpaceOnUse">
<stop stop-color="#041B47" stop-opacity="0.39"/>
<stop offset="1" stop-color="#373485"/>
</linearGradient>
<linearGradient id="paint7_linear" x1="126.764" y1="509.866" x2="126.764" y2="521.025" gradientUnits="userSpaceOnUse">
<stop stop-color="#0C0C12"/>
<stop offset="1" stop-color="#1C1D2F" stop-opacity="0.79"/>
</linearGradient>
<linearGradient id="paint8_linear" x1="128.542" y1="509.866" x2="122.794" y2="519.264" gradientUnits="userSpaceOnUse">
<stop stop-color="#041B47" stop-opacity="0.39"/>
<stop offset="1" stop-color="#373485"/>
</linearGradient>
<linearGradient id="paint9_linear" x1="77.3376" y1="451.407" x2="77.3376" y2="462.566" gradientUnits="userSpaceOnUse">
<stop stop-color="#0C0C12"/>
<stop offset="1" stop-color="#1C1D2F" stop-opacity="0.79"/>
</linearGradient>
<linearGradient id="paint10_linear" x1="79.1157" y1="451.407" x2="73.367" y2="460.805" gradientUnits="userSpaceOnUse">
<stop stop-color="#041B47" stop-opacity="0.39"/>
<stop offset="1" stop-color="#373485"/>
</linearGradient>
<linearGradient id="paint11_linear" x1="44.725" y1="382.148" x2="44.725" y2="393.307" gradientUnits="userSpaceOnUse">
<stop stop-color="#0C0C12"/>
<stop offset="1" stop-color="#1C1D2F" stop-opacity="0.79"/>
</linearGradient>
<linearGradient id="paint12_linear" x1="46.5031" y1="382.148" x2="40.7544" y2="391.545" gradientUnits="userSpaceOnUse">
<stop stop-color="#041B47" stop-opacity="0.39"/>
<stop offset="1" stop-color="#373485"/>
</linearGradient>
<linearGradient id="paint13_linear" x1="31.1498" y1="306.808" x2="31.1498" y2="317.967" gradientUnits="userSpaceOnUse">
<stop stop-color="#0C0C12"/>
<stop offset="1" stop-color="#1C1D2F" stop-opacity="0.79"/>
</linearGradient>
<linearGradient id="paint14_linear" x1="32.9278" y1="306.808" x2="27.1791" y2="316.206" gradientUnits="userSpaceOnUse">
<stop stop-color="#041B47" stop-opacity="0.39"/>
<stop offset="1" stop-color="#373485"/>
</linearGradient>
<linearGradient id="paint15_linear" x1="37.5365" y1="230.521" x2="37.5365" y2="241.68" gradientUnits="userSpaceOnUse">
<stop stop-color="#0C0C12"/>
<stop offset="1" stop-color="#1C1D2F" stop-opacity="0.79"/>
</linearGradient>
<linearGradient id="paint16_linear" x1="39.3146" y1="230.521" x2="33.5659" y2="239.919" gradientUnits="userSpaceOnUse">
<stop stop-color="#041B47" stop-opacity="0.39"/>
<stop offset="1" stop-color="#373485"/>
</linearGradient>
<linearGradient id="paint17_linear" x1="63.4498" y1="158.487" x2="63.4498" y2="169.646" gradientUnits="userSpaceOnUse">
<stop stop-color="#0C0C12"/>
<stop offset="1" stop-color="#1C1D2F" stop-opacity="0.79"/>
</linearGradient>
<linearGradient id="paint18_linear" x1="65.2278" y1="158.487" x2="59.4792" y2="167.885" gradientUnits="userSpaceOnUse">
<stop stop-color="#041B47" stop-opacity="0.39"/>
<stop offset="1" stop-color="#373485"/>
</linearGradient>
<linearGradient id="paint19_linear" x1="107.123" y1="95.6139" x2="107.123" y2="106.773" gradientUnits="userSpaceOnUse">
<stop stop-color="#0C0C12"/>
<stop offset="1" stop-color="#1C1D2F" stop-opacity="0.79"/>
</linearGradient>
<linearGradient id="paint20_linear" x1="108.901" y1="95.6139" x2="103.153" y2="105.011" gradientUnits="userSpaceOnUse">
<stop stop-color="#041B47" stop-opacity="0.39"/>
<stop offset="1" stop-color="#373485"/>
</linearGradient>
<linearGradient id="paint21_linear" x1="165.583" y1="46.1881" x2="165.583" y2="57.347" gradientUnits="userSpaceOnUse">
<stop stop-color="#0C0C12"/>
<stop offset="1" stop-color="#1C1D2F" stop-opacity="0.79"/>
</linearGradient>
<linearGradient id="paint22_linear" x1="167.361" y1="46.1881" x2="161.612" y2="55.5857" gradientUnits="userSpaceOnUse">
<stop stop-color="#041B47" stop-opacity="0.39"/>
<stop offset="1" stop-color="#373485"/>
</linearGradient>
<linearGradient id="paint23_linear" x1="234.842" y1="13.5755" x2="234.842" y2="24.7344" gradientUnits="userSpaceOnUse">
<stop stop-color="#0C0C12"/>
<stop offset="1" stop-color="#1C1D2F" stop-opacity="0.79"/>
</linearGradient>
<linearGradient id="paint24_linear" x1="236.62" y1="13.5755" x2="230.871" y2="22.9731" gradientUnits="userSpaceOnUse">
<stop stop-color="#041B47" stop-opacity="0.39"/>
<stop offset="1" stop-color="#373485"/>
</linearGradient>
<linearGradient id="paint25_linear" x1="310.182" y1="0" x2="310.182" y2="11.1589" gradientUnits="userSpaceOnUse">
<stop stop-color="#0C0C12"/>
<stop offset="1" stop-color="#1C1D2F" stop-opacity="0.79"/>
</linearGradient>
<linearGradient id="paint26_linear" x1="311.96" y1="8.28891e-08" x2="306.211" y2="9.39757" gradientUnits="userSpaceOnUse">
<stop stop-color="#041B47" stop-opacity="0.39"/>
<stop offset="1" stop-color="#373485"/>
</linearGradient>
<radialGradient id="paint27_radial" cx="0" cy="0" r="1" gradientUnits="userSpaceOnUse" gradientTransform="translate(303.533 498.277) rotate(104.643) scale(5.37485 5.85207)">
<stop stop-color="#D00500" stop-opacity="0"/>
<stop offset="1" stop-color="#D00500"/>
</radialGradient>
<radialGradient id="paint28_radial" cx="0" cy="0" r="1" gradientUnits="userSpaceOnUse" gradientTransform="translate(222.692 487.556) rotate(104.643) scale(5.37485 5.85207)">
<stop stop-color="#D00500" stop-opacity="0"/>
<stop offset="1" stop-color="#D00500"/>
</radialGradient>
<radialGradient id="paint29_radial" cx="0" cy="0" r="1" gradientUnits="userSpaceOnUse" gradientTransform="translate(152.108 446.715) rotate(104.643) scale(5.37485 5.85207)">
<stop stop-color="#D00500" stop-opacity="0"/>
<stop offset="1" stop-color="#D00500"/>
</radialGradient>
<radialGradient id="paint30_radial" cx="0" cy="0" r="1" gradientUnits="userSpaceOnUse" gradientTransform="translate(102.527 381.969) rotate(104.643) scale(5.37485 5.85207)">
<stop stop-color="#D00500" stop-opacity="0"/>
<stop offset="1" stop-color="#D00500"/>
</radialGradient>
<radialGradient id="paint31_radial" cx="0" cy="0" r="1" gradientUnits="userSpaceOnUse" gradientTransform="translate(81.4964 303.181) rotate(104.643) scale(5.37485 5.85207)">
<stop stop-color="#D00500" stop-opacity="0"/>
<stop offset="1" stop-color="#D00500"/>
</radialGradient>
<radialGradient id="paint32_radial" cx="0" cy="0" r="1" gradientUnits="userSpaceOnUse" gradientTransform="translate(92.2182 222.34) rotate(104.643) scale(5.37485 5.85207)">
<stop stop-color="#D00500" stop-opacity="0"/>
<stop offset="1" stop-color="#D00500"/>
</radialGradient>
<radialGradient id="paint33_radial" cx="0" cy="0" r="1" gradientUnits="userSpaceOnUse" gradientTransform="translate(133.06 151.757) rotate(104.643) scale(5.37485 5.85207)">
<stop stop-color="#D00500" stop-opacity="0"/>
<stop offset="1" stop-color="#D00500"/>
</radialGradient>
<radialGradient id="paint34_radial" cx="0" cy="0" r="1" gradientUnits="userSpaceOnUse" gradientTransform="translate(197.804 102.176) rotate(104.643) scale(5.37485 5.85207)">
<stop stop-color="#D00500" stop-opacity="0"/>
<stop offset="1" stop-color="#D00500"/>
</radialGradient>
<radialGradient id="paint35_radial" cx="0" cy="0" r="1" gradientUnits="userSpaceOnUse" gradientTransform="translate(276.594 81.1444) rotate(104.643) scale(5.37485 5.85207)">
<stop stop-color="#D00500" stop-opacity="0"/>
<stop offset="1" stop-color="#D00500"/>
</radialGradient>
</defs>
</svg>
