<svg width="35" height="31" viewBox="0 0 35 31" fill="none" xmlns="http://www.w3.org/2000/svg">
<path d="M30.4755 2.26875C30.1005 1.1625 29.0505 0.375 27.813 0.375H7.18799C5.95049 0.375 4.91924 1.1625 4.52549 2.26875L0.625488 13.5V28.5C0.625488 29.5313 1.46924 30.375 2.50049 30.375H4.37549C5.40674 30.375 6.25049 29.5313 6.25049 28.5V26.625H28.7505V28.5C28.7505 29.5313 29.5942 30.375 30.6255 30.375H32.5005C33.5317 30.375 34.3755 29.5313 34.3755 28.5V13.5L30.4755 2.26875ZM7.18799 21C5.63174 21 4.37549 19.7438 4.37549 18.1875C4.37549 16.6313 5.63174 15.375 7.18799 15.375C8.74424 15.375 10.0005 16.6313 10.0005 18.1875C10.0005 19.7438 8.74424 21 7.18799 21ZM27.813 21C26.2567 21 25.0005 19.7438 25.0005 18.1875C25.0005 16.6313 26.2567 15.375 27.813 15.375C29.3692 15.375 30.6255 16.6313 30.6255 18.1875C30.6255 19.7438 29.3692 21 27.813 21ZM4.37549 11.625L7.18799 3.1875H27.813L30.6255 11.625H4.37549Z" fill="white"/>
</svg>
