<svg width="43" height="27" viewBox="0 0 43 27" fill="none" xmlns="http://www.w3.org/2000/svg">
<path d="M29.0005 11.625C32.113 11.625 34.6067 9.1125 34.6067 6C34.6067 2.8875 32.113 0.375 29.0005 0.375C25.888 0.375 23.3755 2.8875 23.3755 6C23.3755 9.1125 25.888 11.625 29.0005 11.625ZM14.0005 11.625C17.113 11.625 19.6067 9.1125 19.6067 6C19.6067 2.8875 17.113 0.375 14.0005 0.375C10.888 0.375 8.37549 2.8875 8.37549 6C8.37549 9.1125 10.888 11.625 14.0005 11.625ZM14.0005 15.375C9.63174 15.375 0.875488 17.5688 0.875488 21.9375L0.875488 26.625H27.1255V21.9375C27.1255 17.5688 18.3692 15.375 14.0005 15.375ZM29.0005 15.375C28.4567 15.375 27.838 15.4125 27.1817 15.4688C29.3567 17.0438 30.8755 19.1625 30.8755 21.9375V26.625L42.1255 26.625V21.9375C42.1255 17.5688 33.3692 15.375 29.0005 15.375Z" fill="white"/>
</svg>
