<svg width="35" height="39" viewBox="0 0 35 39" fill="none" xmlns="http://www.w3.org/2000/svg">
<path d="M30.6255 4.625H22.788C22.0005 2.45 19.938 0.875 17.5005 0.875C15.063 0.875 13.0005 2.45 12.213 4.625H4.37549C2.31299 4.625 0.625488 6.3125 0.625488 8.375V34.625C0.625488 36.6875 2.31299 38.375 4.37549 38.375H30.6255C32.688 38.375 34.3755 36.6875 34.3755 34.625V8.375C34.3755 6.3125 32.688 4.625 30.6255 4.625ZM17.5005 4.625C18.5317 4.625 19.3755 5.46875 19.3755 6.5C19.3755 7.53125 18.5317 8.375 17.5005 8.375C16.4692 8.375 15.6255 7.53125 15.6255 6.5C15.6255 5.46875 16.4692 4.625 17.5005 4.625ZM13.7505 30.875L6.25049 23.375L8.89424 20.7312L13.7505 25.5687L26.1067 13.2125L28.7505 15.875L13.7505 30.875Z" fill="white"/>
</svg>
