<svg width="468" height="496" viewBox="0 0 468 496" fill="none" xmlns="http://www.w3.org/2000/svg">
<circle cx="394.755" cy="340.582" r="4" transform="rotate(125.146 394.755 340.582)" fill="white" fill-opacity="0.6"/>
<circle cx="375.13" cy="326.767" r="4" transform="rotate(125.146 375.13 326.767)" fill="white" fill-opacity="0.6"/>
<circle cx="355.506" cy="312.951" r="4" transform="rotate(125.146 355.506 312.951)" fill="white" fill-opacity="0.6"/>
<circle cx="285.98" cy="417.376" r="4" transform="rotate(170.146 285.98 417.376)" fill="white" fill-opacity="0.6"/>
<circle cx="281.872" cy="393.73" r="4" transform="rotate(170.146 281.872 393.73)" fill="white" fill-opacity="0.6"/>
<circle cx="277.765" cy="370.084" r="4" transform="rotate(170.146 277.765 370.084)" fill="white" fill-opacity="0.6"/>
<circle cx="154.761" cy="394.755" r="4" transform="rotate(-144.854 154.761 394.755)" fill="white" fill-opacity="0.6"/>
<circle cx="168.577" cy="375.13" r="4" transform="rotate(-144.854 168.577 375.13)" fill="white" fill-opacity="0.6"/>
<circle cx="182.393" cy="355.506" r="4" transform="rotate(-144.854 182.393 355.506)" fill="white" fill-opacity="0.6"/>
<circle cx="77.9659" cy="285.972" r="4" transform="rotate(-99.8542 77.9659 285.972)" fill="white" fill-opacity="0.6"/>
<circle cx="101.612" cy="281.865" r="4" transform="rotate(-99.8542 101.612 281.865)" fill="white" fill-opacity="0.6"/>
<circle cx="125.258" cy="277.758" r="4" transform="rotate(-99.8542 125.258 277.758)" fill="white" fill-opacity="0.6"/>
<circle cx="100.59" cy="154.76" r="4" transform="rotate(-54.8542 100.59 154.76)" fill="white" fill-opacity="0.6"/>
<circle cx="120.215" cy="168.576" r="4" transform="rotate(-54.8542 120.215 168.576)" fill="white" fill-opacity="0.6"/>
<circle cx="139.839" cy="182.392" r="4" transform="rotate(-54.8542 139.839 182.392)" fill="white" fill-opacity="0.6"/>
<circle cx="209.364" cy="77.9682" r="4" transform="rotate(-9.85419 209.364 77.9682)" fill="white" fill-opacity="0.6"/>
<circle cx="213.471" cy="101.614" r="4" transform="rotate(-9.85419 213.471 101.614)" fill="white" fill-opacity="0.6"/>
<circle cx="217.579" cy="125.26" r="4" transform="rotate(-9.85419 217.579 125.26)" fill="white" fill-opacity="0.6"/>
<circle cx="340.582" cy="100.589" r="4" transform="rotate(35.1458 340.582 100.589)" fill="white" fill-opacity="0.6"/>
<circle cx="326.766" cy="120.214" r="4" transform="rotate(35.1458 326.766 120.214)" fill="white" fill-opacity="0.6"/>
<circle cx="312.951" cy="139.838" r="4" transform="rotate(35.1458 312.951 139.838)" fill="white" fill-opacity="0.6"/>
<circle cx="417.378" cy="209.371" r="4" transform="rotate(80.1458 417.378 209.371)" fill="white" fill-opacity="0.6"/>
<circle cx="393.732" cy="213.479" r="4" transform="rotate(80.1458 393.732 213.479)" fill="white" fill-opacity="0.6"/>
<circle cx="370.086" cy="217.586" r="4" transform="rotate(80.1458 370.086 217.586)" fill="white" fill-opacity="0.6"/>
</svg>
