<svg width="292" height="310" viewBox="0 0 292 310" fill="none" xmlns="http://www.w3.org/2000/svg">
<circle cx="263.367" cy="175.043" r="4" transform="rotate(-180 263.367 175.043)" fill="white"/>
<circle cx="177.689" cy="149.802" r="4" transform="rotate(-135 177.689 149.802)" fill="white"/>
<circle cx="134.957" cy="71.3711" r="4" transform="rotate(-90 134.957 71.3711)" fill="white"/>
<circle cx="263.369" cy="240.521" r="3.5" transform="rotate(180 263.369 240.521)" stroke="white"/>
<circle cx="192.964" cy="231.438" r="3.5" transform="rotate(-157.5 192.964 231.438)" stroke="white"/>
<circle cx="131.391" cy="196.103" r="3.5" transform="rotate(-135 131.391 196.103)" stroke="white"/>
<circle cx="88.03" cy="139.893" r="3.5" transform="rotate(-112.5 88.03 139.893)" stroke="white"/>
<circle cx="69.4785" cy="71.3711" r="3.5" transform="rotate(-90 69.4785 71.3711)" stroke="white"/>
<circle cx="78.5622" cy="0.964122" r="3.5" transform="rotate(-67.5 78.5622 0.964122)" stroke="white"/>
<circle cx="263.367" cy="306" r="4" transform="rotate(180 263.367 306)" fill="white"/>
<circle cx="199.019" cy="300.785" r="4" transform="rotate(-165 199.019 300.785)" fill="white"/>
<circle cx="138.214" cy="279.093" r="4" transform="rotate(-150 138.214 279.093)" fill="white"/>
<circle cx="85.0898" cy="242.402" r="4" transform="rotate(-135 85.0898 242.402)" fill="white"/>
<circle cx="43.2786" cy="193.212" r="4" transform="rotate(-120 43.2786 193.212)" fill="white"/>
<circle cx="15.6175" cy="134.874" r="4" transform="rotate(-105 15.6175 134.874)" fill="white"/>
<circle cx="4" cy="71.3691" r="4" transform="rotate(-90 4 71.3691)" fill="white"/>
<circle cx="9.21539" cy="7.01923" r="4" transform="rotate(-75 9.21539 7.01923)" fill="white"/>
</svg>
