<svg width="370" height="146" viewBox="0 0 370 146" fill="none" xmlns="http://www.w3.org/2000/svg">
<path d="M0.674805 12.5029L17.4144 12.503" stroke="#2F2F49"/>
<path d="M17.416 145L17.416 11.9999" stroke="#2F2F49"/>
<path d="M0.674805 45.5808L17.4144 45.5808" stroke="#2F2F49"/>
<path d="M0.674805 78.5037L17.4144 78.5037" stroke="#2F2F49"/>
<path d="M0.674805 111.426L17.4144 111.426" stroke="#2F2F49"/>
<path d="M0.674805 144.498L17.4144 144.498" stroke="#2F2F49"/>
<path d="M7.79461 8C7.73595 8 7.68795 7.98133 7.65061 7.944C7.61861 7.90667 7.60261 7.86133 7.60261 7.808V3.664L6.38661 4.6C6.33861 4.632 6.29061 4.64533 6.24261 4.64C6.19461 4.62933 6.15195 4.6 6.11461 4.552L5.77861 4.12C5.74661 4.072 5.73328 4.02133 5.73861 3.968C5.74928 3.91467 5.77861 3.872 5.82661 3.84L7.61861 2.456C7.65061 2.42933 7.68261 2.41333 7.71461 2.408C7.74661 2.40267 7.78128 2.4 7.81861 2.4H8.52261C8.57595 2.4 8.62128 2.41867 8.65861 2.456C8.69595 2.49333 8.71461 2.53867 8.71461 2.592V7.808C8.71461 7.86133 8.69595 7.90667 8.65861 7.944C8.62128 7.98133 8.57595 8 8.52261 8H7.79461ZM11.8337 8.08C11.3751 8.08 10.9804 7.99467 10.6497 7.824C10.3191 7.648 10.0631 7.41333 9.88174 7.12C9.7004 6.82133 9.60974 6.488 9.60974 6.12C9.60974 5.95467 9.63107 5.79467 9.67374 5.64C9.7164 5.48533 9.7724 5.33867 9.84174 5.2C9.91107 5.06133 9.97774 4.93867 10.0417 4.832C10.1111 4.72 10.1724 4.632 10.2257 4.568L11.6897 2.56C11.7111 2.53333 11.7431 2.50133 11.7857 2.464C11.8284 2.42133 11.8871 2.4 11.9617 2.4H12.7057C12.7537 2.4 12.7937 2.41867 12.8257 2.456C12.8577 2.488 12.8737 2.528 12.8737 2.576C12.8737 2.59733 12.8684 2.61867 12.8577 2.64C12.8524 2.656 12.8444 2.66933 12.8337 2.68L11.7137 4.232C11.7617 4.216 11.8177 4.20533 11.8817 4.2C11.9457 4.19467 12.0044 4.192 12.0577 4.192C12.3244 4.19733 12.5777 4.25067 12.8177 4.352C13.0577 4.448 13.2684 4.58133 13.4497 4.752C13.6311 4.92267 13.7724 5.12267 13.8737 5.352C13.9804 5.58133 14.0337 5.832 14.0337 6.104C14.0337 6.456 13.9457 6.784 13.7697 7.088C13.5937 7.38667 13.3404 7.62667 13.0097 7.808C12.6844 7.98933 12.2924 8.08 11.8337 8.08ZM11.8257 7.16C12.0177 7.16 12.1937 7.12 12.3537 7.04C12.5191 6.96 12.6524 6.84267 12.7537 6.688C12.8551 6.53333 12.9057 6.34133 12.9057 6.112C12.9057 5.888 12.8551 5.69867 12.7537 5.544C12.6524 5.38933 12.5191 5.272 12.3537 5.192C12.1937 5.112 12.0177 5.072 11.8257 5.072C11.6337 5.072 11.4551 5.112 11.2897 5.192C11.1297 5.272 10.9991 5.38933 10.8977 5.544C10.7964 5.69867 10.7457 5.888 10.7457 6.112C10.7457 6.34133 10.7964 6.53333 10.8977 6.688C10.9991 6.84267 11.1297 6.96 11.2897 7.04C11.4551 7.12 11.6337 7.16 11.8257 7.16Z" fill="#AAAAAA"/>
<path d="M11.7236 41.08C11.3716 41.08 11.0569 41.0373 10.7796 40.952C10.5023 40.8667 10.2676 40.7467 10.0756 40.592C9.88894 40.4373 9.74494 40.256 9.64361 40.048C9.54761 39.84 9.49961 39.608 9.49961 39.352C9.49961 39.0427 9.57428 38.776 9.72361 38.552C9.87828 38.3227 10.0783 38.1467 10.3236 38.024C10.1263 37.9013 9.97161 37.744 9.85961 37.552C9.75294 37.36 9.69961 37.136 9.69961 36.88C9.69961 36.5707 9.77694 36.3013 9.93161 36.072C10.0916 35.8373 10.3209 35.6533 10.6196 35.52C10.9236 35.3867 11.2916 35.32 11.7236 35.32C12.1556 35.32 12.5209 35.3867 12.8196 35.52C13.1183 35.648 13.3449 35.8293 13.4996 36.064C13.6543 36.2933 13.7316 36.5627 13.7316 36.872C13.7316 37.128 13.6783 37.352 13.5716 37.544C13.4649 37.736 13.3156 37.896 13.1236 38.024C13.3743 38.1413 13.5743 38.3173 13.7236 38.552C13.8729 38.7813 13.9476 39.0507 13.9476 39.36C13.9476 39.696 13.8596 39.9947 13.6836 40.256C13.5129 40.512 13.2596 40.7147 12.9236 40.864C12.5929 41.008 12.1929 41.08 11.7236 41.08ZM11.7236 40.248C11.9316 40.248 12.1183 40.2133 12.2836 40.144C12.4543 40.0693 12.5876 39.9653 12.6836 39.832C12.7849 39.6987 12.8356 39.5413 12.8356 39.36C12.8356 39.1733 12.7849 39.016 12.6836 38.888C12.5876 38.7547 12.4543 38.6533 12.2836 38.584C12.1183 38.5093 11.9316 38.472 11.7236 38.472C11.5156 38.472 11.3263 38.5093 11.1556 38.584C10.9903 38.6533 10.8569 38.7547 10.7556 38.888C10.6596 39.016 10.6116 39.1733 10.6116 39.36C10.6116 39.5413 10.6596 39.6987 10.7556 39.832C10.8569 39.9653 10.9903 40.0693 11.1556 40.144C11.3263 40.2133 11.5156 40.248 11.7236 40.248ZM11.7236 37.68C11.8996 37.6747 12.0596 37.64 12.2036 37.576C12.3529 37.512 12.4703 37.424 12.5556 37.312C12.6463 37.2 12.6916 37.0693 12.6916 36.92C12.6916 36.7653 12.6489 36.632 12.5636 36.52C12.4836 36.4027 12.3689 36.312 12.2196 36.248C12.0756 36.184 11.9103 36.152 11.7236 36.152C11.5369 36.152 11.3689 36.184 11.2196 36.248C11.0756 36.312 10.9609 36.4027 10.8756 36.52C10.7956 36.632 10.7556 36.7653 10.7556 36.92C10.7556 37.0747 10.7956 37.208 10.8756 37.32C10.9609 37.432 11.0756 37.52 11.2196 37.584C11.3689 37.648 11.5369 37.68 11.7236 37.68Z" fill="#AAAAAA"/>
<path d="M11.603 74.08C11.2243 74.08 10.9017 74.024 10.635 73.912C10.3683 73.8 10.1497 73.6453 9.979 73.448C9.80834 73.2507 9.68034 73.024 9.595 72.768C9.50967 72.5067 9.459 72.2293 9.443 71.936C9.43767 71.792 9.43234 71.6347 9.427 71.464C9.427 71.288 9.427 71.112 9.427 70.936C9.43234 70.76 9.43767 70.5973 9.443 70.448C9.45367 70.1547 9.50434 69.88 9.595 69.624C9.68567 69.3627 9.81634 69.136 9.987 68.944C10.163 68.752 10.3843 68.6 10.651 68.488C10.9177 68.376 11.235 68.32 11.603 68.32C11.9763 68.32 12.2963 68.376 12.563 68.488C12.8297 68.6 13.0483 68.752 13.219 68.944C13.395 69.136 13.5257 69.3627 13.611 69.624C13.7017 69.88 13.7523 70.1547 13.763 70.448C13.7737 70.5973 13.779 70.76 13.779 70.936C13.779 71.112 13.779 71.288 13.779 71.464C13.779 71.6347 13.7737 71.792 13.763 71.936C13.7523 72.2293 13.7043 72.5067 13.619 72.768C13.5337 73.024 13.4057 73.2507 13.235 73.448C13.0643 73.6453 12.843 73.8 12.571 73.912C12.3043 74.024 11.9817 74.08 11.603 74.08ZM11.603 73.16C11.9497 73.16 12.203 73.048 12.363 72.824C12.5283 72.5947 12.6137 72.2853 12.619 71.896C12.6297 71.7413 12.635 71.5867 12.635 71.432C12.635 71.272 12.635 71.112 12.635 70.952C12.635 70.792 12.6297 70.64 12.619 70.496C12.6137 70.1173 12.5283 69.8133 12.363 69.584C12.203 69.3493 11.9497 69.232 11.603 69.232C11.2617 69.232 11.0083 69.3493 10.843 69.584C10.683 69.8133 10.5977 70.1173 10.587 70.496C10.587 70.64 10.5843 70.792 10.579 70.952C10.579 71.112 10.579 71.272 10.579 71.432C10.5843 71.5867 10.587 71.7413 10.587 71.896C10.5977 72.2853 10.6857 72.5947 10.851 72.824C11.0163 73.048 11.267 73.16 11.603 73.16Z" fill="#AAAAAA"/>
<path d="M6.57686 105.056C6.51819 105.056 6.47019 105.037 6.43286 105C6.40086 104.963 6.38486 104.917 6.38486 104.864V104.336C6.38486 104.283 6.40086 104.237 6.43286 104.2C6.47019 104.163 6.51819 104.144 6.57686 104.144H9.03286C9.08619 104.144 9.13153 104.163 9.16886 104.2C9.20619 104.237 9.22486 104.283 9.22486 104.336V104.864C9.22486 104.917 9.20619 104.963 9.16886 105C9.13153 105.037 9.08619 105.056 9.03286 105.056H6.57686ZM12.3564 107.08C12.0044 107.08 11.6898 107.037 11.4124 106.952C11.1351 106.867 10.9004 106.747 10.7084 106.592C10.5218 106.437 10.3778 106.256 10.2764 106.048C10.1804 105.84 10.1324 105.608 10.1324 105.352C10.1324 105.043 10.2071 104.776 10.3564 104.552C10.5111 104.323 10.7111 104.147 10.9564 104.024C10.7591 103.901 10.6044 103.744 10.4924 103.552C10.3858 103.36 10.3324 103.136 10.3324 102.88C10.3324 102.571 10.4098 102.301 10.5644 102.072C10.7244 101.837 10.9538 101.653 11.2524 101.52C11.5564 101.387 11.9244 101.32 12.3564 101.32C12.7884 101.32 13.1538 101.387 13.4524 101.52C13.7511 101.648 13.9778 101.829 14.1324 102.064C14.2871 102.293 14.3644 102.563 14.3644 102.872C14.3644 103.128 14.3111 103.352 14.2044 103.544C14.0978 103.736 13.9484 103.896 13.7564 104.024C14.0071 104.141 14.2071 104.317 14.3564 104.552C14.5058 104.781 14.5804 105.051 14.5804 105.36C14.5804 105.696 14.4924 105.995 14.3164 106.256C14.1458 106.512 13.8924 106.715 13.5564 106.864C13.2258 107.008 12.8258 107.08 12.3564 107.08ZM12.3564 106.248C12.5644 106.248 12.7511 106.213 12.9164 106.144C13.0871 106.069 13.2204 105.965 13.3164 105.832C13.4178 105.699 13.4684 105.541 13.4684 105.36C13.4684 105.173 13.4178 105.016 13.3164 104.888C13.2204 104.755 13.0871 104.653 12.9164 104.584C12.7511 104.509 12.5644 104.472 12.3564 104.472C12.1484 104.472 11.9591 104.509 11.7884 104.584C11.6231 104.653 11.4898 104.755 11.3884 104.888C11.2924 105.016 11.2444 105.173 11.2444 105.36C11.2444 105.541 11.2924 105.699 11.3884 105.832C11.4898 105.965 11.6231 106.069 11.7884 106.144C11.9591 106.213 12.1484 106.248 12.3564 106.248ZM12.3564 103.68C12.5324 103.675 12.6924 103.64 12.8364 103.576C12.9858 103.512 13.1031 103.424 13.1884 103.312C13.2791 103.2 13.3244 103.069 13.3244 102.92C13.3244 102.765 13.2818 102.632 13.1964 102.52C13.1164 102.403 13.0018 102.312 12.8524 102.248C12.7084 102.184 12.5431 102.152 12.3564 102.152C12.1698 102.152 12.0018 102.184 11.8524 102.248C11.7084 102.312 11.5938 102.403 11.5084 102.52C11.4284 102.632 11.3884 102.765 11.3884 102.92C11.3884 103.075 11.4284 103.208 11.5084 103.32C11.5938 103.432 11.7084 103.52 11.8524 103.584C12.0018 103.648 12.1698 103.68 12.3564 103.68Z" fill="#AAAAAA"/>
<path d="M3.73311 139.056C3.67444 139.056 3.62644 139.037 3.58911 139C3.55711 138.963 3.54111 138.917 3.54111 138.864V138.336C3.54111 138.283 3.55711 138.237 3.58911 138.2C3.62644 138.163 3.67444 138.144 3.73311 138.144H6.18911C6.24244 138.144 6.28778 138.163 6.32511 138.2C6.36244 138.237 6.38111 138.283 6.38111 138.336V138.864C6.38111 138.917 6.36244 138.963 6.32511 139C6.28778 139.037 6.24244 139.056 6.18911 139.056H3.73311ZM8.84686 141C8.78819 141 8.74019 140.981 8.70286 140.944C8.67086 140.907 8.65486 140.861 8.65486 140.808V136.664L7.43886 137.6C7.39086 137.632 7.34286 137.645 7.29486 137.64C7.24686 137.629 7.20419 137.6 7.16686 137.552L6.83086 137.12C6.79886 137.072 6.78553 137.021 6.79086 136.968C6.80153 136.915 6.83086 136.872 6.87886 136.84L8.67086 135.456C8.70286 135.429 8.73486 135.413 8.76686 135.408C8.79886 135.403 8.83353 135.4 8.87086 135.4H9.57486C9.62819 135.4 9.67353 135.419 9.71086 135.456C9.74819 135.493 9.76686 135.539 9.76686 135.592V140.808C9.76686 140.861 9.74819 140.907 9.71086 140.944C9.67353 140.981 9.62819 141 9.57486 141H8.84686ZM12.886 141.08C12.4273 141.08 12.0327 140.995 11.702 140.824C11.3713 140.648 11.1153 140.413 10.934 140.12C10.7527 139.821 10.662 139.488 10.662 139.12C10.662 138.955 10.6833 138.795 10.726 138.64C10.7687 138.485 10.8247 138.339 10.894 138.2C10.9633 138.061 11.03 137.939 11.094 137.832C11.1633 137.72 11.2247 137.632 11.278 137.568L12.742 135.56C12.7633 135.533 12.7953 135.501 12.838 135.464C12.8807 135.421 12.9393 135.4 13.014 135.4H13.758C13.806 135.4 13.846 135.419 13.878 135.456C13.91 135.488 13.926 135.528 13.926 135.576C13.926 135.597 13.9207 135.619 13.91 135.64C13.9047 135.656 13.8967 135.669 13.886 135.68L12.766 137.232C12.814 137.216 12.87 137.205 12.934 137.2C12.998 137.195 13.0567 137.192 13.11 137.192C13.3767 137.197 13.63 137.251 13.87 137.352C14.11 137.448 14.3207 137.581 14.502 137.752C14.6833 137.923 14.8247 138.123 14.926 138.352C15.0327 138.581 15.086 138.832 15.086 139.104C15.086 139.456 14.998 139.784 14.822 140.088C14.646 140.387 14.3927 140.627 14.062 140.808C13.7367 140.989 13.3447 141.08 12.886 141.08ZM12.878 140.16C13.07 140.16 13.246 140.12 13.406 140.04C13.5713 139.96 13.7047 139.843 13.806 139.688C13.9073 139.533 13.958 139.341 13.958 139.112C13.958 138.888 13.9073 138.699 13.806 138.544C13.7047 138.389 13.5713 138.272 13.406 138.192C13.246 138.112 13.07 138.072 12.878 138.072C12.686 138.072 12.5073 138.112 12.342 138.192C12.182 138.272 12.0513 138.389 11.95 138.544C11.8487 138.699 11.798 138.888 11.798 139.112C11.798 139.341 11.8487 139.533 11.95 139.688C12.0513 139.843 12.182 139.96 12.342 140.04C12.5073 140.12 12.686 140.16 12.878 140.16Z" fill="#AAAAAA"/>
<path d="M34.6275 8C34.5689 8 34.5209 7.98133 34.4835 7.944C34.4515 7.90667 34.4355 7.86133 34.4355 7.808V3.664L33.2195 4.6C33.1715 4.632 33.1235 4.64533 33.0755 4.64C33.0275 4.62933 32.9849 4.6 32.9475 4.552L32.6115 4.12C32.5795 4.072 32.5662 4.02133 32.5715 3.968C32.5822 3.91467 32.6115 3.872 32.6595 3.84L34.4515 2.456C34.4835 2.42933 34.5155 2.41333 34.5475 2.408C34.5795 2.40267 34.6142 2.4 34.6515 2.4H35.3555C35.4089 2.4 35.4542 2.41867 35.4915 2.456C35.5289 2.49333 35.5475 2.53867 35.5475 2.592V7.808C35.5475 7.86133 35.5289 7.90667 35.4915 7.944C35.4542 7.98133 35.4089 8 35.3555 8H34.6275ZM36.7867 8C36.7333 8 36.688 7.98133 36.6507 7.944C36.6133 7.90667 36.5947 7.86133 36.5947 7.808V7.016C36.5947 6.95733 36.6133 6.90933 36.6507 6.872C36.688 6.83467 36.7333 6.816 36.7867 6.816H37.5867C37.64 6.816 37.6853 6.83467 37.7227 6.872C37.76 6.90933 37.7787 6.95733 37.7787 7.016V7.808C37.7787 7.86133 37.76 7.90667 37.7227 7.944C37.6853 7.98133 37.64 8 37.5867 8H36.7867ZM40.7033 8.088C40.2446 8.088 39.858 8.01333 39.5433 7.864C39.2286 7.70933 38.9886 7.50933 38.8233 7.264C38.6633 7.01867 38.578 6.75733 38.5673 6.48C38.562 6.432 38.5753 6.39467 38.6073 6.368C38.6446 6.336 38.6873 6.32 38.7353 6.32H39.4793C39.538 6.32 39.586 6.33333 39.6233 6.36C39.666 6.38133 39.698 6.42133 39.7193 6.48C39.7726 6.64 39.8473 6.77067 39.9433 6.872C40.0446 6.97333 40.1593 7.048 40.2873 7.096C40.4206 7.144 40.5593 7.168 40.7033 7.168C40.8953 7.168 41.0686 7.13067 41.2233 7.056C41.3833 6.976 41.5113 6.85867 41.6073 6.704C41.7033 6.54933 41.7513 6.36 41.7513 6.136C41.7513 5.93867 41.706 5.768 41.6153 5.624C41.5246 5.48 41.3993 5.368 41.2393 5.288C41.0846 5.20267 40.906 5.16 40.7033 5.16C40.554 5.16 40.4313 5.17867 40.3353 5.216C40.2393 5.25333 40.1566 5.296 40.0873 5.344C40.0233 5.392 39.9646 5.43467 39.9113 5.472C39.8633 5.50933 39.8073 5.528 39.7433 5.528H39.0073C38.9593 5.528 38.9166 5.512 38.8793 5.48C38.8473 5.44267 38.8313 5.4 38.8313 5.352L39.1113 2.616C39.1166 2.54667 39.1406 2.49333 39.1833 2.456C39.226 2.41867 39.2766 2.4 39.3353 2.4H42.3433C42.3966 2.4 42.442 2.41867 42.4793 2.456C42.5166 2.49333 42.5353 2.53867 42.5353 2.592V3.128C42.5353 3.18133 42.5166 3.22667 42.4793 3.264C42.442 3.30133 42.3966 3.32 42.3433 3.32H40.0313L39.9033 4.624C39.9993 4.56 40.1273 4.49867 40.2873 4.44C40.4473 4.38133 40.6686 4.352 40.9513 4.352C41.2073 4.352 41.45 4.39467 41.6793 4.48C41.914 4.56 42.122 4.68 42.3033 4.84C42.4846 4.99467 42.626 5.184 42.7273 5.408C42.834 5.62667 42.8873 5.87733 42.8873 6.16C42.8873 6.54933 42.7966 6.888 42.6153 7.176C42.434 7.464 42.1806 7.688 41.8553 7.848C41.53 8.008 41.146 8.088 40.7033 8.088Z" fill="white"/>
<path d="M41.7286 40.7422C41.6699 40.7422 41.6219 40.7235 41.5846 40.6862C41.5526 40.6489 41.5366 40.6035 41.5366 40.5502V36.4062L40.3206 37.3422C40.2726 37.3742 40.2246 37.3875 40.1766 37.3822C40.1286 37.3715 40.0859 37.3422 40.0486 37.2942L39.7126 36.8622C39.6806 36.8142 39.6672 36.7635 39.6726 36.7102C39.6832 36.6569 39.7126 36.6142 39.7606 36.5822L41.5526 35.1982C41.5846 35.1715 41.6166 35.1555 41.6486 35.1502C41.6806 35.1449 41.7152 35.1422 41.7526 35.1422H42.4566C42.5099 35.1422 42.5552 35.1609 42.5926 35.1982C42.6299 35.2355 42.6486 35.2809 42.6486 35.3342V40.5502C42.6486 40.6035 42.6299 40.6489 42.5926 40.6862C42.5552 40.7235 42.5099 40.7422 42.4566 40.7422H41.7286Z" fill="white"/>
<path d="M33.5662 74.0204C33.1876 74.0204 32.8649 73.9644 32.5982 73.8524C32.3316 73.7404 32.1129 73.5858 31.9422 73.3884C31.7716 73.1911 31.6436 72.9644 31.5582 72.7084C31.4729 72.4471 31.4222 72.1698 31.4062 71.8764C31.4009 71.7324 31.3956 71.5751 31.3902 71.4044C31.3902 71.2284 31.3902 71.0524 31.3902 70.8764C31.3956 70.7004 31.4009 70.5378 31.4062 70.3884C31.4169 70.0951 31.4676 69.8204 31.5582 69.5644C31.6489 69.3031 31.7796 69.0764 31.9502 68.8844C32.1262 68.6924 32.3476 68.5404 32.6142 68.4284C32.8809 68.3164 33.1982 68.2604 33.5662 68.2604C33.9396 68.2604 34.2596 68.3164 34.5262 68.4284C34.7929 68.5404 35.0116 68.6924 35.1822 68.8844C35.3582 69.0764 35.4889 69.3031 35.5742 69.5644C35.6649 69.8204 35.7156 70.0951 35.7262 70.3884C35.7369 70.5378 35.7422 70.7004 35.7422 70.8764C35.7422 71.0524 35.7422 71.2284 35.7422 71.4044C35.7422 71.5751 35.7369 71.7324 35.7262 71.8764C35.7156 72.1698 35.6676 72.4471 35.5822 72.7084C35.4969 72.9644 35.3689 73.1911 35.1982 73.3884C35.0276 73.5858 34.8062 73.7404 34.5342 73.8524C34.2676 73.9644 33.9449 74.0204 33.5662 74.0204ZM33.5662 73.1004C33.9129 73.1004 34.1662 72.9884 34.3262 72.7644C34.4916 72.5351 34.5769 72.2258 34.5822 71.8364C34.5929 71.6818 34.5982 71.5271 34.5982 71.3724C34.5982 71.2124 34.5982 71.0524 34.5982 70.8924C34.5982 70.7324 34.5929 70.5804 34.5822 70.4364C34.5769 70.0578 34.4916 69.7538 34.3262 69.5244C34.1662 69.2898 33.9129 69.1724 33.5662 69.1724C33.2249 69.1724 32.9716 69.2898 32.8062 69.5244C32.6462 69.7538 32.5609 70.0578 32.5502 70.4364C32.5502 70.5804 32.5476 70.7324 32.5422 70.8924C32.5422 71.0524 32.5422 71.2124 32.5422 71.3724C32.5476 71.5271 32.5502 71.6818 32.5502 71.8364C32.5609 72.2258 32.6489 72.5351 32.8142 72.7644C32.9796 72.9884 33.2302 73.1004 33.5662 73.1004ZM36.7861 73.9404C36.7328 73.9404 36.6875 73.9218 36.6501 73.8844C36.6128 73.8471 36.5941 73.8018 36.5941 73.7484V72.9564C36.5941 72.8978 36.6128 72.8498 36.6501 72.8124C36.6875 72.7751 36.7328 72.7564 36.7861 72.7564H37.5861C37.6395 72.7564 37.6848 72.7751 37.7221 72.8124C37.7595 72.8498 37.7781 72.8978 37.7781 72.9564V73.7484C37.7781 73.8018 37.7595 73.8471 37.7221 73.8844C37.6848 73.9218 37.6395 73.9404 37.5861 73.9404H36.7861ZM40.7027 74.0284C40.2441 74.0284 39.8574 73.9538 39.5427 73.8044C39.2281 73.6498 38.9881 73.4498 38.8227 73.2044C38.6627 72.9591 38.5774 72.6978 38.5667 72.4204C38.5614 72.3724 38.5747 72.3351 38.6067 72.3084C38.6441 72.2764 38.6867 72.2604 38.7347 72.2604H39.4787C39.5374 72.2604 39.5854 72.2738 39.6227 72.3004C39.6654 72.3218 39.6974 72.3618 39.7187 72.4204C39.7721 72.5804 39.8467 72.7111 39.9427 72.8124C40.0441 72.9138 40.1587 72.9884 40.2867 73.0364C40.4201 73.0844 40.5587 73.1084 40.7027 73.1084C40.8947 73.1084 41.0681 73.0711 41.2227 72.9964C41.3827 72.9164 41.5107 72.7991 41.6067 72.6444C41.7027 72.4898 41.7507 72.3004 41.7507 72.0764C41.7507 71.8791 41.7054 71.7084 41.6147 71.5644C41.5241 71.4204 41.3987 71.3084 41.2387 71.2284C41.0841 71.1431 40.9054 71.1004 40.7027 71.1004C40.5534 71.1004 40.4307 71.1191 40.3347 71.1564C40.2387 71.1938 40.1561 71.2364 40.0867 71.2844C40.0227 71.3324 39.9641 71.3751 39.9107 71.4124C39.8627 71.4498 39.8067 71.4684 39.7427 71.4684H39.0067C38.9587 71.4684 38.9161 71.4524 38.8787 71.4204C38.8467 71.3831 38.8307 71.3404 38.8307 71.2924L39.1107 68.5564C39.1161 68.4871 39.1401 68.4338 39.1827 68.3964C39.2254 68.3591 39.2761 68.3404 39.3347 68.3404H42.3427C42.3961 68.3404 42.4414 68.3591 42.4787 68.3964C42.5161 68.4338 42.5347 68.4791 42.5347 68.5324V69.0684C42.5347 69.1218 42.5161 69.1671 42.4787 69.2044C42.4414 69.2418 42.3961 69.2604 42.3427 69.2604H40.0307L39.9027 70.5644C39.9987 70.5004 40.1267 70.4391 40.2867 70.3804C40.4467 70.3218 40.6681 70.2924 40.9507 70.2924C41.2067 70.2924 41.4494 70.3351 41.6787 70.4204C41.9134 70.5004 42.1214 70.6204 42.3027 70.7804C42.4841 70.9351 42.6254 71.1244 42.7267 71.3484C42.8334 71.5671 42.8867 71.8178 42.8867 72.1004C42.8867 72.4898 42.7961 72.8284 42.6147 73.1164C42.4334 73.4044 42.1801 73.6284 41.8547 73.7884C41.5294 73.9484 41.1454 74.0284 40.7027 74.0284Z" fill="white"/>
<path d="M40.5823 107.08C40.2037 107.08 39.881 107.024 39.6143 106.912C39.3477 106.8 39.129 106.645 38.9583 106.448C38.7877 106.251 38.6597 106.024 38.5743 105.768C38.489 105.507 38.4383 105.229 38.4223 104.936C38.417 104.792 38.4117 104.635 38.4063 104.464C38.4063 104.288 38.4063 104.112 38.4063 103.936C38.4117 103.76 38.417 103.597 38.4223 103.448C38.433 103.155 38.4837 102.88 38.5743 102.624C38.665 102.363 38.7957 102.136 38.9663 101.944C39.1423 101.752 39.3637 101.6 39.6303 101.488C39.897 101.376 40.2143 101.32 40.5823 101.32C40.9557 101.32 41.2757 101.376 41.5423 101.488C41.809 101.6 42.0277 101.752 42.1983 101.944C42.3743 102.136 42.505 102.363 42.5903 102.624C42.681 102.88 42.7317 103.155 42.7423 103.448C42.753 103.597 42.7583 103.76 42.7583 103.936C42.7583 104.112 42.7583 104.288 42.7583 104.464C42.7583 104.635 42.753 104.792 42.7423 104.936C42.7317 105.229 42.6837 105.507 42.5983 105.768C42.513 106.024 42.385 106.251 42.2143 106.448C42.0437 106.645 41.8223 106.8 41.5503 106.912C41.2837 107.024 40.961 107.08 40.5823 107.08ZM40.5823 106.16C40.929 106.16 41.1823 106.048 41.3423 105.824C41.5077 105.595 41.593 105.285 41.5983 104.896C41.609 104.741 41.6143 104.587 41.6143 104.432C41.6143 104.272 41.6143 104.112 41.6143 103.952C41.6143 103.792 41.609 103.64 41.5983 103.496C41.593 103.117 41.5077 102.813 41.3423 102.584C41.1823 102.349 40.929 102.232 40.5823 102.232C40.241 102.232 39.9877 102.349 39.8223 102.584C39.6623 102.813 39.577 103.117 39.5663 103.496C39.5663 103.64 39.5637 103.792 39.5583 103.952C39.5583 104.112 39.5583 104.272 39.5583 104.432C39.5637 104.587 39.5663 104.741 39.5663 104.896C39.577 105.285 39.665 105.595 39.8303 105.824C39.9957 106.048 40.2463 106.16 40.5823 106.16Z" fill="white"/>
<path d="M27.7866 138.819C27.7279 138.819 27.6799 138.801 27.6426 138.763C27.6106 138.726 27.5946 138.681 27.5946 138.627V138.099C27.5946 138.046 27.6106 138.001 27.6426 137.963C27.6799 137.926 27.7279 137.907 27.7866 137.907H30.2426C30.2959 137.907 30.3412 137.926 30.3786 137.963C30.4159 138.001 30.4346 138.046 30.4346 138.099V138.627C30.4346 138.681 30.4159 138.726 30.3786 138.763C30.3412 138.801 30.2959 138.819 30.2426 138.819H27.7866ZM33.5661 140.843C33.1875 140.843 32.8648 140.787 32.5981 140.675C32.3315 140.563 32.1128 140.409 31.9421 140.211C31.7715 140.014 31.6435 139.787 31.5581 139.531C31.4728 139.27 31.4221 138.993 31.4061 138.699C31.4008 138.555 31.3955 138.398 31.3901 138.227C31.3901 138.051 31.3901 137.875 31.3901 137.699C31.3955 137.523 31.4008 137.361 31.4061 137.211C31.4168 136.918 31.4675 136.643 31.5581 136.387C31.6488 136.126 31.7795 135.899 31.9501 135.707C32.1261 135.515 32.3475 135.363 32.6141 135.251C32.8808 135.139 33.1981 135.083 33.5661 135.083C33.9395 135.083 34.2595 135.139 34.5261 135.251C34.7928 135.363 35.0115 135.515 35.1821 135.707C35.3581 135.899 35.4888 136.126 35.5741 136.387C35.6648 136.643 35.7155 136.918 35.7261 137.211C35.7368 137.361 35.7421 137.523 35.7421 137.699C35.7421 137.875 35.7421 138.051 35.7421 138.227C35.7421 138.398 35.7368 138.555 35.7261 138.699C35.7155 138.993 35.6675 139.27 35.5821 139.531C35.4968 139.787 35.3688 140.014 35.1981 140.211C35.0275 140.409 34.8061 140.563 34.5341 140.675C34.2675 140.787 33.9448 140.843 33.5661 140.843ZM33.5661 139.923C33.9128 139.923 34.1661 139.811 34.3261 139.587C34.4915 139.358 34.5768 139.049 34.5821 138.659C34.5928 138.505 34.5981 138.35 34.5981 138.195C34.5981 138.035 34.5981 137.875 34.5981 137.715C34.5981 137.555 34.5928 137.403 34.5821 137.259C34.5768 136.881 34.4915 136.577 34.3261 136.347C34.1661 136.113 33.9128 135.995 33.5661 135.995C33.2248 135.995 32.9715 136.113 32.8061 136.347C32.6461 136.577 32.5608 136.881 32.5501 137.259C32.5501 137.403 32.5475 137.555 32.5421 137.715C32.5421 137.875 32.5421 138.035 32.5421 138.195C32.5475 138.35 32.5501 138.505 32.5501 138.659C32.5608 139.049 32.6488 139.358 32.8141 139.587C32.9795 139.811 33.2301 139.923 33.5661 139.923ZM36.786 140.763C36.7327 140.763 36.6873 140.745 36.65 140.707C36.6127 140.67 36.594 140.625 36.594 140.571V139.779C36.594 139.721 36.6127 139.673 36.65 139.635C36.6873 139.598 36.7327 139.579 36.786 139.579H37.586C37.6393 139.579 37.6847 139.598 37.722 139.635C37.7593 139.673 37.778 139.721 37.778 139.779V140.571C37.778 140.625 37.7593 140.67 37.722 140.707C37.6847 140.745 37.6393 140.763 37.586 140.763H36.786ZM40.7026 140.851C40.244 140.851 39.8573 140.777 39.5426 140.627C39.228 140.473 38.988 140.273 38.8226 140.027C38.6626 139.782 38.5773 139.521 38.5666 139.243C38.5613 139.195 38.5746 139.158 38.6066 139.131C38.644 139.099 38.6866 139.083 38.7346 139.083H39.4786C39.5373 139.083 39.5853 139.097 39.6226 139.123C39.6653 139.145 39.6973 139.185 39.7186 139.243C39.772 139.403 39.8466 139.534 39.9426 139.635C40.044 139.737 40.1586 139.811 40.2866 139.859C40.42 139.907 40.5586 139.931 40.7026 139.931C40.8946 139.931 41.068 139.894 41.2226 139.819C41.3826 139.739 41.5106 139.622 41.6066 139.467C41.7026 139.313 41.7506 139.123 41.7506 138.899C41.7506 138.702 41.7053 138.531 41.6146 138.387C41.524 138.243 41.3986 138.131 41.2386 138.051C41.084 137.966 40.9053 137.923 40.7026 137.923C40.5533 137.923 40.4306 137.942 40.3346 137.979C40.2386 138.017 40.156 138.059 40.0866 138.107C40.0226 138.155 39.964 138.198 39.9106 138.235C39.8626 138.273 39.8066 138.291 39.7426 138.291H39.0066C38.9586 138.291 38.916 138.275 38.8786 138.243C38.8466 138.206 38.8306 138.163 38.8306 138.115L39.1106 135.379C39.116 135.31 39.14 135.257 39.1826 135.219C39.2253 135.182 39.276 135.163 39.3346 135.163H42.3426C42.396 135.163 42.4413 135.182 42.4786 135.219C42.516 135.257 42.5346 135.302 42.5346 135.355V135.891C42.5346 135.945 42.516 135.99 42.4786 136.027C42.4413 136.065 42.396 136.083 42.3426 136.083H40.0306L39.9026 137.387C39.9986 137.323 40.1266 137.262 40.2866 137.203C40.4466 137.145 40.668 137.115 40.9506 137.115C41.2066 137.115 41.4493 137.158 41.6786 137.243C41.9133 137.323 42.1213 137.443 42.3026 137.603C42.484 137.758 42.6253 137.947 42.7266 138.171C42.8333 138.39 42.8866 138.641 42.8866 138.923C42.8866 139.313 42.796 139.651 42.6146 139.939C42.4333 140.227 42.18 140.451 41.8546 140.611C41.5293 140.771 41.1453 140.851 40.7026 140.851Z" fill="white"/>
<path d="M354.391 8C354.337 8 354.292 7.98133 354.255 7.944C354.217 7.90667 354.199 7.86133 354.199 7.808V7.4C354.199 7.352 354.209 7.296 354.231 7.232C354.257 7.16267 354.313 7.09333 354.399 7.024L355.663 5.768C356.015 5.49067 356.297 5.256 356.511 5.064C356.729 4.86667 356.887 4.688 356.983 4.528C357.084 4.36267 357.135 4.2 357.135 4.04C357.135 3.8 357.068 3.60533 356.935 3.456C356.807 3.30667 356.601 3.232 356.319 3.232C356.132 3.232 355.975 3.272 355.847 3.352C355.719 3.42667 355.617 3.528 355.543 3.656C355.473 3.784 355.425 3.92533 355.399 4.08C355.388 4.14933 355.359 4.19733 355.311 4.224C355.263 4.25067 355.215 4.264 355.167 4.264H354.455C354.407 4.264 354.367 4.248 354.335 4.216C354.303 4.184 354.287 4.14667 354.287 4.104C354.292 3.87467 354.34 3.65333 354.431 3.44C354.521 3.22133 354.652 3.02933 354.823 2.864C354.999 2.69333 355.212 2.55733 355.463 2.456C355.713 2.35467 355.996 2.304 356.311 2.304C356.753 2.304 357.119 2.37867 357.407 2.528C357.7 2.67733 357.919 2.88 358.063 3.136C358.212 3.392 358.287 3.68 358.287 4C358.287 4.25067 358.239 4.48267 358.143 4.696C358.047 4.904 357.908 5.10667 357.727 5.304C357.545 5.496 357.327 5.69333 357.071 5.896L355.935 7.048H358.215C358.273 7.048 358.319 7.06667 358.351 7.104C358.388 7.136 358.407 7.18133 358.407 7.24V7.808C358.407 7.86133 358.388 7.90667 358.351 7.944C358.319 7.98133 358.273 8 358.215 8H354.391ZM361.416 8.08C361.037 8.08 360.714 8.024 360.448 7.912C360.181 7.8 359.962 7.64533 359.792 7.448C359.621 7.25067 359.493 7.024 359.408 6.768C359.322 6.50667 359.272 6.22933 359.256 5.936C359.25 5.792 359.245 5.63467 359.24 5.464C359.24 5.288 359.24 5.112 359.24 4.936C359.245 4.76 359.25 4.59733 359.256 4.448C359.266 4.15467 359.317 3.88 359.408 3.624C359.498 3.36267 359.629 3.136 359.8 2.944C359.976 2.752 360.197 2.6 360.464 2.488C360.73 2.376 361.048 2.32 361.416 2.32C361.789 2.32 362.109 2.376 362.376 2.488C362.642 2.6 362.861 2.752 363.032 2.944C363.208 3.136 363.338 3.36267 363.424 3.624C363.514 3.88 363.565 4.15467 363.576 4.448C363.586 4.59733 363.592 4.76 363.592 4.936C363.592 5.112 363.592 5.288 363.592 5.464C363.592 5.63467 363.586 5.792 363.576 5.936C363.565 6.22933 363.517 6.50667 363.432 6.768C363.346 7.024 363.218 7.25067 363.048 7.448C362.877 7.64533 362.656 7.8 362.384 7.912C362.117 8.024 361.794 8.08 361.416 8.08ZM361.416 7.16C361.762 7.16 362.016 7.048 362.176 6.824C362.341 6.59467 362.426 6.28533 362.432 5.896C362.442 5.74133 362.448 5.58667 362.448 5.432C362.448 5.272 362.448 5.112 362.448 4.952C362.448 4.792 362.442 4.64 362.432 4.496C362.426 4.11733 362.341 3.81333 362.176 3.584C362.016 3.34933 361.762 3.232 361.416 3.232C361.074 3.232 360.821 3.34933 360.656 3.584C360.496 3.81333 360.41 4.11733 360.4 4.496C360.4 4.64 360.397 4.792 360.392 4.952C360.392 5.112 360.392 5.272 360.392 5.432C360.397 5.58667 360.4 5.74133 360.4 5.896C360.41 6.28533 360.498 6.59467 360.664 6.824C360.829 7.048 361.08 7.16 361.416 7.16ZM366.674 8.08C366.295 8.08 365.972 8.024 365.706 7.912C365.439 7.8 365.22 7.64533 365.05 7.448C364.879 7.25067 364.751 7.024 364.666 6.768C364.58 6.50667 364.53 6.22933 364.514 5.936C364.508 5.792 364.503 5.63467 364.498 5.464C364.498 5.288 364.498 5.112 364.498 4.936C364.503 4.76 364.508 4.59733 364.514 4.448C364.524 4.15467 364.575 3.88 364.666 3.624C364.756 3.36267 364.887 3.136 365.058 2.944C365.234 2.752 365.455 2.6 365.722 2.488C365.988 2.376 366.306 2.32 366.674 2.32C367.047 2.32 367.367 2.376 367.634 2.488C367.9 2.6 368.119 2.752 368.29 2.944C368.466 3.136 368.596 3.36267 368.682 3.624C368.772 3.88 368.823 4.15467 368.834 4.448C368.844 4.59733 368.85 4.76 368.85 4.936C368.85 5.112 368.85 5.288 368.85 5.464C368.85 5.63467 368.844 5.792 368.834 5.936C368.823 6.22933 368.775 6.50667 368.69 6.768C368.604 7.024 368.476 7.25067 368.306 7.448C368.135 7.64533 367.914 7.8 367.642 7.912C367.375 8.024 367.052 8.08 366.674 8.08ZM366.674 7.16C367.02 7.16 367.274 7.048 367.434 6.824C367.599 6.59467 367.684 6.28533 367.69 5.896C367.7 5.74133 367.706 5.58667 367.706 5.432C367.706 5.272 367.706 5.112 367.706 4.952C367.706 4.792 367.7 4.64 367.69 4.496C367.684 4.11733 367.599 3.81333 367.434 3.584C367.274 3.34933 367.02 3.232 366.674 3.232C366.332 3.232 366.079 3.34933 365.914 3.584C365.754 3.81333 365.668 4.11733 365.658 4.496C365.658 4.64 365.655 4.792 365.65 4.952C365.65 5.112 365.65 5.272 365.65 5.432C365.655 5.58667 365.658 5.74133 365.658 5.896C365.668 6.28533 365.756 6.59467 365.922 6.824C366.087 7.048 366.338 7.16 366.674 7.16Z" fill="url(#paint0_linear)" fill-opacity="0.5"/>
<path d="M358.515 40.7422C358.456 40.7422 358.408 40.7235 358.371 40.6862C358.339 40.6489 358.323 40.6035 358.323 40.5502V36.4062L357.107 37.3422C357.059 37.3742 357.011 37.3875 356.963 37.3822C356.915 37.3715 356.872 37.3422 356.835 37.2942L356.499 36.8622C356.467 36.8142 356.454 36.7635 356.459 36.7102C356.47 36.6569 356.499 36.6142 356.547 36.5822L358.339 35.1982C358.371 35.1715 358.403 35.1555 358.435 35.1502C358.467 35.1449 358.502 35.1422 358.539 35.1422H359.243C359.296 35.1422 359.342 35.1609 359.379 35.1982C359.416 35.2355 359.435 35.2809 359.435 35.3342V40.5502C359.435 40.6035 359.416 40.6489 359.379 40.6862C359.342 40.7235 359.296 40.7422 359.243 40.7422H358.515ZM361.162 40.7422C361.114 40.7422 361.074 40.7262 361.042 40.6942C361.01 40.6569 360.994 40.6142 360.994 40.5662C360.994 40.5449 360.999 40.5209 361.01 40.4942L362.938 36.0942H360.426C360.367 36.0942 360.319 36.0755 360.282 36.0382C360.25 36.0009 360.234 35.9555 360.234 35.9022V35.3422C360.234 35.2835 360.25 35.2355 360.282 35.1982C360.319 35.1609 360.367 35.1422 360.426 35.1422H363.938C363.997 35.1422 364.042 35.1609 364.074 35.1982C364.111 35.2355 364.13 35.2835 364.13 35.3422V35.8382C364.13 35.9129 364.122 35.9769 364.106 36.0302C364.095 36.0782 364.079 36.1289 364.058 36.1822L362.146 40.5502C362.13 40.5875 362.101 40.6302 362.058 40.6782C362.021 40.7209 361.965 40.7422 361.89 40.7422H361.162ZM366.794 40.8302C366.335 40.8302 365.949 40.7555 365.634 40.6062C365.319 40.4515 365.079 40.2515 364.914 40.0062C364.754 39.7609 364.669 39.4995 364.658 39.2222C364.653 39.1742 364.666 39.1369 364.698 39.1102C364.735 39.0782 364.778 39.0622 364.826 39.0622H365.57C365.629 39.0622 365.677 39.0755 365.714 39.1022C365.757 39.1235 365.789 39.1635 365.81 39.2222C365.863 39.3822 365.938 39.5129 366.034 39.6142C366.135 39.7155 366.25 39.7902 366.378 39.8382C366.511 39.8862 366.65 39.9102 366.794 39.9102C366.986 39.9102 367.159 39.8729 367.314 39.7982C367.474 39.7182 367.602 39.6009 367.698 39.4462C367.794 39.2915 367.842 39.1022 367.842 38.8782C367.842 38.6809 367.797 38.5102 367.706 38.3662C367.615 38.2222 367.49 38.1102 367.33 38.0302C367.175 37.9449 366.997 37.9022 366.794 37.9022C366.645 37.9022 366.522 37.9209 366.426 37.9582C366.33 37.9955 366.247 38.0382 366.178 38.0862C366.114 38.1342 366.055 38.1769 366.002 38.2142C365.954 38.2515 365.898 38.2702 365.834 38.2702H365.098C365.05 38.2702 365.007 38.2542 364.97 38.2222C364.938 38.1849 364.922 38.1422 364.922 38.0942L365.202 35.3582C365.207 35.2889 365.231 35.2355 365.274 35.1982C365.317 35.1609 365.367 35.1422 365.426 35.1422H368.434C368.487 35.1422 368.533 35.1609 368.57 35.1982C368.607 35.2355 368.626 35.2809 368.626 35.3342V35.8702C368.626 35.9235 368.607 35.9689 368.57 36.0062C368.533 36.0435 368.487 36.0622 368.434 36.0622H366.122L365.994 37.3662C366.09 37.3022 366.218 37.2409 366.378 37.1822C366.538 37.1235 366.759 37.0942 367.042 37.0942C367.298 37.0942 367.541 37.1369 367.77 37.2222C368.005 37.3022 368.213 37.4222 368.394 37.5822C368.575 37.7369 368.717 37.9262 368.818 38.1502C368.925 38.3689 368.978 38.6195 368.978 38.9022C368.978 39.2915 368.887 39.6302 368.706 39.9182C368.525 40.2062 368.271 40.4302 367.946 40.5902C367.621 40.7502 367.237 40.8302 366.794 40.8302Z" fill="url(#paint1_linear)" fill-opacity="0.5"/>
<path d="M357.601 73.9404C357.543 73.9404 357.495 73.9218 357.457 73.8844C357.425 73.8471 357.409 73.8018 357.409 73.7484V69.6044L356.193 70.5404C356.145 70.5724 356.097 70.5858 356.049 70.5804C356.001 70.5698 355.959 70.5404 355.921 70.4924L355.585 70.0604C355.553 70.0124 355.54 69.9618 355.545 69.9084C355.556 69.8551 355.585 69.8124 355.633 69.7804L357.425 68.3964C357.457 68.3698 357.489 68.3538 357.521 68.3484C357.553 68.3431 357.588 68.3404 357.625 68.3404H358.329C358.383 68.3404 358.428 68.3591 358.465 68.3964C358.503 68.4338 358.521 68.4791 358.521 68.5324V73.7484C358.521 73.8018 358.503 73.8471 358.465 73.8844C358.428 73.9218 358.383 73.9404 358.329 73.9404H357.601ZM361.536 74.0284C361.078 74.0284 360.691 73.9538 360.376 73.8044C360.062 73.6498 359.822 73.4498 359.656 73.2044C359.496 72.9591 359.411 72.6978 359.4 72.4204C359.395 72.3724 359.408 72.3351 359.44 72.3084C359.478 72.2764 359.52 72.2604 359.568 72.2604H360.312C360.371 72.2604 360.419 72.2738 360.456 72.3004C360.499 72.3218 360.531 72.3618 360.552 72.4204C360.606 72.5804 360.68 72.7111 360.776 72.8124C360.878 72.9138 360.992 72.9884 361.12 73.0364C361.254 73.0844 361.392 73.1084 361.536 73.1084C361.728 73.1084 361.902 73.0711 362.056 72.9964C362.216 72.9164 362.344 72.7991 362.44 72.6444C362.536 72.4898 362.584 72.3004 362.584 72.0764C362.584 71.8791 362.539 71.7084 362.448 71.5644C362.358 71.4204 362.232 71.3084 362.072 71.2284C361.918 71.1431 361.739 71.1004 361.536 71.1004C361.387 71.1004 361.264 71.1191 361.168 71.1564C361.072 71.1938 360.99 71.2364 360.92 71.2844C360.856 71.3324 360.798 71.3751 360.744 71.4124C360.696 71.4498 360.64 71.4684 360.576 71.4684H359.84C359.792 71.4684 359.75 71.4524 359.712 71.4204C359.68 71.3831 359.664 71.3404 359.664 71.2924L359.944 68.5564C359.95 68.4871 359.974 68.4338 360.016 68.3964C360.059 68.3591 360.11 68.3404 360.168 68.3404H363.176C363.23 68.3404 363.275 68.3591 363.312 68.3964C363.35 68.4338 363.368 68.4791 363.368 68.5324V69.0684C363.368 69.1218 363.35 69.1671 363.312 69.2044C363.275 69.2418 363.23 69.2604 363.176 69.2604H360.864L360.736 70.5644C360.832 70.5004 360.96 70.4391 361.12 70.3804C361.28 70.3218 361.502 70.2924 361.784 70.2924C362.04 70.2924 362.283 70.3351 362.512 70.4204C362.747 70.5004 362.955 70.6204 363.136 70.7804C363.318 70.9351 363.459 71.1244 363.56 71.3484C363.667 71.5671 363.72 71.8178 363.72 72.1004C363.72 72.4898 363.63 72.8284 363.448 73.1164C363.267 73.4044 363.014 73.6284 362.688 73.7884C362.363 73.9484 361.979 74.0284 361.536 74.0284ZM366.673 74.0204C366.295 74.0204 365.972 73.9644 365.705 73.8524C365.439 73.7404 365.22 73.5858 365.049 73.3884C364.879 73.1911 364.751 72.9644 364.665 72.7084C364.58 72.4471 364.529 72.1698 364.513 71.8764C364.508 71.7324 364.503 71.5751 364.497 71.4044C364.497 71.2284 364.497 71.0524 364.497 70.8764C364.503 70.7004 364.508 70.5378 364.513 70.3884C364.524 70.0951 364.575 69.8204 364.665 69.5644C364.756 69.3031 364.887 69.0764 365.057 68.8844C365.233 68.6924 365.455 68.5404 365.721 68.4284C365.988 68.3164 366.305 68.2604 366.673 68.2604C367.047 68.2604 367.367 68.3164 367.633 68.4284C367.9 68.5404 368.119 68.6924 368.289 68.8844C368.465 69.0764 368.596 69.3031 368.681 69.5644C368.772 69.8204 368.823 70.0951 368.833 70.3884C368.844 70.5378 368.849 70.7004 368.849 70.8764C368.849 71.0524 368.849 71.2284 368.849 71.4044C368.849 71.5751 368.844 71.7324 368.833 71.8764C368.823 72.1698 368.775 72.4471 368.689 72.7084C368.604 72.9644 368.476 73.1911 368.305 73.3884C368.135 73.5858 367.913 73.7404 367.641 73.8524C367.375 73.9644 367.052 74.0204 366.673 74.0204ZM366.673 73.1004C367.02 73.1004 367.273 72.9884 367.433 72.7644C367.599 72.5351 367.684 72.2258 367.689 71.8364C367.7 71.6818 367.705 71.5271 367.705 71.3724C367.705 71.2124 367.705 71.0524 367.705 70.8924C367.705 70.7324 367.7 70.5804 367.689 70.4364C367.684 70.0578 367.599 69.7538 367.433 69.5244C367.273 69.2898 367.02 69.1724 366.673 69.1724C366.332 69.1724 366.079 69.2898 365.913 69.5244C365.753 69.7538 365.668 70.0578 365.657 70.4364C365.657 70.5804 365.655 70.7324 365.649 70.8924C365.649 71.0524 365.649 71.2124 365.649 71.3724C365.655 71.5271 365.657 71.6818 365.657 71.8364C365.668 72.2258 365.756 72.5351 365.921 72.7644C366.087 72.9884 366.337 73.1004 366.673 73.1004Z" fill="url(#paint2_linear)" fill-opacity="0.5"/>
<path d="M357.779 107C357.72 107 357.672 106.981 357.635 106.944C357.603 106.907 357.587 106.861 357.587 106.808V102.664L356.371 103.6C356.323 103.632 356.275 103.645 356.227 103.64C356.179 103.629 356.136 103.6 356.099 103.552L355.763 103.12C355.731 103.072 355.717 103.021 355.723 102.968C355.733 102.915 355.763 102.872 355.811 102.84L357.603 101.456C357.635 101.429 357.667 101.413 357.699 101.408C357.731 101.403 357.765 101.4 357.803 101.4H358.507C358.56 101.4 358.605 101.419 358.643 101.456C358.68 101.493 358.699 101.539 358.699 101.592V106.808C358.699 106.861 358.68 106.907 358.643 106.944C358.605 106.981 358.56 107 358.507 107H357.779ZM359.818 107C359.764 107 359.719 106.981 359.682 106.944C359.644 106.907 359.626 106.861 359.626 106.808V106.4C359.626 106.352 359.636 106.296 359.658 106.232C359.684 106.163 359.74 106.093 359.826 106.024L361.09 104.768C361.442 104.491 361.724 104.256 361.938 104.064C362.156 103.867 362.314 103.688 362.41 103.528C362.511 103.363 362.562 103.2 362.562 103.04C362.562 102.8 362.495 102.605 362.362 102.456C362.234 102.307 362.028 102.232 361.746 102.232C361.559 102.232 361.402 102.272 361.274 102.352C361.146 102.427 361.044 102.528 360.97 102.656C360.9 102.784 360.852 102.925 360.826 103.08C360.815 103.149 360.786 103.197 360.738 103.224C360.69 103.251 360.642 103.264 360.594 103.264H359.882C359.834 103.264 359.794 103.248 359.762 103.216C359.73 103.184 359.714 103.147 359.714 103.104C359.719 102.875 359.767 102.653 359.858 102.44C359.948 102.221 360.079 102.029 360.25 101.864C360.426 101.693 360.639 101.557 360.89 101.456C361.14 101.355 361.423 101.304 361.738 101.304C362.18 101.304 362.546 101.379 362.834 101.528C363.127 101.677 363.346 101.88 363.49 102.136C363.639 102.392 363.714 102.68 363.714 103C363.714 103.251 363.666 103.483 363.57 103.696C363.474 103.904 363.335 104.107 363.154 104.304C362.972 104.496 362.754 104.693 362.498 104.896L361.362 106.048H363.642C363.7 106.048 363.746 106.067 363.778 106.104C363.815 106.136 363.834 106.181 363.834 106.24V106.808C363.834 106.861 363.815 106.907 363.778 106.944C363.746 106.981 363.7 107 363.642 107H359.818ZM366.667 107.088C366.208 107.088 365.821 107.013 365.507 106.864C365.192 106.709 364.952 106.509 364.787 106.264C364.627 106.019 364.541 105.757 364.531 105.48C364.525 105.432 364.539 105.395 364.571 105.368C364.608 105.336 364.651 105.32 364.699 105.32H365.443C365.501 105.32 365.549 105.333 365.587 105.36C365.629 105.381 365.661 105.421 365.683 105.48C365.736 105.64 365.811 105.771 365.907 105.872C366.008 105.973 366.123 106.048 366.251 106.096C366.384 106.144 366.523 106.168 366.667 106.168C366.859 106.168 367.032 106.131 367.187 106.056C367.347 105.976 367.475 105.859 367.571 105.704C367.667 105.549 367.715 105.36 367.715 105.136C367.715 104.939 367.669 104.768 367.579 104.624C367.488 104.48 367.363 104.368 367.203 104.288C367.048 104.203 366.869 104.16 366.667 104.16C366.517 104.16 366.395 104.179 366.299 104.216C366.203 104.253 366.12 104.296 366.051 104.344C365.987 104.392 365.928 104.435 365.875 104.472C365.827 104.509 365.771 104.528 365.707 104.528H364.971C364.923 104.528 364.88 104.512 364.843 104.48C364.811 104.443 364.795 104.4 364.795 104.352L365.075 101.616C365.08 101.547 365.104 101.493 365.147 101.456C365.189 101.419 365.24 101.4 365.299 101.4H368.307C368.36 101.4 368.405 101.419 368.443 101.456C368.48 101.493 368.499 101.539 368.499 101.592V102.128C368.499 102.181 368.48 102.227 368.443 102.264C368.405 102.301 368.36 102.32 368.307 102.32H365.995L365.867 103.624C365.963 103.56 366.091 103.499 366.251 103.44C366.411 103.381 366.632 103.352 366.915 103.352C367.171 103.352 367.413 103.395 367.643 103.48C367.877 103.56 368.085 103.68 368.267 103.84C368.448 103.995 368.589 104.184 368.691 104.408C368.797 104.627 368.851 104.877 368.851 105.16C368.851 105.549 368.76 105.888 368.579 106.176C368.397 106.464 368.144 106.688 367.819 106.848C367.493 107.008 367.109 107.088 366.667 107.088Z" fill="url(#paint3_linear)" fill-opacity="0.5"/>
<path d="M356.428 140.763C356.369 140.763 356.321 140.744 356.284 140.707C356.252 140.669 356.236 140.624 356.236 140.571V136.427L355.02 137.363C354.972 137.395 354.924 137.408 354.876 137.403C354.828 137.392 354.785 137.363 354.748 137.315L354.412 136.883C354.38 136.835 354.367 136.784 354.372 136.731C354.383 136.677 354.412 136.635 354.46 136.603L356.252 135.219C356.284 135.192 356.316 135.176 356.348 135.171C356.38 135.165 356.415 135.163 356.452 135.163H357.156C357.209 135.163 357.255 135.181 357.292 135.219C357.329 135.256 357.348 135.301 357.348 135.355V140.571C357.348 140.624 357.329 140.669 357.292 140.707C357.255 140.744 357.209 140.763 357.156 140.763H356.428ZM360.539 140.843C360.16 140.843 359.838 140.787 359.571 140.675C359.304 140.563 359.086 140.408 358.915 140.211C358.744 140.013 358.616 139.787 358.531 139.531C358.446 139.269 358.395 138.992 358.379 138.699C358.374 138.555 358.368 138.397 358.363 138.227C358.363 138.051 358.363 137.875 358.363 137.699C358.368 137.523 358.374 137.36 358.379 137.211C358.39 136.917 358.44 136.643 358.531 136.387C358.622 136.125 358.752 135.899 358.923 135.707C359.099 135.515 359.32 135.363 359.587 135.251C359.854 135.139 360.171 135.083 360.539 135.083C360.912 135.083 361.232 135.139 361.499 135.251C361.766 135.363 361.984 135.515 362.155 135.707C362.331 135.899 362.462 136.125 362.547 136.387C362.638 136.643 362.688 136.917 362.699 137.211C362.71 137.36 362.715 137.523 362.715 137.699C362.715 137.875 362.715 138.051 362.715 138.227C362.715 138.397 362.71 138.555 362.699 138.699C362.688 138.992 362.64 139.269 362.555 139.531C362.47 139.787 362.342 140.013 362.171 140.211C362 140.408 361.779 140.563 361.507 140.675C361.24 140.787 360.918 140.843 360.539 140.843ZM360.539 139.923C360.886 139.923 361.139 139.811 361.299 139.587C361.464 139.357 361.55 139.048 361.555 138.659C361.566 138.504 361.571 138.349 361.571 138.195C361.571 138.035 361.571 137.875 361.571 137.715C361.571 137.555 361.566 137.403 361.555 137.259C361.55 136.88 361.464 136.576 361.299 136.347C361.139 136.112 360.886 135.995 360.539 135.995C360.198 135.995 359.944 136.112 359.779 136.347C359.619 136.576 359.534 136.88 359.523 137.259C359.523 137.403 359.52 137.555 359.515 137.715C359.515 137.875 359.515 138.035 359.515 138.195C359.52 138.349 359.523 138.504 359.523 138.659C359.534 139.048 359.622 139.357 359.787 139.587C359.952 139.811 360.203 139.923 360.539 139.923ZM365.797 140.843C365.418 140.843 365.096 140.787 364.829 140.675C364.562 140.563 364.344 140.408 364.173 140.211C364.002 140.013 363.874 139.787 363.789 139.531C363.704 139.269 363.653 138.992 363.637 138.699C363.632 138.555 363.626 138.397 363.621 138.227C363.621 138.051 363.621 137.875 363.621 137.699C363.626 137.523 363.632 137.36 363.637 137.211C363.648 136.917 363.698 136.643 363.789 136.387C363.88 136.125 364.01 135.899 364.181 135.707C364.357 135.515 364.578 135.363 364.845 135.251C365.112 135.139 365.429 135.083 365.797 135.083C366.17 135.083 366.49 135.139 366.757 135.251C367.024 135.363 367.242 135.515 367.413 135.707C367.589 135.899 367.72 136.125 367.805 136.387C367.896 136.643 367.946 136.917 367.957 137.211C367.968 137.36 367.973 137.523 367.973 137.699C367.973 137.875 367.973 138.051 367.973 138.227C367.973 138.397 367.968 138.555 367.957 138.699C367.946 138.992 367.898 139.269 367.813 139.531C367.728 139.787 367.6 140.013 367.429 140.211C367.258 140.408 367.037 140.563 366.765 140.675C366.498 140.787 366.176 140.843 365.797 140.843ZM365.797 139.923C366.144 139.923 366.397 139.811 366.557 139.587C366.722 139.357 366.808 139.048 366.813 138.659C366.824 138.504 366.829 138.349 366.829 138.195C366.829 138.035 366.829 137.875 366.829 137.715C366.829 137.555 366.824 137.403 366.813 137.259C366.808 136.88 366.722 136.576 366.557 136.347C366.397 136.112 366.144 135.995 365.797 135.995C365.456 135.995 365.202 136.112 365.037 136.347C364.877 136.576 364.792 136.88 364.781 137.259C364.781 137.403 364.778 137.555 364.773 137.715C364.773 137.875 364.773 138.035 364.773 138.195C364.778 138.349 364.781 138.504 364.781 138.659C364.792 139.048 364.88 139.357 365.045 139.587C365.21 139.811 365.461 139.923 365.797 139.923Z" fill="url(#paint4_linear)" fill-opacity="0.5"/>
<path d="M121.29 145L121.29 12" stroke="#2F2F49"/>
<path d="M196.231 145L196.231 12" stroke="#2F2F49"/>
<path d="M271.173 145V12" stroke="#2F2F49"/>
<path d="M45.3496 46L348.35 46" stroke="#2F2F49"/>
<path d="M45.3496 79L348.35 79" stroke="#2F2F49"/>
<path d="M45.3496 112L348.35 112" stroke="#2F2F49"/>
<rect x="44.8496" y="12.5" width="303" height="132" stroke="#2F2F49"/>
<path d="M45.6748 143.898C75.1978 127.059 118.497 98.6305 195.255 62.5478C260.976 31.6541 317.498 19.9044 348.114 14" stroke="#2469C5" stroke-linecap="round"/>
<path d="M348.443 85.6944C304.728 86.2723 210.862 83.3186 140.625 80.4833C84.6068 78.2221 64.906 77.8958 45.3822 77.8958" stroke="#6F1571" stroke-linecap="round"/>
<path d="M46 65.381L51.6728 79.3363C52.2208 80.6846 54.1748 80.5408 54.5196 79.1269L56.415 71.3559C56.7872 69.8298 58.9573 69.8298 59.3295 71.3559L60.5785 76.477C60.9657 78.0643 63.2518 77.9765 63.5161 76.3642L64.6884 69.212C64.9588 67.5623 67.3178 67.5249 67.6404 69.1652L69.0388 76.2747C69.3552 77.8835 71.654 77.8908 71.9805 76.284L73.0178 71.1808C73.3277 69.6557 75.4686 69.5535 75.9225 71.0422L78.0449 78.0039C78.3426 78.9802 79.5073 79.3806 80.3423 78.7937L83.8428 76.3333L90.1517 72.3827C91.0445 71.8237 92.2203 72.3348 92.4205 73.3689L94.0546 81.8113C94.3346 83.2578 96.3142 83.476 96.9025 82.1252L97.9186 79.7923C98.4605 78.5481 100.245 78.6058 100.705 79.8824L106.237 95.2244C106.707 96.5259 108.538 96.5522 109.044 95.2647L115.118 79.8237C115.614 78.5635 117.394 78.5535 117.904 79.8079L119.283 83.2019C119.398 83.4839 119.596 83.7243 119.85 83.8913L123.602 86.3524C123.805 86.4858 123.973 86.6667 124.091 86.8794L126.529 91.2784C127.188 92.4666 128.961 92.2372 129.295 90.9205L131.135 83.6803C131.47 82.3597 133.25 82.1343 133.904 83.3296L136.228 87.5751C136.731 88.4945 137.997 88.6277 138.681 87.833L143.335 82.4204C144.165 81.4548 145.745 81.8979 145.952 83.1545L148.308 97.4496C148.587 99.1407 151.026 99.1174 151.273 97.4212L153.838 79.7501C154.08 78.0856 156.458 78.0186 156.793 79.6668L160.214 96.5021C160.543 98.1183 162.86 98.0977 163.159 96.4758L165.401 84.3414C165.662 82.9308 167.564 82.6556 168.214 83.9344L172.012 91.4099C172.614 92.594 174.344 92.4696 174.77 91.2117L176.432 86.3053C176.817 85.1674 178.317 84.9218 179.046 85.8773L181.506 89.1055C181.69 89.3469 181.943 89.5269 182.232 89.6215L189.471 91.996C190.174 92.2266 190.94 91.9099 191.276 91.2502L193.684 86.5102C194.262 85.373 195.905 85.4302 196.403 86.6048L198.201 90.852C198.55 91.6758 199.538 92.0131 200.317 91.5746L202.342 90.4359C203.203 89.952 204.288 90.4172 204.531 91.3741L206.437 98.8741C206.811 100.345 208.883 100.394 209.325 98.9422L210.795 94.1229C211.225 92.7115 213.221 92.7043 213.661 94.1127L214.575 97.037C214.876 97.9981 216.019 98.396 216.852 97.829L223.194 93.5085C224.014 92.9498 225.141 93.327 225.459 94.2669L226.707 97.9495C226.913 98.5585 227.484 98.9683 228.127 98.9683H231.481C231.961 98.9683 232.413 99.1983 232.695 99.5871L234.564 102.161C235.21 103.053 236.565 102.966 237.093 102L240.406 95.9469C240.813 95.2033 241.755 94.9443 242.484 95.3752L243.77 96.1345C244.4 96.5061 245.205 96.3699 245.678 95.8122L247.462 93.7055C248.048 93.0128 249.111 92.9958 249.72 93.6694L253.224 97.5489C253.876 98.2711 255.033 98.1905 255.579 97.3848L262.943 86.5149C263.681 85.4258 265.364 85.7465 265.649 87.0308L269.13 102.687C269.441 104.086 271.349 104.294 271.954 102.995L276.95 92.2696C277.478 91.1357 279.08 91.1083 279.647 92.2234L285.694 104.125C286.272 105.262 287.915 105.205 288.412 104.03L292.944 93.3277C293.493 92.0316 295.364 92.1368 295.764 93.4863L298.331 102.148C298.755 103.58 300.783 103.58 301.207 102.148L304.136 92.267C304.482 91.098 306.005 90.8089 306.756 91.7695L311.485 97.8188C311.985 98.4587 312.904 98.5842 313.557 98.1019L317.145 95.4537C317.799 94.9714 318.718 95.0968 319.218 95.7368L324.87 102.967C325.358 103.592 326.249 103.728 326.903 103.278L332.309 99.5544C332.821 99.2014 333.498 99.2014 334.011 99.5544L339.729 103.493C340.241 103.846 340.918 103.846 341.431 103.493L348 98.9683" stroke="white" stroke-linecap="round"/>
<defs>
<linearGradient id="paint0_linear" x1="362.6" y1="9.7453e-08" x2="357.293" y2="13.0203" gradientUnits="userSpaceOnUse">
<stop stop-color="#36E2FA"/>
<stop offset="1" stop-color="#368AFA"/>
</linearGradient>
<linearGradient id="paint1_linear" x1="364.835" y1="32.7422" x2="358.078" y2="43.7944" gradientUnits="userSpaceOnUse">
<stop stop-color="#36E2FA"/>
<stop offset="1" stop-color="#368AFA"/>
</linearGradient>
<linearGradient id="paint2_linear" x1="364.388" y1="65.9404" x2="357.941" y2="77.5404" gradientUnits="userSpaceOnUse">
<stop stop-color="#36E2FA"/>
<stop offset="1" stop-color="#368AFA"/>
</linearGradient>
<linearGradient id="paint3_linear" x1="364.41" y1="99" x2="360.164" y2="108.718" gradientUnits="userSpaceOnUse">
<stop stop-color="#36E2FA"/>
<stop offset="1" stop-color="#368AFA"/>
</linearGradient>
<linearGradient id="paint4_linear" x1="363.321" y1="132.763" x2="359.274" y2="142.685" gradientUnits="userSpaceOnUse">
<stop stop-color="#36E2FA"/>
<stop offset="1" stop-color="#368AFA"/>
</linearGradient>
</defs>
</svg>
