<svg width="369" height="146" viewBox="0 0 369 146" fill="none" xmlns="http://www.w3.org/2000/svg">
<path d="M0 12.5029L16.7396 12.503" stroke="#BFB2B2"/>
<path d="M16.7412 145L16.7412 11.9999" stroke="#BFB2B2"/>
<path d="M0 45.5806L16.7396 45.5806" stroke="#BFB2B2"/>
<path d="M0 78.5037L16.7396 78.5037" stroke="#BFB2B2"/>
<path d="M0 111.426L16.7396 111.426" stroke="#BFB2B2"/>
<path d="M0 144.498L16.7396 144.498" stroke="#BFB2B2"/>
<path d="M7.11981 8C7.06114 8 7.01314 7.98133 6.97581 7.944C6.94381 7.90667 6.92781 7.86133 6.92781 7.808V3.664L5.71181 4.6C5.66381 4.632 5.61581 4.64533 5.56781 4.64C5.51981 4.62933 5.47714 4.6 5.43981 4.552L5.10381 4.12C5.07181 4.072 5.05848 4.02133 5.06381 3.968C5.07448 3.91467 5.10381 3.872 5.15181 3.84L6.94381 2.456C6.97581 2.42933 7.00781 2.41333 7.03981 2.408C7.07181 2.40267 7.10648 2.4 7.14381 2.4H7.84781C7.90114 2.4 7.94648 2.41867 7.98381 2.456C8.02114 2.49333 8.03981 2.53867 8.03981 2.592V7.808C8.03981 7.86133 8.02114 7.90667 7.98381 7.944C7.94648 7.98133 7.90114 8 7.84781 8H7.11981ZM11.1589 8.08C10.7003 8.08 10.3056 7.99467 9.97493 7.824C9.64427 7.648 9.38827 7.41333 9.20693 7.12C9.0256 6.82133 8.93493 6.488 8.93493 6.12C8.93493 5.95467 8.95627 5.79467 8.99893 5.64C9.0416 5.48533 9.0976 5.33867 9.16693 5.2C9.23627 5.06133 9.30293 4.93867 9.36693 4.832C9.43627 4.72 9.4976 4.632 9.55093 4.568L11.0149 2.56C11.0363 2.53333 11.0683 2.50133 11.1109 2.464C11.1536 2.42133 11.2123 2.4 11.2869 2.4H12.0309C12.0789 2.4 12.1189 2.41867 12.1509 2.456C12.1829 2.488 12.1989 2.528 12.1989 2.576C12.1989 2.59733 12.1936 2.61867 12.1829 2.64C12.1776 2.656 12.1696 2.66933 12.1589 2.68L11.0389 4.232C11.0869 4.216 11.1429 4.20533 11.2069 4.2C11.2709 4.19467 11.3296 4.192 11.3829 4.192C11.6496 4.19733 11.9029 4.25067 12.1429 4.352C12.3829 4.448 12.5936 4.58133 12.7749 4.752C12.9563 4.92267 13.0976 5.12267 13.1989 5.352C13.3056 5.58133 13.3589 5.832 13.3589 6.104C13.3589 6.456 13.2709 6.784 13.0949 7.088C12.9189 7.38667 12.6656 7.62667 12.3349 7.808C12.0096 7.98933 11.6176 8.08 11.1589 8.08ZM11.1509 7.16C11.3429 7.16 11.5189 7.12 11.6789 7.04C11.8443 6.96 11.9776 6.84267 12.0789 6.688C12.1803 6.53333 12.2309 6.34133 12.2309 6.112C12.2309 5.888 12.1803 5.69867 12.0789 5.544C11.9776 5.38933 11.8443 5.272 11.6789 5.192C11.5189 5.112 11.3429 5.072 11.1509 5.072C10.9589 5.072 10.7803 5.112 10.6149 5.192C10.4549 5.272 10.3243 5.38933 10.2229 5.544C10.1216 5.69867 10.0709 5.888 10.0709 6.112C10.0709 6.34133 10.1216 6.53333 10.2229 6.688C10.3243 6.84267 10.4549 6.96 10.6149 7.04C10.7803 7.12 10.9589 7.16 11.1509 7.16Z" fill="#AAAAAA"/>
<path d="M11.0488 41.08C10.6968 41.08 10.3821 41.0373 10.1048 40.952C9.82747 40.8667 9.5928 40.7467 9.4008 40.592C9.21414 40.4373 9.07014 40.256 8.9688 40.048C8.8728 39.84 8.8248 39.608 8.8248 39.352C8.8248 39.0427 8.89947 38.776 9.0488 38.552C9.20347 38.3227 9.40347 38.1467 9.6488 38.024C9.45147 37.9013 9.2968 37.744 9.1848 37.552C9.07814 37.36 9.0248 37.136 9.0248 36.88C9.0248 36.5707 9.10214 36.3013 9.2568 36.072C9.4168 35.8373 9.64614 35.6533 9.9448 35.52C10.2488 35.3867 10.6168 35.32 11.0488 35.32C11.4808 35.32 11.8461 35.3867 12.1448 35.52C12.4435 35.648 12.6701 35.8293 12.8248 36.064C12.9795 36.2933 13.0568 36.5627 13.0568 36.872C13.0568 37.128 13.0035 37.352 12.8968 37.544C12.7901 37.736 12.6408 37.896 12.4488 38.024C12.6995 38.1413 12.8995 38.3173 13.0488 38.552C13.1981 38.7813 13.2728 39.0507 13.2728 39.36C13.2728 39.696 13.1848 39.9947 13.0088 40.256C12.8381 40.512 12.5848 40.7147 12.2488 40.864C11.9181 41.008 11.5181 41.08 11.0488 41.08ZM11.0488 40.248C11.2568 40.248 11.4435 40.2133 11.6088 40.144C11.7795 40.0693 11.9128 39.9653 12.0088 39.832C12.1101 39.6987 12.1608 39.5413 12.1608 39.36C12.1608 39.1733 12.1101 39.016 12.0088 38.888C11.9128 38.7547 11.7795 38.6533 11.6088 38.584C11.4435 38.5093 11.2568 38.472 11.0488 38.472C10.8408 38.472 10.6515 38.5093 10.4808 38.584C10.3155 38.6533 10.1821 38.7547 10.0808 38.888C9.9848 39.016 9.9368 39.1733 9.9368 39.36C9.9368 39.5413 9.9848 39.6987 10.0808 39.832C10.1821 39.9653 10.3155 40.0693 10.4808 40.144C10.6515 40.2133 10.8408 40.248 11.0488 40.248ZM11.0488 37.68C11.2248 37.6747 11.3848 37.64 11.5288 37.576C11.6781 37.512 11.7955 37.424 11.8808 37.312C11.9715 37.2 12.0168 37.0693 12.0168 36.92C12.0168 36.7653 11.9741 36.632 11.8888 36.52C11.8088 36.4027 11.6941 36.312 11.5448 36.248C11.4008 36.184 11.2355 36.152 11.0488 36.152C10.8621 36.152 10.6941 36.184 10.5448 36.248C10.4008 36.312 10.2861 36.4027 10.2008 36.52C10.1208 36.632 10.0808 36.7653 10.0808 36.92C10.0808 37.0747 10.1208 37.208 10.2008 37.32C10.2861 37.432 10.4008 37.52 10.5448 37.584C10.6941 37.648 10.8621 37.68 11.0488 37.68Z" fill="#AAAAAA"/>
<path d="M10.9282 74.08C10.5495 74.08 10.2269 74.024 9.9602 73.912C9.69353 73.8 9.47487 73.6453 9.3042 73.448C9.13353 73.2507 9.00553 73.024 8.9202 72.768C8.83487 72.5067 8.7842 72.2293 8.7682 71.936C8.76287 71.792 8.75753 71.6347 8.7522 71.464C8.7522 71.288 8.7522 71.112 8.7522 70.936C8.75753 70.76 8.76287 70.5973 8.7682 70.448C8.77887 70.1547 8.82953 69.88 8.9202 69.624C9.01087 69.3627 9.14153 69.136 9.3122 68.944C9.4882 68.752 9.70953 68.6 9.9762 68.488C10.2429 68.376 10.5602 68.32 10.9282 68.32C11.3015 68.32 11.6215 68.376 11.8882 68.488C12.1549 68.6 12.3735 68.752 12.5442 68.944C12.7202 69.136 12.8509 69.3627 12.9362 69.624C13.0269 69.88 13.0775 70.1547 13.0882 70.448C13.0989 70.5973 13.1042 70.76 13.1042 70.936C13.1042 71.112 13.1042 71.288 13.1042 71.464C13.1042 71.6347 13.0989 71.792 13.0882 71.936C13.0775 72.2293 13.0295 72.5067 12.9442 72.768C12.8589 73.024 12.7309 73.2507 12.5602 73.448C12.3895 73.6453 12.1682 73.8 11.8962 73.912C11.6295 74.024 11.3069 74.08 10.9282 74.08ZM10.9282 73.16C11.2749 73.16 11.5282 73.048 11.6882 72.824C11.8535 72.5947 11.9389 72.2853 11.9442 71.896C11.9549 71.7413 11.9602 71.5867 11.9602 71.432C11.9602 71.272 11.9602 71.112 11.9602 70.952C11.9602 70.792 11.9549 70.64 11.9442 70.496C11.9389 70.1173 11.8535 69.8133 11.6882 69.584C11.5282 69.3493 11.2749 69.232 10.9282 69.232C10.5869 69.232 10.3335 69.3493 10.1682 69.584C10.0082 69.8133 9.92287 70.1173 9.9122 70.496C9.9122 70.64 9.90953 70.792 9.9042 70.952C9.9042 71.112 9.9042 71.272 9.9042 71.432C9.90953 71.5867 9.9122 71.7413 9.9122 71.896C9.92287 72.2853 10.0109 72.5947 10.1762 72.824C10.3415 73.048 10.5922 73.16 10.9282 73.16Z" fill="#AAAAAA"/>
<path d="M5.90205 105.056C5.84339 105.056 5.79539 105.037 5.75805 105C5.72605 104.963 5.71005 104.917 5.71005 104.864V104.336C5.71005 104.283 5.72605 104.237 5.75805 104.2C5.79539 104.163 5.84339 104.144 5.90205 104.144H8.35805C8.41139 104.144 8.45672 104.163 8.49405 104.2C8.53139 104.237 8.55005 104.283 8.55005 104.336V104.864C8.55005 104.917 8.53139 104.963 8.49405 105C8.45672 105.037 8.41139 105.056 8.35805 105.056H5.90205ZM11.6816 107.08C11.3296 107.08 11.015 107.037 10.7376 106.952C10.4603 106.867 10.2256 106.747 10.0336 106.592C9.84695 106.437 9.70295 106.256 9.60162 106.048C9.50562 105.84 9.45762 105.608 9.45762 105.352C9.45762 105.043 9.53228 104.776 9.68162 104.552C9.83628 104.323 10.0363 104.147 10.2816 104.024C10.0843 103.901 9.92962 103.744 9.81762 103.552C9.71095 103.36 9.65762 103.136 9.65762 102.88C9.65762 102.571 9.73495 102.301 9.88962 102.072C10.0496 101.837 10.279 101.653 10.5776 101.52C10.8816 101.387 11.2496 101.32 11.6816 101.32C12.1136 101.32 12.479 101.387 12.7776 101.52C13.0763 101.648 13.303 101.829 13.4576 102.064C13.6123 102.293 13.6896 102.563 13.6896 102.872C13.6896 103.128 13.6363 103.352 13.5296 103.544C13.423 103.736 13.2736 103.896 13.0816 104.024C13.3323 104.141 13.5323 104.317 13.6816 104.552C13.831 104.781 13.9056 105.051 13.9056 105.36C13.9056 105.696 13.8176 105.995 13.6416 106.256C13.471 106.512 13.2176 106.715 12.8816 106.864C12.551 107.008 12.151 107.08 11.6816 107.08ZM11.6816 106.248C11.8896 106.248 12.0763 106.213 12.2416 106.144C12.4123 106.069 12.5456 105.965 12.6416 105.832C12.743 105.699 12.7936 105.541 12.7936 105.36C12.7936 105.173 12.743 105.016 12.6416 104.888C12.5456 104.755 12.4123 104.653 12.2416 104.584C12.0763 104.509 11.8896 104.472 11.6816 104.472C11.4736 104.472 11.2843 104.509 11.1136 104.584C10.9483 104.653 10.815 104.755 10.7136 104.888C10.6176 105.016 10.5696 105.173 10.5696 105.36C10.5696 105.541 10.6176 105.699 10.7136 105.832C10.815 105.965 10.9483 106.069 11.1136 106.144C11.2843 106.213 11.4736 106.248 11.6816 106.248ZM11.6816 103.68C11.8576 103.675 12.0176 103.64 12.1616 103.576C12.311 103.512 12.4283 103.424 12.5136 103.312C12.6043 103.2 12.6496 103.069 12.6496 102.92C12.6496 102.765 12.607 102.632 12.5216 102.52C12.4416 102.403 12.327 102.312 12.1776 102.248C12.0336 102.184 11.8683 102.152 11.6816 102.152C11.495 102.152 11.327 102.184 11.1776 102.248C11.0336 102.312 10.919 102.403 10.8336 102.52C10.7536 102.632 10.7136 102.765 10.7136 102.92C10.7136 103.075 10.7536 103.208 10.8336 103.32C10.919 103.432 11.0336 103.52 11.1776 103.584C11.327 103.648 11.495 103.68 11.6816 103.68Z" fill="#AAAAAA"/>
<path d="M3.0583 139.056C2.99964 139.056 2.95164 139.037 2.9143 139C2.8823 138.963 2.8663 138.917 2.8663 138.864V138.336C2.8663 138.283 2.8823 138.237 2.9143 138.2C2.95164 138.163 2.99964 138.144 3.0583 138.144H5.5143C5.56764 138.144 5.61297 138.163 5.6503 138.2C5.68764 138.237 5.7063 138.283 5.7063 138.336V138.864C5.7063 138.917 5.68764 138.963 5.6503 139C5.61297 139.037 5.56764 139.056 5.5143 139.056H3.0583ZM8.17205 141C8.11339 141 8.06539 140.981 8.02805 140.944C7.99605 140.907 7.98005 140.861 7.98005 140.808V136.664L6.76405 137.6C6.71605 137.632 6.66805 137.645 6.62005 137.64C6.57205 137.629 6.52939 137.6 6.49205 137.552L6.15605 137.12C6.12405 137.072 6.11072 137.021 6.11605 136.968C6.12672 136.915 6.15605 136.872 6.20405 136.84L7.99605 135.456C8.02805 135.429 8.06005 135.413 8.09205 135.408C8.12405 135.403 8.15872 135.4 8.19605 135.4H8.90005C8.95339 135.4 8.99872 135.419 9.03605 135.456C9.07339 135.493 9.09205 135.539 9.09205 135.592V140.808C9.09205 140.861 9.07339 140.907 9.03605 140.944C8.99872 140.981 8.95339 141 8.90005 141H8.17205ZM12.2112 141.08C11.7525 141.08 11.3578 140.995 11.0272 140.824C10.6965 140.648 10.4405 140.413 10.2592 140.12C10.0778 139.821 9.98718 139.488 9.98718 139.12C9.98718 138.955 10.0085 138.795 10.0512 138.64C10.0938 138.485 10.1498 138.339 10.2192 138.2C10.2885 138.061 10.3552 137.939 10.4192 137.832C10.4885 137.72 10.5498 137.632 10.6032 137.568L12.0672 135.56C12.0885 135.533 12.1205 135.501 12.1632 135.464C12.2058 135.421 12.2645 135.4 12.3392 135.4H13.0832C13.1312 135.4 13.1712 135.419 13.2032 135.456C13.2352 135.488 13.2512 135.528 13.2512 135.576C13.2512 135.597 13.2458 135.619 13.2352 135.64C13.2298 135.656 13.2218 135.669 13.2112 135.68L12.0912 137.232C12.1392 137.216 12.1952 137.205 12.2592 137.2C12.3232 137.195 12.3818 137.192 12.4352 137.192C12.7018 137.197 12.9552 137.251 13.1952 137.352C13.4352 137.448 13.6458 137.581 13.8272 137.752C14.0085 137.923 14.1498 138.123 14.2512 138.352C14.3578 138.581 14.4112 138.832 14.4112 139.104C14.4112 139.456 14.3232 139.784 14.1472 140.088C13.9712 140.387 13.7178 140.627 13.3872 140.808C13.0618 140.989 12.6698 141.08 12.2112 141.08ZM12.2032 140.16C12.3952 140.16 12.5712 140.12 12.7312 140.04C12.8965 139.96 13.0298 139.843 13.1312 139.688C13.2325 139.533 13.2832 139.341 13.2832 139.112C13.2832 138.888 13.2325 138.699 13.1312 138.544C13.0298 138.389 12.8965 138.272 12.7312 138.192C12.5712 138.112 12.3952 138.072 12.2032 138.072C12.0112 138.072 11.8325 138.112 11.6672 138.192C11.5072 138.272 11.3765 138.389 11.2752 138.544C11.1738 138.699 11.1232 138.888 11.1232 139.112C11.1232 139.341 11.1738 139.533 11.2752 139.688C11.3765 139.843 11.5072 139.96 11.6672 140.04C11.8325 140.12 12.0112 140.16 12.2032 140.16Z" fill="#AAAAAA"/>
<path d="M33.9527 8C33.8941 8 33.8461 7.98133 33.8087 7.944C33.7767 7.90667 33.7607 7.86133 33.7607 7.808V3.664L32.5447 4.6C32.4967 4.632 32.4487 4.64533 32.4007 4.64C32.3527 4.62933 32.3101 4.6 32.2727 4.552L31.9367 4.12C31.9047 4.072 31.8914 4.02133 31.8967 3.968C31.9074 3.91467 31.9367 3.872 31.9847 3.84L33.7767 2.456C33.8087 2.42933 33.8407 2.41333 33.8727 2.408C33.9047 2.40267 33.9394 2.4 33.9767 2.4H34.6807C34.7341 2.4 34.7794 2.41867 34.8167 2.456C34.8541 2.49333 34.8727 2.53867 34.8727 2.592V7.808C34.8727 7.86133 34.8541 7.90667 34.8167 7.944C34.7794 7.98133 34.7341 8 34.6807 8H33.9527ZM36.1119 8C36.0585 8 36.0132 7.98133 35.9759 7.944C35.9385 7.90667 35.9199 7.86133 35.9199 7.808V7.016C35.9199 6.95733 35.9385 6.90933 35.9759 6.872C36.0132 6.83467 36.0585 6.816 36.1119 6.816H36.9119C36.9652 6.816 37.0105 6.83467 37.0479 6.872C37.0852 6.90933 37.1039 6.95733 37.1039 7.016V7.808C37.1039 7.86133 37.0852 7.90667 37.0479 7.944C37.0105 7.98133 36.9652 8 36.9119 8H36.1119ZM40.0285 8.088C39.5698 8.088 39.1832 8.01333 38.8685 7.864C38.5538 7.70933 38.3138 7.50933 38.1485 7.264C37.9885 7.01867 37.9032 6.75733 37.8925 6.48C37.8872 6.432 37.9005 6.39467 37.9325 6.368C37.9698 6.336 38.0125 6.32 38.0605 6.32H38.8045C38.8632 6.32 38.9112 6.33333 38.9485 6.36C38.9912 6.38133 39.0232 6.42133 39.0445 6.48C39.0978 6.64 39.1725 6.77067 39.2685 6.872C39.3698 6.97333 39.4845 7.048 39.6125 7.096C39.7458 7.144 39.8845 7.168 40.0285 7.168C40.2205 7.168 40.3938 7.13067 40.5485 7.056C40.7085 6.976 40.8365 6.85867 40.9325 6.704C41.0285 6.54933 41.0765 6.36 41.0765 6.136C41.0765 5.93867 41.0312 5.768 40.9405 5.624C40.8498 5.48 40.7245 5.368 40.5645 5.288C40.4098 5.20267 40.2312 5.16 40.0285 5.16C39.8792 5.16 39.7565 5.17867 39.6605 5.216C39.5645 5.25333 39.4818 5.296 39.4125 5.344C39.3485 5.392 39.2898 5.43467 39.2365 5.472C39.1885 5.50933 39.1325 5.528 39.0685 5.528H38.3325C38.2845 5.528 38.2418 5.512 38.2045 5.48C38.1725 5.44267 38.1565 5.4 38.1565 5.352L38.4365 2.616C38.4418 2.54667 38.4658 2.49333 38.5085 2.456C38.5512 2.41867 38.6018 2.4 38.6605 2.4H41.6685C41.7218 2.4 41.7672 2.41867 41.8045 2.456C41.8418 2.49333 41.8605 2.53867 41.8605 2.592V3.128C41.8605 3.18133 41.8418 3.22667 41.8045 3.264C41.7672 3.30133 41.7218 3.32 41.6685 3.32H39.3565L39.2285 4.624C39.3245 4.56 39.4525 4.49867 39.6125 4.44C39.7725 4.38133 39.9938 4.352 40.2765 4.352C40.5325 4.352 40.7752 4.39467 41.0045 4.48C41.2392 4.56 41.4472 4.68 41.6285 4.84C41.8098 4.99467 41.9512 5.184 42.0525 5.408C42.1592 5.62667 42.2125 5.87733 42.2125 6.16C42.2125 6.54933 42.1218 6.888 41.9405 7.176C41.7592 7.464 41.5058 7.688 41.1805 7.848C40.8552 8.008 40.4712 8.088 40.0285 8.088Z" fill="white"/>
<path d="M41.0538 40.7422C40.9951 40.7422 40.9471 40.7235 40.9098 40.6862C40.8778 40.6489 40.8618 40.6035 40.8618 40.5502V36.4062L39.6458 37.3422C39.5978 37.3742 39.5498 37.3875 39.5018 37.3822C39.4538 37.3715 39.4111 37.3422 39.3738 37.2942L39.0378 36.8622C39.0058 36.8142 38.9924 36.7635 38.9978 36.7102C39.0084 36.6569 39.0378 36.6142 39.0858 36.5822L40.8778 35.1982C40.9098 35.1715 40.9418 35.1555 40.9738 35.1502C41.0058 35.1449 41.0404 35.1422 41.0778 35.1422H41.7818C41.8351 35.1422 41.8804 35.1609 41.9178 35.1982C41.9551 35.2355 41.9738 35.2809 41.9738 35.3342V40.5502C41.9738 40.6035 41.9551 40.6489 41.9178 40.6862C41.8804 40.7235 41.8351 40.7422 41.7818 40.7422H41.0538Z" fill="white"/>
<path d="M32.8914 74.0204C32.5128 74.0204 32.1901 73.9644 31.9234 73.8524C31.6568 73.7404 31.4381 73.5858 31.2674 73.3884C31.0968 73.1911 30.9688 72.9644 30.8834 72.7084C30.7981 72.4471 30.7474 72.1698 30.7314 71.8764C30.7261 71.7324 30.7208 71.5751 30.7154 71.4044C30.7154 71.2284 30.7154 71.0524 30.7154 70.8764C30.7208 70.7004 30.7261 70.5378 30.7314 70.3884C30.7421 70.0951 30.7928 69.8204 30.8834 69.5644C30.9741 69.3031 31.1048 69.0764 31.2754 68.8844C31.4514 68.6924 31.6728 68.5404 31.9394 68.4284C32.2061 68.3164 32.5234 68.2604 32.8914 68.2604C33.2648 68.2604 33.5848 68.3164 33.8514 68.4284C34.1181 68.5404 34.3368 68.6924 34.5074 68.8844C34.6834 69.0764 34.8141 69.3031 34.8994 69.5644C34.9901 69.8204 35.0408 70.0951 35.0514 70.3884C35.0621 70.5378 35.0674 70.7004 35.0674 70.8764C35.0674 71.0524 35.0674 71.2284 35.0674 71.4044C35.0674 71.5751 35.0621 71.7324 35.0514 71.8764C35.0408 72.1698 34.9928 72.4471 34.9074 72.7084C34.8221 72.9644 34.6941 73.1911 34.5234 73.3884C34.3528 73.5858 34.1314 73.7404 33.8594 73.8524C33.5928 73.9644 33.2701 74.0204 32.8914 74.0204ZM32.8914 73.1004C33.2381 73.1004 33.4914 72.9884 33.6514 72.7644C33.8168 72.5351 33.9021 72.2258 33.9074 71.8364C33.9181 71.6818 33.9234 71.5271 33.9234 71.3724C33.9234 71.2124 33.9234 71.0524 33.9234 70.8924C33.9234 70.7324 33.9181 70.5804 33.9074 70.4364C33.9021 70.0578 33.8168 69.7538 33.6514 69.5244C33.4914 69.2898 33.2381 69.1724 32.8914 69.1724C32.5501 69.1724 32.2968 69.2898 32.1314 69.5244C31.9714 69.7538 31.8861 70.0578 31.8754 70.4364C31.8754 70.5804 31.8728 70.7324 31.8674 70.8924C31.8674 71.0524 31.8674 71.2124 31.8674 71.3724C31.8728 71.5271 31.8754 71.6818 31.8754 71.8364C31.8861 72.2258 31.9741 72.5351 32.1394 72.7644C32.3048 72.9884 32.5554 73.1004 32.8914 73.1004ZM36.1113 73.9404C36.058 73.9404 36.0126 73.9218 35.9753 73.8844C35.938 73.8471 35.9193 73.8018 35.9193 73.7484V72.9564C35.9193 72.8978 35.938 72.8498 35.9753 72.8124C36.0126 72.7751 36.058 72.7564 36.1113 72.7564H36.9113C36.9646 72.7564 37.01 72.7751 37.0473 72.8124C37.0846 72.8498 37.1033 72.8978 37.1033 72.9564V73.7484C37.1033 73.8018 37.0846 73.8471 37.0473 73.8844C37.01 73.9218 36.9646 73.9404 36.9113 73.9404H36.1113ZM40.0279 74.0284C39.5693 74.0284 39.1826 73.9538 38.8679 73.8044C38.5533 73.6498 38.3133 73.4498 38.1479 73.2044C37.9879 72.9591 37.9026 72.6978 37.8919 72.4204C37.8866 72.3724 37.8999 72.3351 37.9319 72.3084C37.9693 72.2764 38.0119 72.2604 38.0599 72.2604H38.8039C38.8626 72.2604 38.9106 72.2738 38.9479 72.3004C38.9906 72.3218 39.0226 72.3618 39.0439 72.4204C39.0973 72.5804 39.1719 72.7111 39.2679 72.8124C39.3693 72.9138 39.4839 72.9884 39.6119 73.0364C39.7453 73.0844 39.8839 73.1084 40.0279 73.1084C40.2199 73.1084 40.3933 73.0711 40.5479 72.9964C40.7079 72.9164 40.8359 72.7991 40.9319 72.6444C41.0279 72.4898 41.0759 72.3004 41.0759 72.0764C41.0759 71.8791 41.0306 71.7084 40.9399 71.5644C40.8493 71.4204 40.7239 71.3084 40.5639 71.2284C40.4093 71.1431 40.2306 71.1004 40.0279 71.1004C39.8786 71.1004 39.7559 71.1191 39.6599 71.1564C39.5639 71.1938 39.4813 71.2364 39.4119 71.2844C39.3479 71.3324 39.2893 71.3751 39.2359 71.4124C39.1879 71.4498 39.1319 71.4684 39.0679 71.4684H38.3319C38.2839 71.4684 38.2413 71.4524 38.2039 71.4204C38.1719 71.3831 38.1559 71.3404 38.1559 71.2924L38.4359 68.5564C38.4413 68.4871 38.4653 68.4338 38.5079 68.3964C38.5506 68.3591 38.6013 68.3404 38.6599 68.3404H41.6679C41.7213 68.3404 41.7666 68.3591 41.8039 68.3964C41.8413 68.4338 41.8599 68.4791 41.8599 68.5324V69.0684C41.8599 69.1218 41.8413 69.1671 41.8039 69.2044C41.7666 69.2418 41.7213 69.2604 41.6679 69.2604H39.3559L39.2279 70.5644C39.3239 70.5004 39.4519 70.4391 39.6119 70.3804C39.7719 70.3218 39.9933 70.2924 40.2759 70.2924C40.5319 70.2924 40.7746 70.3351 41.0039 70.4204C41.2386 70.5004 41.4466 70.6204 41.6279 70.7804C41.8093 70.9351 41.9506 71.1244 42.0519 71.3484C42.1586 71.5671 42.2119 71.8178 42.2119 72.1004C42.2119 72.4898 42.1213 72.8284 41.9399 73.1164C41.7586 73.4044 41.5053 73.6284 41.1799 73.7884C40.8546 73.9484 40.4706 74.0284 40.0279 74.0284Z" fill="white"/>
<path d="M39.9075 107.08C39.5288 107.08 39.2062 107.024 38.9395 106.912C38.6728 106.8 38.4542 106.645 38.2835 106.448C38.1128 106.251 37.9848 106.024 37.8995 105.768C37.8142 105.507 37.7635 105.229 37.7475 104.936C37.7422 104.792 37.7368 104.635 37.7315 104.464C37.7315 104.288 37.7315 104.112 37.7315 103.936C37.7368 103.76 37.7422 103.597 37.7475 103.448C37.7582 103.155 37.8088 102.88 37.8995 102.624C37.9902 102.363 38.1208 102.136 38.2915 101.944C38.4675 101.752 38.6888 101.6 38.9555 101.488C39.2222 101.376 39.5395 101.32 39.9075 101.32C40.2808 101.32 40.6008 101.376 40.8675 101.488C41.1342 101.6 41.3528 101.752 41.5235 101.944C41.6995 102.136 41.8302 102.363 41.9155 102.624C42.0062 102.88 42.0568 103.155 42.0675 103.448C42.0782 103.597 42.0835 103.76 42.0835 103.936C42.0835 104.112 42.0835 104.288 42.0835 104.464C42.0835 104.635 42.0782 104.792 42.0675 104.936C42.0568 105.229 42.0088 105.507 41.9235 105.768C41.8382 106.024 41.7102 106.251 41.5395 106.448C41.3688 106.645 41.1475 106.8 40.8755 106.912C40.6088 107.024 40.2862 107.08 39.9075 107.08ZM39.9075 106.16C40.2542 106.16 40.5075 106.048 40.6675 105.824C40.8328 105.595 40.9182 105.285 40.9235 104.896C40.9342 104.741 40.9395 104.587 40.9395 104.432C40.9395 104.272 40.9395 104.112 40.9395 103.952C40.9395 103.792 40.9342 103.64 40.9235 103.496C40.9182 103.117 40.8328 102.813 40.6675 102.584C40.5075 102.349 40.2542 102.232 39.9075 102.232C39.5662 102.232 39.3128 102.349 39.1475 102.584C38.9875 102.813 38.9022 103.117 38.8915 103.496C38.8915 103.64 38.8888 103.792 38.8835 103.952C38.8835 104.112 38.8835 104.272 38.8835 104.432C38.8888 104.587 38.8915 104.741 38.8915 104.896C38.9022 105.285 38.9902 105.595 39.1555 105.824C39.3208 106.048 39.5715 106.16 39.9075 106.16Z" fill="white"/>
<path d="M27.1118 138.819C27.0531 138.819 27.0051 138.801 26.9678 138.763C26.9358 138.726 26.9198 138.681 26.9198 138.627V138.099C26.9198 138.046 26.9358 138.001 26.9678 137.963C27.0051 137.926 27.0531 137.907 27.1118 137.907H29.5678C29.6211 137.907 29.6664 137.926 29.7038 137.963C29.7411 138.001 29.7598 138.046 29.7598 138.099V138.627C29.7598 138.681 29.7411 138.726 29.7038 138.763C29.6664 138.801 29.6211 138.819 29.5678 138.819H27.1118ZM32.8913 140.843C32.5127 140.843 32.19 140.787 31.9233 140.675C31.6567 140.563 31.438 140.409 31.2673 140.211C31.0967 140.014 30.9687 139.787 30.8833 139.531C30.798 139.27 30.7473 138.993 30.7313 138.699C30.726 138.555 30.7207 138.398 30.7153 138.227C30.7153 138.051 30.7153 137.875 30.7153 137.699C30.7207 137.523 30.726 137.361 30.7313 137.211C30.742 136.918 30.7927 136.643 30.8833 136.387C30.974 136.126 31.1047 135.899 31.2753 135.707C31.4513 135.515 31.6727 135.363 31.9393 135.251C32.206 135.139 32.5233 135.083 32.8913 135.083C33.2647 135.083 33.5847 135.139 33.8513 135.251C34.118 135.363 34.3367 135.515 34.5073 135.707C34.6833 135.899 34.814 136.126 34.8993 136.387C34.99 136.643 35.0407 136.918 35.0513 137.211C35.062 137.361 35.0673 137.523 35.0673 137.699C35.0673 137.875 35.0673 138.051 35.0673 138.227C35.0673 138.398 35.062 138.555 35.0513 138.699C35.0407 138.993 34.9927 139.27 34.9073 139.531C34.822 139.787 34.694 140.014 34.5233 140.211C34.3527 140.409 34.1313 140.563 33.8593 140.675C33.5927 140.787 33.27 140.843 32.8913 140.843ZM32.8913 139.923C33.238 139.923 33.4913 139.811 33.6513 139.587C33.8167 139.358 33.902 139.049 33.9073 138.659C33.918 138.505 33.9233 138.35 33.9233 138.195C33.9233 138.035 33.9233 137.875 33.9233 137.715C33.9233 137.555 33.918 137.403 33.9073 137.259C33.902 136.881 33.8167 136.577 33.6513 136.347C33.4913 136.113 33.238 135.995 32.8913 135.995C32.55 135.995 32.2967 136.113 32.1313 136.347C31.9713 136.577 31.886 136.881 31.8753 137.259C31.8753 137.403 31.8727 137.555 31.8673 137.715C31.8673 137.875 31.8673 138.035 31.8673 138.195C31.8727 138.35 31.8753 138.505 31.8753 138.659C31.886 139.049 31.974 139.358 32.1393 139.587C32.3047 139.811 32.5553 139.923 32.8913 139.923ZM36.1112 140.763C36.0579 140.763 36.0125 140.745 35.9752 140.707C35.9379 140.67 35.9192 140.625 35.9192 140.571V139.779C35.9192 139.721 35.9379 139.673 35.9752 139.635C36.0125 139.598 36.0579 139.579 36.1112 139.579H36.9112C36.9645 139.579 37.0099 139.598 37.0472 139.635C37.0845 139.673 37.1032 139.721 37.1032 139.779V140.571C37.1032 140.625 37.0845 140.67 37.0472 140.707C37.0099 140.745 36.9645 140.763 36.9112 140.763H36.1112ZM40.0278 140.851C39.5692 140.851 39.1825 140.777 38.8678 140.627C38.5532 140.473 38.3132 140.273 38.1478 140.027C37.9878 139.782 37.9025 139.521 37.8918 139.243C37.8865 139.195 37.8998 139.158 37.9318 139.131C37.9692 139.099 38.0118 139.083 38.0598 139.083H38.8038C38.8625 139.083 38.9105 139.097 38.9478 139.123C38.9905 139.145 39.0225 139.185 39.0438 139.243C39.0972 139.403 39.1718 139.534 39.2678 139.635C39.3692 139.737 39.4838 139.811 39.6118 139.859C39.7452 139.907 39.8838 139.931 40.0278 139.931C40.2198 139.931 40.3932 139.894 40.5478 139.819C40.7078 139.739 40.8358 139.622 40.9318 139.467C41.0278 139.313 41.0758 139.123 41.0758 138.899C41.0758 138.702 41.0305 138.531 40.9398 138.387C40.8492 138.243 40.7238 138.131 40.5638 138.051C40.4092 137.966 40.2305 137.923 40.0278 137.923C39.8785 137.923 39.7558 137.942 39.6598 137.979C39.5638 138.017 39.4812 138.059 39.4118 138.107C39.3478 138.155 39.2892 138.198 39.2358 138.235C39.1878 138.273 39.1318 138.291 39.0678 138.291H38.3318C38.2838 138.291 38.2412 138.275 38.2038 138.243C38.1718 138.206 38.1558 138.163 38.1558 138.115L38.4358 135.379C38.4412 135.31 38.4652 135.257 38.5078 135.219C38.5505 135.182 38.6012 135.163 38.6598 135.163H41.6678C41.7212 135.163 41.7665 135.182 41.8038 135.219C41.8412 135.257 41.8598 135.302 41.8598 135.355V135.891C41.8598 135.945 41.8412 135.99 41.8038 136.027C41.7665 136.065 41.7212 136.083 41.6678 136.083H39.3558L39.2278 137.387C39.3238 137.323 39.4518 137.262 39.6118 137.203C39.7718 137.145 39.9932 137.115 40.2758 137.115C40.5318 137.115 40.7745 137.158 41.0038 137.243C41.2385 137.323 41.4465 137.443 41.6278 137.603C41.8092 137.758 41.9505 137.947 42.0518 138.171C42.1585 138.39 42.2118 138.641 42.2118 138.923C42.2118 139.313 42.1212 139.651 41.9398 139.939C41.7585 140.227 41.5052 140.451 41.1798 140.611C40.8545 140.771 40.4705 140.851 40.0278 140.851Z" fill="white"/>
<path d="M356.63 8C356.571 8 356.523 7.98133 356.486 7.944C356.454 7.90667 356.438 7.86133 356.438 7.808V3.664L355.222 4.6C355.174 4.632 355.126 4.64533 355.078 4.64C355.03 4.62933 354.987 4.6 354.95 4.552L354.614 4.12C354.582 4.072 354.569 4.02133 354.574 3.968C354.585 3.91467 354.614 3.872 354.662 3.84L356.454 2.456C356.486 2.42933 356.518 2.41333 356.55 2.408C356.582 2.40267 356.617 2.4 356.654 2.4H357.358C357.411 2.4 357.457 2.41867 357.494 2.456C357.531 2.49333 357.55 2.53867 357.55 2.592V7.808C357.55 7.86133 357.531 7.90667 357.494 7.944C357.457 7.98133 357.411 8 357.358 8H356.63ZM360.741 8.08C360.362 8.08 360.04 8.024 359.773 7.912C359.506 7.8 359.288 7.64533 359.117 7.448C358.946 7.25067 358.818 7.024 358.733 6.768C358.648 6.50667 358.597 6.22933 358.581 5.936C358.576 5.792 358.57 5.63467 358.565 5.464C358.565 5.288 358.565 5.112 358.565 4.936C358.57 4.76 358.576 4.59733 358.581 4.448C358.592 4.15467 358.642 3.88 358.733 3.624C358.824 3.36267 358.954 3.136 359.125 2.944C359.301 2.752 359.522 2.6 359.789 2.488C360.056 2.376 360.373 2.32 360.741 2.32C361.114 2.32 361.434 2.376 361.701 2.488C361.968 2.6 362.186 2.752 362.357 2.944C362.533 3.136 362.664 3.36267 362.749 3.624C362.84 3.88 362.89 4.15467 362.901 4.448C362.912 4.59733 362.917 4.76 362.917 4.936C362.917 5.112 362.917 5.288 362.917 5.464C362.917 5.63467 362.912 5.792 362.901 5.936C362.89 6.22933 362.842 6.50667 362.757 6.768C362.672 7.024 362.544 7.25067 362.373 7.448C362.202 7.64533 361.981 7.8 361.709 7.912C361.442 8.024 361.12 8.08 360.741 8.08ZM360.741 7.16C361.088 7.16 361.341 7.048 361.501 6.824C361.666 6.59467 361.752 6.28533 361.757 5.896C361.768 5.74133 361.773 5.58667 361.773 5.432C361.773 5.272 361.773 5.112 361.773 4.952C361.773 4.792 361.768 4.64 361.757 4.496C361.752 4.11733 361.666 3.81333 361.501 3.584C361.341 3.34933 361.088 3.232 360.741 3.232C360.4 3.232 360.146 3.34933 359.981 3.584C359.821 3.81333 359.736 4.11733 359.725 4.496C359.725 4.64 359.722 4.792 359.717 4.952C359.717 5.112 359.717 5.272 359.717 5.432C359.722 5.58667 359.725 5.74133 359.725 5.896C359.736 6.28533 359.824 6.59467 359.989 6.824C360.154 7.048 360.405 7.16 360.741 7.16ZM365.999 8.08C365.62 8.08 365.297 8.024 365.031 7.912C364.764 7.8 364.545 7.64533 364.375 7.448C364.204 7.25067 364.076 7.024 363.991 6.768C363.905 6.50667 363.855 6.22933 363.839 5.936C363.833 5.792 363.828 5.63467 363.823 5.464C363.823 5.288 363.823 5.112 363.823 4.936C363.828 4.76 363.833 4.59733 363.839 4.448C363.849 4.15467 363.9 3.88 363.991 3.624C364.081 3.36267 364.212 3.136 364.383 2.944C364.559 2.752 364.78 2.6 365.047 2.488C365.313 2.376 365.631 2.32 365.999 2.32C366.372 2.32 366.692 2.376 366.959 2.488C367.225 2.6 367.444 2.752 367.615 2.944C367.791 3.136 367.921 3.36267 368.007 3.624C368.097 3.88 368.148 4.15467 368.159 4.448C368.169 4.59733 368.175 4.76 368.175 4.936C368.175 5.112 368.175 5.288 368.175 5.464C368.175 5.63467 368.169 5.792 368.159 5.936C368.148 6.22933 368.1 6.50667 368.015 6.768C367.929 7.024 367.801 7.25067 367.631 7.448C367.46 7.64533 367.239 7.8 366.967 7.912C366.7 8.024 366.377 8.08 365.999 8.08ZM365.999 7.16C366.345 7.16 366.599 7.048 366.759 6.824C366.924 6.59467 367.009 6.28533 367.015 5.896C367.025 5.74133 367.031 5.58667 367.031 5.432C367.031 5.272 367.031 5.112 367.031 4.952C367.031 4.792 367.025 4.64 367.015 4.496C367.009 4.11733 366.924 3.81333 366.759 3.584C366.599 3.34933 366.345 3.232 365.999 3.232C365.657 3.232 365.404 3.34933 365.239 3.584C365.079 3.81333 364.993 4.11733 364.983 4.496C364.983 4.64 364.98 4.792 364.975 4.952C364.975 5.112 364.975 5.272 364.975 5.432C364.98 5.58667 364.983 5.74133 364.983 5.896C364.993 6.28533 365.081 6.59467 365.247 6.824C365.412 7.048 365.663 7.16 365.999 7.16Z" fill="url(#paint0_linear)" fill-opacity="0.5"/>
<path d="M360.487 40.7422C360.439 40.7422 360.399 40.7262 360.367 40.6942C360.335 40.6569 360.319 40.6142 360.319 40.5662C360.319 40.5449 360.325 40.5209 360.335 40.4942L362.263 36.0942H359.751C359.693 36.0942 359.645 36.0755 359.607 36.0382C359.575 36.0009 359.559 35.9555 359.559 35.9022V35.3422C359.559 35.2835 359.575 35.2355 359.607 35.1982C359.645 35.1609 359.693 35.1422 359.751 35.1422H363.263C363.322 35.1422 363.367 35.1609 363.399 35.1982C363.437 35.2355 363.455 35.2835 363.455 35.3422V35.8382C363.455 35.9129 363.447 35.9769 363.431 36.0302C363.421 36.0782 363.405 36.1289 363.383 36.1822L361.471 40.5502C361.455 40.5875 361.426 40.6302 361.383 40.6782C361.346 40.7209 361.29 40.7422 361.215 40.7422H360.487ZM366.119 40.8302C365.66 40.8302 365.274 40.7555 364.959 40.6062C364.644 40.4515 364.404 40.2515 364.239 40.0062C364.079 39.7609 363.994 39.4995 363.983 39.2222C363.978 39.1742 363.991 39.1369 364.023 39.1102C364.06 39.0782 364.103 39.0622 364.151 39.0622H364.895C364.954 39.0622 365.002 39.0755 365.039 39.1022C365.082 39.1235 365.114 39.1635 365.135 39.2222C365.188 39.3822 365.263 39.5129 365.359 39.6142C365.46 39.7155 365.575 39.7902 365.703 39.8382C365.836 39.8862 365.975 39.9102 366.119 39.9102C366.311 39.9102 366.484 39.8729 366.639 39.7982C366.799 39.7182 366.927 39.6009 367.023 39.4462C367.119 39.2915 367.167 39.1022 367.167 38.8782C367.167 38.6809 367.122 38.5102 367.031 38.3662C366.94 38.2222 366.815 38.1102 366.655 38.0302C366.5 37.9449 366.322 37.9022 366.119 37.9022C365.97 37.9022 365.847 37.9209 365.751 37.9582C365.655 37.9955 365.572 38.0382 365.503 38.0862C365.439 38.1342 365.38 38.1769 365.327 38.2142C365.279 38.2515 365.223 38.2702 365.159 38.2702H364.423C364.375 38.2702 364.332 38.2542 364.295 38.2222C364.263 38.1849 364.247 38.1422 364.247 38.0942L364.527 35.3582C364.532 35.2889 364.556 35.2355 364.599 35.1982C364.642 35.1609 364.692 35.1422 364.751 35.1422H367.759C367.812 35.1422 367.858 35.1609 367.895 35.1982C367.932 35.2355 367.951 35.2809 367.951 35.3342V35.8702C367.951 35.9235 367.932 35.9689 367.895 36.0062C367.858 36.0435 367.812 36.0622 367.759 36.0622H365.447L365.319 37.3662C365.415 37.3022 365.543 37.2409 365.703 37.1822C365.863 37.1235 366.084 37.0942 366.367 37.0942C366.623 37.0942 366.866 37.1369 367.095 37.2222C367.33 37.3022 367.538 37.4222 367.719 37.5822C367.9 37.7369 368.042 37.9262 368.143 38.1502C368.25 38.3689 368.303 38.6195 368.303 38.9022C368.303 39.2915 368.212 39.6302 368.031 39.9182C367.85 40.2062 367.596 40.4302 367.271 40.5902C366.946 40.7502 366.562 40.8302 366.119 40.8302Z" fill="url(#paint1_linear)" fill-opacity="0.5"/>
<path d="M360.861 74.0284C360.403 74.0284 360.016 73.9538 359.701 73.8044C359.387 73.6498 359.147 73.4498 358.981 73.2044C358.821 72.9591 358.736 72.6978 358.725 72.4204C358.72 72.3724 358.733 72.3351 358.765 72.3084C358.803 72.2764 358.845 72.2604 358.893 72.2604H359.637C359.696 72.2604 359.744 72.2738 359.781 72.3004C359.824 72.3218 359.856 72.3618 359.877 72.4204C359.931 72.5804 360.005 72.7111 360.101 72.8124C360.203 72.9138 360.317 72.9884 360.445 73.0364C360.579 73.0844 360.717 73.1084 360.861 73.1084C361.053 73.1084 361.227 73.0711 361.381 72.9964C361.541 72.9164 361.669 72.7991 361.765 72.6444C361.861 72.4898 361.909 72.3004 361.909 72.0764C361.909 71.8791 361.864 71.7084 361.773 71.5644C361.683 71.4204 361.557 71.3084 361.397 71.2284C361.243 71.1431 361.064 71.1004 360.861 71.1004C360.712 71.1004 360.589 71.1191 360.493 71.1564C360.397 71.1938 360.315 71.2364 360.245 71.2844C360.181 71.3324 360.123 71.3751 360.069 71.4124C360.021 71.4498 359.965 71.4684 359.901 71.4684H359.165C359.117 71.4684 359.075 71.4524 359.037 71.4204C359.005 71.3831 358.989 71.3404 358.989 71.2924L359.269 68.5564C359.275 68.4871 359.299 68.4338 359.341 68.3964C359.384 68.3591 359.435 68.3404 359.493 68.3404H362.501C362.555 68.3404 362.6 68.3591 362.637 68.3964C362.675 68.4338 362.693 68.4791 362.693 68.5324V69.0684C362.693 69.1218 362.675 69.1671 362.637 69.2044C362.6 69.2418 362.555 69.2604 362.501 69.2604H360.189L360.061 70.5644C360.157 70.5004 360.285 70.4391 360.445 70.3804C360.605 70.3218 360.827 70.2924 361.109 70.2924C361.365 70.2924 361.608 70.3351 361.837 70.4204C362.072 70.5004 362.28 70.6204 362.461 70.7804C362.643 70.9351 362.784 71.1244 362.885 71.3484C362.992 71.5671 363.045 71.8178 363.045 72.1004C363.045 72.4898 362.955 72.8284 362.773 73.1164C362.592 73.4044 362.339 73.6284 362.013 73.7884C361.688 73.9484 361.304 74.0284 360.861 74.0284ZM365.998 74.0204C365.62 74.0204 365.297 73.9644 365.03 73.8524C364.764 73.7404 364.545 73.5858 364.374 73.3884C364.204 73.1911 364.076 72.9644 363.99 72.7084C363.905 72.4471 363.854 72.1698 363.838 71.8764C363.833 71.7324 363.828 71.5751 363.822 71.4044C363.822 71.2284 363.822 71.0524 363.822 70.8764C363.828 70.7004 363.833 70.5378 363.838 70.3884C363.849 70.0951 363.9 69.8204 363.99 69.5644C364.081 69.3031 364.212 69.0764 364.382 68.8844C364.558 68.6924 364.78 68.5404 365.046 68.4284C365.313 68.3164 365.63 68.2604 365.998 68.2604C366.372 68.2604 366.692 68.3164 366.958 68.4284C367.225 68.5404 367.444 68.6924 367.614 68.8844C367.79 69.0764 367.921 69.3031 368.006 69.5644C368.097 69.8204 368.148 70.0951 368.158 70.3884C368.169 70.5378 368.174 70.7004 368.174 70.8764C368.174 71.0524 368.174 71.2284 368.174 71.4044C368.174 71.5751 368.169 71.7324 368.158 71.8764C368.148 72.1698 368.1 72.4471 368.014 72.7084C367.929 72.9644 367.801 73.1911 367.63 73.3884C367.46 73.5858 367.238 73.7404 366.966 73.8524C366.7 73.9644 366.377 74.0204 365.998 74.0204ZM365.998 73.1004C366.345 73.1004 366.598 72.9884 366.758 72.7644C366.924 72.5351 367.009 72.2258 367.014 71.8364C367.025 71.6818 367.03 71.5271 367.03 71.3724C367.03 71.2124 367.03 71.0524 367.03 70.8924C367.03 70.7324 367.025 70.5804 367.014 70.4364C367.009 70.0578 366.924 69.7538 366.758 69.5244C366.598 69.2898 366.345 69.1724 365.998 69.1724C365.657 69.1724 365.404 69.2898 365.238 69.5244C365.078 69.7538 364.993 70.0578 364.982 70.4364C364.982 70.5804 364.98 70.7324 364.974 70.8924C364.974 71.0524 364.974 71.2124 364.974 71.3724C364.98 71.5271 364.982 71.6818 364.982 71.8364C364.993 72.2258 365.081 72.5351 365.246 72.7644C365.412 72.9884 365.662 73.1004 365.998 73.1004Z" fill="url(#paint2_linear)" fill-opacity="0.5"/>
<path d="M359.27 107C359.217 107 359.171 106.981 359.134 106.944C359.097 106.907 359.078 106.861 359.078 106.808V106.4C359.078 106.352 359.089 106.296 359.11 106.232C359.137 106.163 359.193 106.093 359.278 106.024L360.542 104.768C360.894 104.491 361.177 104.256 361.39 104.064C361.609 103.867 361.766 103.688 361.862 103.528C361.963 103.363 362.014 103.2 362.014 103.04C362.014 102.8 361.947 102.605 361.814 102.456C361.686 102.307 361.481 102.232 361.198 102.232C361.011 102.232 360.854 102.272 360.726 102.352C360.598 102.427 360.497 102.528 360.422 102.656C360.353 102.784 360.305 102.925 360.278 103.08C360.267 103.149 360.238 103.197 360.19 103.224C360.142 103.251 360.094 103.264 360.046 103.264H359.334C359.286 103.264 359.246 103.248 359.214 103.216C359.182 103.184 359.166 103.147 359.166 103.104C359.171 102.875 359.219 102.653 359.31 102.44C359.401 102.221 359.531 102.029 359.702 101.864C359.878 101.693 360.091 101.557 360.342 101.456C360.593 101.355 360.875 101.304 361.19 101.304C361.633 101.304 361.998 101.379 362.286 101.528C362.579 101.677 362.798 101.88 362.942 102.136C363.091 102.392 363.166 102.68 363.166 103C363.166 103.251 363.118 103.483 363.022 103.696C362.926 103.904 362.787 104.107 362.606 104.304C362.425 104.496 362.206 104.693 361.95 104.896L360.814 106.048H363.094C363.153 106.048 363.198 106.067 363.23 106.104C363.267 106.136 363.286 106.181 363.286 106.24V106.808C363.286 106.861 363.267 106.907 363.23 106.944C363.198 106.981 363.153 107 363.094 107H359.27ZM366.119 107.088C365.66 107.088 365.274 107.013 364.959 106.864C364.644 106.709 364.404 106.509 364.239 106.264C364.079 106.019 363.994 105.757 363.983 105.48C363.978 105.432 363.991 105.395 364.023 105.368C364.06 105.336 364.103 105.32 364.151 105.32H364.895C364.954 105.32 365.002 105.333 365.039 105.36C365.082 105.381 365.114 105.421 365.135 105.48C365.188 105.64 365.263 105.771 365.359 105.872C365.46 105.973 365.575 106.048 365.703 106.096C365.836 106.144 365.975 106.168 366.119 106.168C366.311 106.168 366.484 106.131 366.639 106.056C366.799 105.976 366.927 105.859 367.023 105.704C367.119 105.549 367.167 105.36 367.167 105.136C367.167 104.939 367.122 104.768 367.031 104.624C366.94 104.48 366.815 104.368 366.655 104.288C366.5 104.203 366.322 104.16 366.119 104.16C365.97 104.16 365.847 104.179 365.751 104.216C365.655 104.253 365.572 104.296 365.503 104.344C365.439 104.392 365.38 104.435 365.327 104.472C365.279 104.509 365.223 104.528 365.159 104.528H364.423C364.375 104.528 364.332 104.512 364.295 104.48C364.263 104.443 364.247 104.4 364.247 104.352L364.527 101.616C364.532 101.547 364.556 101.493 364.599 101.456C364.642 101.419 364.692 101.4 364.751 101.4H367.759C367.812 101.4 367.858 101.419 367.895 101.456C367.932 101.493 367.951 101.539 367.951 101.592V102.128C367.951 102.181 367.932 102.227 367.895 102.264C367.858 102.301 367.812 102.32 367.759 102.32H365.447L365.319 103.624C365.415 103.56 365.543 103.499 365.703 103.44C365.863 103.381 366.084 103.352 366.367 103.352C366.623 103.352 366.866 103.395 367.095 103.48C367.33 103.56 367.538 103.68 367.719 103.84C367.9 103.995 368.042 104.184 368.143 104.408C368.25 104.627 368.303 104.877 368.303 105.16C368.303 105.549 368.212 105.888 368.031 106.176C367.85 106.464 367.596 106.688 367.271 106.848C366.946 107.008 366.562 107.088 366.119 107.088Z" fill="url(#paint3_linear)" fill-opacity="0.5"/>
<path d="M365.998 140.843C365.62 140.843 365.297 140.787 365.03 140.675C364.764 140.563 364.545 140.408 364.374 140.211C364.204 140.013 364.076 139.787 363.99 139.531C363.905 139.269 363.854 138.992 363.838 138.699C363.833 138.555 363.828 138.397 363.822 138.227C363.822 138.051 363.822 137.875 363.822 137.699C363.828 137.523 363.833 137.36 363.838 137.211C363.849 136.917 363.9 136.643 363.99 136.387C364.081 136.125 364.212 135.899 364.382 135.707C364.558 135.515 364.78 135.363 365.046 135.251C365.313 135.139 365.63 135.083 365.998 135.083C366.372 135.083 366.692 135.139 366.958 135.251C367.225 135.363 367.444 135.515 367.614 135.707C367.79 135.899 367.921 136.125 368.006 136.387C368.097 136.643 368.148 136.917 368.158 137.211C368.169 137.36 368.174 137.523 368.174 137.699C368.174 137.875 368.174 138.051 368.174 138.227C368.174 138.397 368.169 138.555 368.158 138.699C368.148 138.992 368.1 139.269 368.014 139.531C367.929 139.787 367.801 140.013 367.63 140.211C367.46 140.408 367.238 140.563 366.966 140.675C366.7 140.787 366.377 140.843 365.998 140.843ZM365.998 139.923C366.345 139.923 366.598 139.811 366.758 139.587C366.924 139.357 367.009 139.048 367.014 138.659C367.025 138.504 367.03 138.349 367.03 138.195C367.03 138.035 367.03 137.875 367.03 137.715C367.03 137.555 367.025 137.403 367.014 137.259C367.009 136.88 366.924 136.576 366.758 136.347C366.598 136.112 366.345 135.995 365.998 135.995C365.657 135.995 365.404 136.112 365.238 136.347C365.078 136.576 364.993 136.88 364.982 137.259C364.982 137.403 364.98 137.555 364.974 137.715C364.974 137.875 364.974 138.035 364.974 138.195C364.98 138.349 364.982 138.504 364.982 138.659C364.993 139.048 365.081 139.357 365.246 139.587C365.412 139.811 365.662 139.923 365.998 139.923Z" fill="url(#paint4_linear)" fill-opacity="0.5"/>
<path d="M43.9199 143.898C73.4601 127.059 116.784 98.6305 193.587 62.5478C259.346 31.6541 315.901 19.9044 346.535 14" stroke="url(#paint5_linear)" stroke-opacity="0.5"/>
<path d="M120.615 145L120.615 12" stroke="#BFB2B2"/>
<path d="M195.557 145L195.557 12" stroke="#BFB2B2"/>
<path d="M270.498 145V12" stroke="#BFB2B2"/>
<path d="M44.6748 46L347.675 46" stroke="#BFB2B2"/>
<path d="M44.6748 79L347.675 79" stroke="#BFB2B2"/>
<path d="M44.6748 112L347.675 112" stroke="#BFB2B2"/>
<rect x="44.1748" y="12.5" width="303" height="132" stroke="#BFB2B2"/>
<path d="M43.6748 79C87.6811 79.4864 187.029 78.7189 255.84 81.622C312.209 84.0002 328.021 84 347.675 84" stroke="#6F1571"/>
<path d="M44.8115 111.508L51.1204 69.7341C51.3168 68.4334 52.7248 67.7026 53.9015 68.2906V68.2906C54.775 68.7271 55.8369 68.4452 56.3788 67.6328L61.5436 59.8902C61.9145 59.334 62.5388 59 63.2074 59H70.2327C71.0763 59 71.8292 59.5294 72.1147 60.3232L77.7378 75.9607C77.9453 76.5377 78.406 76.9877 78.9877 77.1815L83.3385 78.6309C84.1874 78.9137 85.1208 78.5982 85.6241 77.8585L87.2078 75.531C88.1468 74.1508 90.2637 74.4605 90.7679 76.0519L92.862 82.6611C93.4577 84.541 96.1267 84.5155 96.6864 82.6246L99.2021 74.1241C99.7249 72.3575 102.156 72.1775 102.933 73.8477L105.156 78.6231C105.721 79.8388 107.3 80.1643 108.3 79.2715L120.766 68.1479C121.456 67.5329 122.476 67.4699 123.236 67.9954L127.835 71.1774C128.63 71.7271 129.704 71.6303 130.387 70.9473L135.576 65.7609C136.258 65.0797 137.328 64.9814 138.123 65.5272L144.961 70.226C145.428 70.5469 146.01 70.6546 146.56 70.5225L151.166 69.4181C152.057 69.2044 152.979 69.6236 153.404 70.4355L159.818 82.6905C160.662 84.3017 163.043 84.0425 163.52 82.2876L167.001 69.48C167.477 67.7285 169.852 67.4656 170.699 69.0705L172.436 72.3595C173.046 73.5149 174.583 73.7845 175.55 72.9058L179.217 69.5743C179.585 69.2399 180.064 69.0546 180.562 69.0546H183.981H188.452C188.818 69.0546 189.176 69.1547 189.489 69.3439L197.025 73.9083C197.749 74.347 198.671 74.282 199.327 73.7459L206.014 68.2779C206.826 67.614 208.013 67.6902 208.734 68.4525L211.363 71.235C211.88 71.782 212.661 71.9924 213.382 71.7796L227.59 67.5901C228.544 67.3087 229.56 67.7716 229.974 68.6765L232.917 75.1108C233.367 76.0935 234.516 76.5414 235.512 76.1223L236.967 75.5097C238.068 75.0464 239.328 75.6454 239.663 76.792L244.87 94.6081C245.38 96.3529 247.765 96.5675 248.579 94.9418L252.179 87.7445C252.354 87.3948 252.628 87.1041 252.966 86.9083L257.292 84.4053C257.597 84.229 257.85 83.9755 258.025 83.6704L264.121 73.0585C264.993 71.5402 267.257 71.7963 267.768 73.4711L271.914 87.061C272.445 88.8028 274.838 88.9861 275.628 87.3455L279.182 79.9683C279.848 78.5873 281.755 78.4374 282.628 79.6974L284.103 81.8264C284.886 82.9568 286.55 82.978 287.362 81.868L289.478 78.9741C290.253 77.9139 291.822 77.876 292.648 78.8974L295.735 82.7175C296.384 83.5213 297.539 83.6978 298.399 83.1248L306.365 77.8171C307.181 77.2736 308.271 77.4014 308.938 78.1189L317.8 87.6399C318.468 88.3574 319.557 88.4851 320.373 87.9416L329.004 82.191C329.934 81.5715 331.191 81.8338 331.795 82.7734L334.601 87.1355C335.215 88.0901 336.5 88.343 337.43 87.6923L346.904 81.064" stroke="white"/>
<defs>
<linearGradient id="paint0_linear" x1="361.925" y1="9.7453e-08" x2="356.618" y2="13.0203" gradientUnits="userSpaceOnUse">
<stop stop-color="#36E2FA"/>
<stop offset="1" stop-color="#368AFA"/>
</linearGradient>
<linearGradient id="paint1_linear" x1="364.16" y1="32.7422" x2="357.403" y2="43.7944" gradientUnits="userSpaceOnUse">
<stop stop-color="#36E2FA"/>
<stop offset="1" stop-color="#368AFA"/>
</linearGradient>
<linearGradient id="paint2_linear" x1="363.713" y1="65.9404" x2="357.266" y2="77.5404" gradientUnits="userSpaceOnUse">
<stop stop-color="#36E2FA"/>
<stop offset="1" stop-color="#368AFA"/>
</linearGradient>
<linearGradient id="paint3_linear" x1="364.16" y1="99" x2="357.403" y2="110.052" gradientUnits="userSpaceOnUse">
<stop stop-color="#36E2FA"/>
<stop offset="1" stop-color="#368AFA"/>
</linearGradient>
<linearGradient id="paint4_linear" x1="365.949" y1="132.763" x2="358.359" y2="140.212" gradientUnits="userSpaceOnUse">
<stop stop-color="#36E2FA"/>
<stop offset="1" stop-color="#368AFA"/>
</linearGradient>
<linearGradient id="paint5_linear" x1="243.446" y1="14" x2="206.518" y2="154.634" gradientUnits="userSpaceOnUse">
<stop stop-color="#36E2FA"/>
<stop offset="1" stop-color="#368AFA"/>
</linearGradient>
</defs>
</svg>
