<svg width="370" height="146" viewBox="0 0 370 146" fill="none" xmlns="http://www.w3.org/2000/svg">
<path d="M0 12.5028L16.7396 12.5028" stroke="#2F2F49"/>
<path d="M16.7412 145L16.7412 11.9999" stroke="#2F2F49"/>
<path d="M0 45.5807L16.7396 45.5807" stroke="#2F2F49"/>
<path d="M0 78.5036L16.7396 78.5036" stroke="#2F2F49"/>
<path d="M0 111.426L16.7396 111.426" stroke="#2F2F49"/>
<path d="M0 144.498L16.7396 144.498" stroke="#2F2F49"/>
<path d="M7.11932 8C7.06065 8 7.01265 7.98133 6.97532 7.944C6.94332 7.90667 6.92732 7.86133 6.92732 7.808V3.664L5.71132 4.6C5.66332 4.632 5.61532 4.64533 5.56732 4.64C5.51932 4.62933 5.47665 4.6 5.43932 4.552L5.10332 4.12C5.07132 4.072 5.05799 4.02133 5.06332 3.968C5.07399 3.91467 5.10332 3.872 5.15132 3.84L6.94332 2.456C6.97532 2.42933 7.00732 2.41333 7.03932 2.408C7.07132 2.40267 7.10599 2.4 7.14332 2.4H7.84732C7.90065 2.4 7.94599 2.41867 7.98332 2.456C8.02065 2.49333 8.03932 2.53867 8.03932 2.592V7.808C8.03932 7.86133 8.02065 7.90667 7.98332 7.944C7.94599 7.98133 7.90065 8 7.84732 8H7.11932ZM11.1584 8.08C10.6998 8.08 10.3051 7.99467 9.97445 7.824C9.64378 7.648 9.38778 7.41333 9.20645 7.12C9.02511 6.82133 8.93445 6.488 8.93445 6.12C8.93445 5.95467 8.95578 5.79467 8.99845 5.64C9.04111 5.48533 9.09711 5.33867 9.16645 5.2C9.23578 5.06133 9.30245 4.93867 9.36645 4.832C9.43578 4.72 9.49711 4.632 9.55045 4.568L11.0144 2.56C11.0358 2.53333 11.0678 2.50133 11.1104 2.464C11.1531 2.42133 11.2118 2.4 11.2864 2.4H12.0304C12.0784 2.4 12.1184 2.41867 12.1504 2.456C12.1824 2.488 12.1984 2.528 12.1984 2.576C12.1984 2.59733 12.1931 2.61867 12.1824 2.64C12.1771 2.656 12.1691 2.66933 12.1584 2.68L11.0384 4.232C11.0864 4.216 11.1424 4.20533 11.2064 4.2C11.2704 4.19467 11.3291 4.192 11.3824 4.192C11.6491 4.19733 11.9024 4.25067 12.1424 4.352C12.3824 4.448 12.5931 4.58133 12.7744 4.752C12.9558 4.92267 13.0971 5.12267 13.1984 5.352C13.3051 5.58133 13.3584 5.832 13.3584 6.104C13.3584 6.456 13.2704 6.784 13.0944 7.088C12.9184 7.38667 12.6651 7.62667 12.3344 7.808C12.0091 7.98933 11.6171 8.08 11.1584 8.08ZM11.1504 7.16C11.3424 7.16 11.5184 7.12 11.6784 7.04C11.8438 6.96 11.9771 6.84267 12.0784 6.688C12.1798 6.53333 12.2304 6.34133 12.2304 6.112C12.2304 5.888 12.1798 5.69867 12.0784 5.544C11.9771 5.38933 11.8438 5.272 11.6784 5.192C11.5184 5.112 11.3424 5.072 11.1504 5.072C10.9584 5.072 10.7798 5.112 10.6144 5.192C10.4544 5.272 10.3238 5.38933 10.2224 5.544C10.1211 5.69867 10.0704 5.888 10.0704 6.112C10.0704 6.34133 10.1211 6.53333 10.2224 6.688C10.3238 6.84267 10.4544 6.96 10.6144 7.04C10.7798 7.12 10.9584 7.16 11.1504 7.16Z" fill="#AAAAAA"/>
<path d="M11.0488 41.08C10.6968 41.08 10.3821 41.0373 10.1048 40.952C9.82747 40.8667 9.5928 40.7467 9.4008 40.592C9.21414 40.4373 9.07014 40.256 8.9688 40.048C8.8728 39.84 8.8248 39.608 8.8248 39.352C8.8248 39.0427 8.89947 38.776 9.0488 38.552C9.20347 38.3227 9.40347 38.1467 9.6488 38.024C9.45147 37.9013 9.2968 37.744 9.1848 37.552C9.07814 37.36 9.0248 37.136 9.0248 36.88C9.0248 36.5707 9.10214 36.3013 9.2568 36.072C9.4168 35.8373 9.64614 35.6533 9.9448 35.52C10.2488 35.3867 10.6168 35.32 11.0488 35.32C11.4808 35.32 11.8461 35.3867 12.1448 35.52C12.4435 35.648 12.6701 35.8293 12.8248 36.064C12.9795 36.2933 13.0568 36.5627 13.0568 36.872C13.0568 37.128 13.0035 37.352 12.8968 37.544C12.7901 37.736 12.6408 37.896 12.4488 38.024C12.6995 38.1413 12.8995 38.3173 13.0488 38.552C13.1981 38.7813 13.2728 39.0507 13.2728 39.36C13.2728 39.696 13.1848 39.9947 13.0088 40.256C12.8381 40.512 12.5848 40.7147 12.2488 40.864C11.9181 41.008 11.5181 41.08 11.0488 41.08ZM11.0488 40.248C11.2568 40.248 11.4435 40.2133 11.6088 40.144C11.7795 40.0693 11.9128 39.9653 12.0088 39.832C12.1101 39.6987 12.1608 39.5413 12.1608 39.36C12.1608 39.1733 12.1101 39.016 12.0088 38.888C11.9128 38.7547 11.7795 38.6533 11.6088 38.584C11.4435 38.5093 11.2568 38.472 11.0488 38.472C10.8408 38.472 10.6515 38.5093 10.4808 38.584C10.3155 38.6533 10.1821 38.7547 10.0808 38.888C9.9848 39.016 9.9368 39.1733 9.9368 39.36C9.9368 39.5413 9.9848 39.6987 10.0808 39.832C10.1821 39.9653 10.3155 40.0693 10.4808 40.144C10.6515 40.2133 10.8408 40.248 11.0488 40.248ZM11.0488 37.68C11.2248 37.6747 11.3848 37.64 11.5288 37.576C11.6781 37.512 11.7955 37.424 11.8808 37.312C11.9715 37.2 12.0168 37.0693 12.0168 36.92C12.0168 36.7653 11.9741 36.632 11.8888 36.52C11.8088 36.4027 11.6941 36.312 11.5448 36.248C11.4008 36.184 11.2355 36.152 11.0488 36.152C10.8621 36.152 10.6941 36.184 10.5448 36.248C10.4008 36.312 10.2861 36.4027 10.2008 36.52C10.1208 36.632 10.0808 36.7653 10.0808 36.92C10.0808 37.0747 10.1208 37.208 10.2008 37.32C10.2861 37.432 10.4008 37.52 10.5448 37.584C10.6941 37.648 10.8621 37.68 11.0488 37.68Z" fill="#AAAAAA"/>
<path d="M10.9287 74.08C10.55 74.08 10.2274 74.024 9.96069 73.912C9.69402 73.8 9.47535 73.6453 9.30469 73.448C9.13402 73.2507 9.00602 73.024 8.92069 72.768C8.83535 72.5067 8.78469 72.2293 8.76869 71.936C8.76335 71.792 8.75802 71.6347 8.75269 71.464C8.75269 71.288 8.75269 71.112 8.75269 70.936C8.75802 70.76 8.76335 70.5973 8.76869 70.448C8.77935 70.1547 8.83002 69.88 8.92069 69.624C9.01135 69.3627 9.14202 69.136 9.31269 68.944C9.48869 68.752 9.71002 68.6 9.97669 68.488C10.2434 68.376 10.5607 68.32 10.9287 68.32C11.302 68.32 11.622 68.376 11.8887 68.488C12.1554 68.6 12.374 68.752 12.5447 68.944C12.7207 69.136 12.8514 69.3627 12.9367 69.624C13.0274 69.88 13.078 70.1547 13.0887 70.448C13.0994 70.5973 13.1047 70.76 13.1047 70.936C13.1047 71.112 13.1047 71.288 13.1047 71.464C13.1047 71.6347 13.0994 71.792 13.0887 71.936C13.078 72.2293 13.03 72.5067 12.9447 72.768C12.8594 73.024 12.7314 73.2507 12.5607 73.448C12.39 73.6453 12.1687 73.8 11.8967 73.912C11.63 74.024 11.3074 74.08 10.9287 74.08ZM10.9287 73.16C11.2754 73.16 11.5287 73.048 11.6887 72.824C11.854 72.5947 11.9394 72.2853 11.9447 71.896C11.9554 71.7413 11.9607 71.5867 11.9607 71.432C11.9607 71.272 11.9607 71.112 11.9607 70.952C11.9607 70.792 11.9554 70.64 11.9447 70.496C11.9394 70.1173 11.854 69.8133 11.6887 69.584C11.5287 69.3493 11.2754 69.232 10.9287 69.232C10.5874 69.232 10.334 69.3493 10.1687 69.584C10.0087 69.8133 9.92335 70.1173 9.91269 70.496C9.91269 70.64 9.91002 70.792 9.90469 70.952C9.90469 71.112 9.90469 71.272 9.90469 71.432C9.91002 71.5867 9.91269 71.7413 9.91269 71.896C9.92335 72.2853 10.0114 72.5947 10.1767 72.824C10.342 73.048 10.5927 73.16 10.9287 73.16Z" fill="#AAAAAA"/>
<path d="M5.90205 105.056C5.84339 105.056 5.79539 105.037 5.75805 105C5.72605 104.963 5.71005 104.917 5.71005 104.864V104.336C5.71005 104.283 5.72605 104.237 5.75805 104.2C5.79539 104.163 5.84339 104.144 5.90205 104.144H8.35805C8.41139 104.144 8.45672 104.163 8.49405 104.2C8.53139 104.237 8.55005 104.283 8.55005 104.336V104.864C8.55005 104.917 8.53139 104.963 8.49405 105C8.45672 105.037 8.41139 105.056 8.35805 105.056H5.90205ZM11.6816 107.08C11.3296 107.08 11.015 107.037 10.7376 106.952C10.4603 106.867 10.2256 106.747 10.0336 106.592C9.84695 106.437 9.70295 106.256 9.60162 106.048C9.50562 105.84 9.45762 105.608 9.45762 105.352C9.45762 105.043 9.53228 104.776 9.68162 104.552C9.83628 104.323 10.0363 104.147 10.2816 104.024C10.0843 103.901 9.92962 103.744 9.81762 103.552C9.71095 103.36 9.65762 103.136 9.65762 102.88C9.65762 102.571 9.73495 102.301 9.88962 102.072C10.0496 101.837 10.279 101.653 10.5776 101.52C10.8816 101.387 11.2496 101.32 11.6816 101.32C12.1136 101.32 12.479 101.387 12.7776 101.52C13.0763 101.648 13.303 101.829 13.4576 102.064C13.6123 102.293 13.6896 102.563 13.6896 102.872C13.6896 103.128 13.6363 103.352 13.5296 103.544C13.423 103.736 13.2736 103.896 13.0816 104.024C13.3323 104.141 13.5323 104.317 13.6816 104.552C13.831 104.781 13.9056 105.051 13.9056 105.36C13.9056 105.696 13.8176 105.995 13.6416 106.256C13.471 106.512 13.2176 106.715 12.8816 106.864C12.551 107.008 12.151 107.08 11.6816 107.08ZM11.6816 106.248C11.8896 106.248 12.0763 106.213 12.2416 106.144C12.4123 106.069 12.5456 105.965 12.6416 105.832C12.743 105.699 12.7936 105.541 12.7936 105.36C12.7936 105.173 12.743 105.016 12.6416 104.888C12.5456 104.755 12.4123 104.653 12.2416 104.584C12.0763 104.509 11.8896 104.472 11.6816 104.472C11.4736 104.472 11.2843 104.509 11.1136 104.584C10.9483 104.653 10.815 104.755 10.7136 104.888C10.6176 105.016 10.5696 105.173 10.5696 105.36C10.5696 105.541 10.6176 105.699 10.7136 105.832C10.815 105.965 10.9483 106.069 11.1136 106.144C11.2843 106.213 11.4736 106.248 11.6816 106.248ZM11.6816 103.68C11.8576 103.675 12.0176 103.64 12.1616 103.576C12.311 103.512 12.4283 103.424 12.5136 103.312C12.6043 103.2 12.6496 103.069 12.6496 102.92C12.6496 102.765 12.607 102.632 12.5216 102.52C12.4416 102.403 12.327 102.312 12.1776 102.248C12.0336 102.184 11.8683 102.152 11.6816 102.152C11.495 102.152 11.327 102.184 11.1776 102.248C11.0336 102.312 10.919 102.403 10.8336 102.52C10.7536 102.632 10.7136 102.765 10.7136 102.92C10.7136 103.075 10.7536 103.208 10.8336 103.32C10.919 103.432 11.0336 103.52 11.1776 103.584C11.327 103.648 11.495 103.68 11.6816 103.68Z" fill="#AAAAAA"/>
<path d="M3.0583 139.056C2.99964 139.056 2.95164 139.037 2.9143 139C2.8823 138.963 2.8663 138.917 2.8663 138.864V138.336C2.8663 138.283 2.8823 138.237 2.9143 138.2C2.95164 138.163 2.99964 138.144 3.0583 138.144H5.5143C5.56764 138.144 5.61297 138.163 5.6503 138.2C5.68764 138.237 5.7063 138.283 5.7063 138.336V138.864C5.7063 138.917 5.68764 138.963 5.6503 139C5.61297 139.037 5.56764 139.056 5.5143 139.056H3.0583ZM8.17205 141C8.11339 141 8.06539 140.981 8.02805 140.944C7.99605 140.907 7.98005 140.861 7.98005 140.808V136.664L6.76405 137.6C6.71605 137.632 6.66805 137.645 6.62005 137.64C6.57205 137.629 6.52939 137.6 6.49205 137.552L6.15605 137.12C6.12405 137.072 6.11072 137.021 6.11605 136.968C6.12672 136.915 6.15605 136.872 6.20405 136.84L7.99605 135.456C8.02805 135.429 8.06005 135.413 8.09205 135.408C8.12405 135.403 8.15872 135.4 8.19605 135.4H8.90005C8.95339 135.4 8.99872 135.419 9.03605 135.456C9.07339 135.493 9.09205 135.539 9.09205 135.592V140.808C9.09205 140.861 9.07339 140.907 9.03605 140.944C8.99872 140.981 8.95339 141 8.90005 141H8.17205ZM12.2112 141.08C11.7525 141.08 11.3578 140.995 11.0272 140.824C10.6965 140.648 10.4405 140.413 10.2592 140.12C10.0778 139.821 9.98718 139.488 9.98718 139.12C9.98718 138.955 10.0085 138.795 10.0512 138.64C10.0938 138.485 10.1498 138.339 10.2192 138.2C10.2885 138.061 10.3552 137.939 10.4192 137.832C10.4885 137.72 10.5498 137.632 10.6032 137.568L12.0672 135.56C12.0885 135.533 12.1205 135.501 12.1632 135.464C12.2058 135.421 12.2645 135.4 12.3392 135.4H13.0832C13.1312 135.4 13.1712 135.419 13.2032 135.456C13.2352 135.488 13.2512 135.528 13.2512 135.576C13.2512 135.597 13.2458 135.619 13.2352 135.64C13.2298 135.656 13.2218 135.669 13.2112 135.68L12.0912 137.232C12.1392 137.216 12.1952 137.205 12.2592 137.2C12.3232 137.195 12.3818 137.192 12.4352 137.192C12.7018 137.197 12.9552 137.251 13.1952 137.352C13.4352 137.448 13.6458 137.581 13.8272 137.752C14.0085 137.923 14.1498 138.123 14.2512 138.352C14.3578 138.581 14.4112 138.832 14.4112 139.104C14.4112 139.456 14.3232 139.784 14.1472 140.088C13.9712 140.387 13.7178 140.627 13.3872 140.808C13.0618 140.989 12.6698 141.08 12.2112 141.08ZM12.2032 140.16C12.3952 140.16 12.5712 140.12 12.7312 140.04C12.8965 139.96 13.0298 139.843 13.1312 139.688C13.2325 139.533 13.2832 139.341 13.2832 139.112C13.2832 138.888 13.2325 138.699 13.1312 138.544C13.0298 138.389 12.8965 138.272 12.7312 138.192C12.5712 138.112 12.3952 138.072 12.2032 138.072C12.0112 138.072 11.8325 138.112 11.6672 138.192C11.5072 138.272 11.3765 138.389 11.2752 138.544C11.1738 138.699 11.1232 138.888 11.1232 139.112C11.1232 139.341 11.1738 139.533 11.2752 139.688C11.3765 139.843 11.5072 139.96 11.6672 140.04C11.8325 140.12 12.0112 140.16 12.2032 140.16Z" fill="#AAAAAA"/>
<path d="M33.9527 8C33.8941 8 33.8461 7.98133 33.8087 7.944C33.7767 7.90667 33.7607 7.86133 33.7607 7.808V3.664L32.5447 4.6C32.4967 4.632 32.4487 4.64533 32.4007 4.64C32.3527 4.62933 32.3101 4.6 32.2727 4.552L31.9367 4.12C31.9047 4.072 31.8914 4.02133 31.8967 3.968C31.9074 3.91467 31.9367 3.872 31.9847 3.84L33.7767 2.456C33.8087 2.42933 33.8407 2.41333 33.8727 2.408C33.9047 2.40267 33.9394 2.4 33.9767 2.4H34.6807C34.7341 2.4 34.7794 2.41867 34.8167 2.456C34.8541 2.49333 34.8727 2.53867 34.8727 2.592V7.808C34.8727 7.86133 34.8541 7.90667 34.8167 7.944C34.7794 7.98133 34.7341 8 34.6807 8H33.9527ZM36.1119 8C36.0585 8 36.0132 7.98133 35.9759 7.944C35.9385 7.90667 35.9199 7.86133 35.9199 7.808V7.016C35.9199 6.95733 35.9385 6.90933 35.9759 6.872C36.0132 6.83467 36.0585 6.816 36.1119 6.816H36.9119C36.9652 6.816 37.0105 6.83467 37.0479 6.872C37.0852 6.90933 37.1039 6.95733 37.1039 7.016V7.808C37.1039 7.86133 37.0852 7.90667 37.0479 7.944C37.0105 7.98133 36.9652 8 36.9119 8H36.1119ZM40.0285 8.088C39.5698 8.088 39.1832 8.01333 38.8685 7.864C38.5538 7.70933 38.3138 7.50933 38.1485 7.264C37.9885 7.01867 37.9032 6.75733 37.8925 6.48C37.8872 6.432 37.9005 6.39467 37.9325 6.368C37.9698 6.336 38.0125 6.32 38.0605 6.32H38.8045C38.8632 6.32 38.9112 6.33333 38.9485 6.36C38.9912 6.38133 39.0232 6.42133 39.0445 6.48C39.0978 6.64 39.1725 6.77067 39.2685 6.872C39.3698 6.97333 39.4845 7.048 39.6125 7.096C39.7458 7.144 39.8845 7.168 40.0285 7.168C40.2205 7.168 40.3938 7.13067 40.5485 7.056C40.7085 6.976 40.8365 6.85867 40.9325 6.704C41.0285 6.54933 41.0765 6.36 41.0765 6.136C41.0765 5.93867 41.0312 5.768 40.9405 5.624C40.8498 5.48 40.7245 5.368 40.5645 5.288C40.4098 5.20267 40.2312 5.16 40.0285 5.16C39.8792 5.16 39.7565 5.17867 39.6605 5.216C39.5645 5.25333 39.4818 5.296 39.4125 5.344C39.3485 5.392 39.2898 5.43467 39.2365 5.472C39.1885 5.50933 39.1325 5.528 39.0685 5.528H38.3325C38.2845 5.528 38.2418 5.512 38.2045 5.48C38.1725 5.44267 38.1565 5.4 38.1565 5.352L38.4365 2.616C38.4418 2.54667 38.4658 2.49333 38.5085 2.456C38.5512 2.41867 38.6018 2.4 38.6605 2.4H41.6685C41.7218 2.4 41.7672 2.41867 41.8045 2.456C41.8418 2.49333 41.8605 2.53867 41.8605 2.592V3.128C41.8605 3.18133 41.8418 3.22667 41.8045 3.264C41.7672 3.30133 41.7218 3.32 41.6685 3.32H39.3565L39.2285 4.624C39.3245 4.56 39.4525 4.49867 39.6125 4.44C39.7725 4.38133 39.9938 4.352 40.2765 4.352C40.5325 4.352 40.7752 4.39467 41.0045 4.48C41.2392 4.56 41.4472 4.68 41.6285 4.84C41.8098 4.99467 41.9512 5.184 42.0525 5.408C42.1592 5.62667 42.2125 5.87733 42.2125 6.16C42.2125 6.54933 42.1218 6.888 41.9405 7.176C41.7592 7.464 41.5058 7.688 41.1805 7.848C40.8552 8.008 40.4712 8.088 40.0285 8.088Z" fill="white"/>
<path d="M41.0538 40.7422C40.9951 40.7422 40.9471 40.7235 40.9098 40.6862C40.8778 40.6489 40.8618 40.6035 40.8618 40.5502V36.4062L39.6458 37.3422C39.5978 37.3742 39.5498 37.3875 39.5018 37.3822C39.4538 37.3715 39.4111 37.3422 39.3738 37.2942L39.0378 36.8622C39.0058 36.8142 38.9924 36.7635 38.9978 36.7102C39.0084 36.6569 39.0378 36.6142 39.0858 36.5822L40.8778 35.1982C40.9098 35.1715 40.9418 35.1555 40.9738 35.1502C41.0058 35.1449 41.0404 35.1422 41.0778 35.1422H41.7818C41.8351 35.1422 41.8804 35.1609 41.9178 35.1982C41.9551 35.2355 41.9738 35.2809 41.9738 35.3342V40.5502C41.9738 40.6035 41.9551 40.6489 41.9178 40.6862C41.8804 40.7235 41.8351 40.7422 41.7818 40.7422H41.0538Z" fill="white"/>
<path d="M32.8914 74.0204C32.5128 74.0204 32.1901 73.9644 31.9234 73.8524C31.6568 73.7404 31.4381 73.5858 31.2674 73.3884C31.0968 73.1911 30.9688 72.9644 30.8834 72.7084C30.7981 72.4471 30.7474 72.1698 30.7314 71.8764C30.7261 71.7324 30.7208 71.5751 30.7154 71.4044C30.7154 71.2284 30.7154 71.0524 30.7154 70.8764C30.7208 70.7004 30.7261 70.5378 30.7314 70.3884C30.7421 70.0951 30.7928 69.8204 30.8834 69.5644C30.9741 69.3031 31.1048 69.0764 31.2754 68.8844C31.4514 68.6924 31.6728 68.5404 31.9394 68.4284C32.2061 68.3164 32.5234 68.2604 32.8914 68.2604C33.2648 68.2604 33.5848 68.3164 33.8514 68.4284C34.1181 68.5404 34.3368 68.6924 34.5074 68.8844C34.6834 69.0764 34.8141 69.3031 34.8994 69.5644C34.9901 69.8204 35.0408 70.0951 35.0514 70.3884C35.0621 70.5378 35.0674 70.7004 35.0674 70.8764C35.0674 71.0524 35.0674 71.2284 35.0674 71.4044C35.0674 71.5751 35.0621 71.7324 35.0514 71.8764C35.0408 72.1698 34.9928 72.4471 34.9074 72.7084C34.8221 72.9644 34.6941 73.1911 34.5234 73.3884C34.3528 73.5858 34.1314 73.7404 33.8594 73.8524C33.5928 73.9644 33.2701 74.0204 32.8914 74.0204ZM32.8914 73.1004C33.2381 73.1004 33.4914 72.9884 33.6514 72.7644C33.8168 72.5351 33.9021 72.2258 33.9074 71.8364C33.9181 71.6818 33.9234 71.5271 33.9234 71.3724C33.9234 71.2124 33.9234 71.0524 33.9234 70.8924C33.9234 70.7324 33.9181 70.5804 33.9074 70.4364C33.9021 70.0578 33.8168 69.7538 33.6514 69.5244C33.4914 69.2898 33.2381 69.1724 32.8914 69.1724C32.5501 69.1724 32.2968 69.2898 32.1314 69.5244C31.9714 69.7538 31.8861 70.0578 31.8754 70.4364C31.8754 70.5804 31.8728 70.7324 31.8674 70.8924C31.8674 71.0524 31.8674 71.2124 31.8674 71.3724C31.8728 71.5271 31.8754 71.6818 31.8754 71.8364C31.8861 72.2258 31.9741 72.5351 32.1394 72.7644C32.3048 72.9884 32.5554 73.1004 32.8914 73.1004ZM36.1113 73.9404C36.058 73.9404 36.0126 73.9218 35.9753 73.8844C35.938 73.8471 35.9193 73.8018 35.9193 73.7484V72.9564C35.9193 72.8978 35.938 72.8498 35.9753 72.8124C36.0126 72.7751 36.058 72.7564 36.1113 72.7564H36.9113C36.9646 72.7564 37.01 72.7751 37.0473 72.8124C37.0846 72.8498 37.1033 72.8978 37.1033 72.9564V73.7484C37.1033 73.8018 37.0846 73.8471 37.0473 73.8844C37.01 73.9218 36.9646 73.9404 36.9113 73.9404H36.1113ZM40.0279 74.0284C39.5693 74.0284 39.1826 73.9538 38.8679 73.8044C38.5533 73.6498 38.3133 73.4498 38.1479 73.2044C37.9879 72.9591 37.9026 72.6978 37.8919 72.4204C37.8866 72.3724 37.8999 72.3351 37.9319 72.3084C37.9693 72.2764 38.0119 72.2604 38.0599 72.2604H38.8039C38.8626 72.2604 38.9106 72.2738 38.9479 72.3004C38.9906 72.3218 39.0226 72.3618 39.0439 72.4204C39.0973 72.5804 39.1719 72.7111 39.2679 72.8124C39.3693 72.9138 39.4839 72.9884 39.6119 73.0364C39.7453 73.0844 39.8839 73.1084 40.0279 73.1084C40.2199 73.1084 40.3933 73.0711 40.5479 72.9964C40.7079 72.9164 40.8359 72.7991 40.9319 72.6444C41.0279 72.4898 41.0759 72.3004 41.0759 72.0764C41.0759 71.8791 41.0306 71.7084 40.9399 71.5644C40.8493 71.4204 40.7239 71.3084 40.5639 71.2284C40.4093 71.1431 40.2306 71.1004 40.0279 71.1004C39.8786 71.1004 39.7559 71.1191 39.6599 71.1564C39.5639 71.1938 39.4813 71.2364 39.4119 71.2844C39.3479 71.3324 39.2893 71.3751 39.2359 71.4124C39.1879 71.4498 39.1319 71.4684 39.0679 71.4684H38.3319C38.2839 71.4684 38.2413 71.4524 38.2039 71.4204C38.1719 71.3831 38.1559 71.3404 38.1559 71.2924L38.4359 68.5564C38.4413 68.4871 38.4653 68.4338 38.5079 68.3964C38.5506 68.3591 38.6013 68.3404 38.6599 68.3404H41.6679C41.7213 68.3404 41.7666 68.3591 41.8039 68.3964C41.8413 68.4338 41.8599 68.4791 41.8599 68.5324V69.0684C41.8599 69.1218 41.8413 69.1671 41.8039 69.2044C41.7666 69.2418 41.7213 69.2604 41.6679 69.2604H39.3559L39.2279 70.5644C39.3239 70.5004 39.4519 70.4391 39.6119 70.3804C39.7719 70.3218 39.9933 70.2924 40.2759 70.2924C40.5319 70.2924 40.7746 70.3351 41.0039 70.4204C41.2386 70.5004 41.4466 70.6204 41.6279 70.7804C41.8093 70.9351 41.9506 71.1244 42.0519 71.3484C42.1586 71.5671 42.2119 71.8178 42.2119 72.1004C42.2119 72.4898 42.1213 72.8284 41.9399 73.1164C41.7586 73.4044 41.5053 73.6284 41.1799 73.7884C40.8546 73.9484 40.4706 74.0284 40.0279 74.0284Z" fill="white"/>
<path d="M39.9075 107.08C39.5288 107.08 39.2062 107.024 38.9395 106.912C38.6728 106.8 38.4542 106.645 38.2835 106.448C38.1128 106.251 37.9848 106.024 37.8995 105.768C37.8142 105.507 37.7635 105.229 37.7475 104.936C37.7422 104.792 37.7368 104.635 37.7315 104.464C37.7315 104.288 37.7315 104.112 37.7315 103.936C37.7368 103.76 37.7422 103.597 37.7475 103.448C37.7582 103.155 37.8088 102.88 37.8995 102.624C37.9902 102.363 38.1208 102.136 38.2915 101.944C38.4675 101.752 38.6888 101.6 38.9555 101.488C39.2222 101.376 39.5395 101.32 39.9075 101.32C40.2808 101.32 40.6008 101.376 40.8675 101.488C41.1342 101.6 41.3528 101.752 41.5235 101.944C41.6995 102.136 41.8302 102.363 41.9155 102.624C42.0062 102.88 42.0568 103.155 42.0675 103.448C42.0782 103.597 42.0835 103.76 42.0835 103.936C42.0835 104.112 42.0835 104.288 42.0835 104.464C42.0835 104.635 42.0782 104.792 42.0675 104.936C42.0568 105.229 42.0088 105.507 41.9235 105.768C41.8382 106.024 41.7102 106.251 41.5395 106.448C41.3688 106.645 41.1475 106.8 40.8755 106.912C40.6088 107.024 40.2862 107.08 39.9075 107.08ZM39.9075 106.16C40.2542 106.16 40.5075 106.048 40.6675 105.824C40.8328 105.595 40.9182 105.285 40.9235 104.896C40.9342 104.741 40.9395 104.587 40.9395 104.432C40.9395 104.272 40.9395 104.112 40.9395 103.952C40.9395 103.792 40.9342 103.64 40.9235 103.496C40.9182 103.117 40.8328 102.813 40.6675 102.584C40.5075 102.349 40.2542 102.232 39.9075 102.232C39.5662 102.232 39.3128 102.349 39.1475 102.584C38.9875 102.813 38.9022 103.117 38.8915 103.496C38.8915 103.64 38.8888 103.792 38.8835 103.952C38.8835 104.112 38.8835 104.272 38.8835 104.432C38.8888 104.587 38.8915 104.741 38.8915 104.896C38.9022 105.285 38.9902 105.595 39.1555 105.824C39.3208 106.048 39.5715 106.16 39.9075 106.16Z" fill="white"/>
<path d="M27.1118 138.819C27.0531 138.819 27.0051 138.801 26.9678 138.763C26.9358 138.726 26.9198 138.681 26.9198 138.627V138.099C26.9198 138.046 26.9358 138.001 26.9678 137.963C27.0051 137.926 27.0531 137.907 27.1118 137.907H29.5678C29.6211 137.907 29.6664 137.926 29.7038 137.963C29.7411 138.001 29.7598 138.046 29.7598 138.099V138.627C29.7598 138.681 29.7411 138.726 29.7038 138.763C29.6664 138.801 29.6211 138.819 29.5678 138.819H27.1118ZM32.8913 140.843C32.5127 140.843 32.19 140.787 31.9233 140.675C31.6567 140.563 31.438 140.409 31.2673 140.211C31.0967 140.014 30.9687 139.787 30.8833 139.531C30.798 139.27 30.7473 138.993 30.7313 138.699C30.726 138.555 30.7207 138.398 30.7153 138.227C30.7153 138.051 30.7153 137.875 30.7153 137.699C30.7207 137.523 30.726 137.361 30.7313 137.211C30.742 136.918 30.7927 136.643 30.8833 136.387C30.974 136.126 31.1047 135.899 31.2753 135.707C31.4513 135.515 31.6727 135.363 31.9393 135.251C32.206 135.139 32.5233 135.083 32.8913 135.083C33.2647 135.083 33.5847 135.139 33.8513 135.251C34.118 135.363 34.3367 135.515 34.5073 135.707C34.6833 135.899 34.814 136.126 34.8993 136.387C34.99 136.643 35.0407 136.918 35.0513 137.211C35.062 137.361 35.0673 137.523 35.0673 137.699C35.0673 137.875 35.0673 138.051 35.0673 138.227C35.0673 138.398 35.062 138.555 35.0513 138.699C35.0407 138.993 34.9927 139.27 34.9073 139.531C34.822 139.787 34.694 140.014 34.5233 140.211C34.3527 140.409 34.1313 140.563 33.8593 140.675C33.5927 140.787 33.27 140.843 32.8913 140.843ZM32.8913 139.923C33.238 139.923 33.4913 139.811 33.6513 139.587C33.8167 139.358 33.902 139.049 33.9073 138.659C33.918 138.505 33.9233 138.35 33.9233 138.195C33.9233 138.035 33.9233 137.875 33.9233 137.715C33.9233 137.555 33.918 137.403 33.9073 137.259C33.902 136.881 33.8167 136.577 33.6513 136.347C33.4913 136.113 33.238 135.995 32.8913 135.995C32.55 135.995 32.2967 136.113 32.1313 136.347C31.9713 136.577 31.886 136.881 31.8753 137.259C31.8753 137.403 31.8727 137.555 31.8673 137.715C31.8673 137.875 31.8673 138.035 31.8673 138.195C31.8727 138.35 31.8753 138.505 31.8753 138.659C31.886 139.049 31.974 139.358 32.1393 139.587C32.3047 139.811 32.5553 139.923 32.8913 139.923ZM36.1112 140.763C36.0579 140.763 36.0125 140.745 35.9752 140.707C35.9379 140.67 35.9192 140.625 35.9192 140.571V139.779C35.9192 139.721 35.9379 139.673 35.9752 139.635C36.0125 139.598 36.0579 139.579 36.1112 139.579H36.9112C36.9645 139.579 37.0099 139.598 37.0472 139.635C37.0845 139.673 37.1032 139.721 37.1032 139.779V140.571C37.1032 140.625 37.0845 140.67 37.0472 140.707C37.0099 140.745 36.9645 140.763 36.9112 140.763H36.1112ZM40.0278 140.851C39.5692 140.851 39.1825 140.777 38.8678 140.627C38.5532 140.473 38.3132 140.273 38.1478 140.027C37.9878 139.782 37.9025 139.521 37.8918 139.243C37.8865 139.195 37.8998 139.158 37.9318 139.131C37.9692 139.099 38.0118 139.083 38.0598 139.083H38.8038C38.8625 139.083 38.9105 139.097 38.9478 139.123C38.9905 139.145 39.0225 139.185 39.0438 139.243C39.0972 139.403 39.1718 139.534 39.2678 139.635C39.3692 139.737 39.4838 139.811 39.6118 139.859C39.7452 139.907 39.8838 139.931 40.0278 139.931C40.2198 139.931 40.3932 139.894 40.5478 139.819C40.7078 139.739 40.8358 139.622 40.9318 139.467C41.0278 139.313 41.0758 139.123 41.0758 138.899C41.0758 138.702 41.0305 138.531 40.9398 138.387C40.8492 138.243 40.7238 138.131 40.5638 138.051C40.4092 137.966 40.2305 137.923 40.0278 137.923C39.8785 137.923 39.7558 137.942 39.6598 137.979C39.5638 138.017 39.4812 138.059 39.4118 138.107C39.3478 138.155 39.2892 138.198 39.2358 138.235C39.1878 138.273 39.1318 138.291 39.0678 138.291H38.3318C38.2838 138.291 38.2412 138.275 38.2038 138.243C38.1718 138.206 38.1558 138.163 38.1558 138.115L38.4358 135.379C38.4412 135.31 38.4652 135.257 38.5078 135.219C38.5505 135.182 38.6012 135.163 38.6598 135.163H41.6678C41.7212 135.163 41.7665 135.182 41.8038 135.219C41.8412 135.257 41.8598 135.302 41.8598 135.355V135.891C41.8598 135.945 41.8412 135.99 41.8038 136.027C41.7665 136.065 41.7212 136.083 41.6678 136.083H39.3558L39.2278 137.387C39.3238 137.323 39.4518 137.262 39.6118 137.203C39.7718 137.145 39.9932 137.115 40.2758 137.115C40.5318 137.115 40.7745 137.158 41.0038 137.243C41.2385 137.323 41.4465 137.443 41.6278 137.603C41.8092 137.758 41.9505 137.947 42.0518 138.171C42.1585 138.39 42.2118 138.641 42.2118 138.923C42.2118 139.313 42.1212 139.651 41.9398 139.939C41.7585 140.227 41.5052 140.451 41.1798 140.611C40.8545 140.771 40.4705 140.851 40.0278 140.851Z" fill="white"/>
<path d="M353.774 8C353.721 8 353.675 7.98133 353.638 7.944C353.601 7.90667 353.582 7.86133 353.582 7.808V7.4C353.582 7.352 353.593 7.296 353.614 7.232C353.641 7.16267 353.697 7.09333 353.782 7.024L355.046 5.768C355.398 5.49067 355.681 5.256 355.894 5.064C356.113 4.86667 356.27 4.688 356.366 4.528C356.467 4.36267 356.518 4.2 356.518 4.04C356.518 3.8 356.451 3.60533 356.318 3.456C356.19 3.30667 355.985 3.232 355.702 3.232C355.515 3.232 355.358 3.272 355.23 3.352C355.102 3.42667 355.001 3.528 354.926 3.656C354.857 3.784 354.809 3.92533 354.782 4.08C354.771 4.14933 354.742 4.19733 354.694 4.224C354.646 4.25067 354.598 4.264 354.55 4.264H353.838C353.79 4.264 353.75 4.248 353.718 4.216C353.686 4.184 353.67 4.14667 353.67 4.104C353.675 3.87467 353.723 3.65333 353.814 3.44C353.905 3.22133 354.035 3.02933 354.206 2.864C354.382 2.69333 354.595 2.55733 354.846 2.456C355.097 2.35467 355.379 2.304 355.694 2.304C356.137 2.304 356.502 2.37867 356.79 2.528C357.083 2.67733 357.302 2.88 357.446 3.136C357.595 3.392 357.67 3.68 357.67 4C357.67 4.25067 357.622 4.48267 357.526 4.696C357.43 4.904 357.291 5.10667 357.11 5.304C356.929 5.496 356.71 5.69333 356.454 5.896L355.318 7.048H357.598C357.657 7.048 357.702 7.06667 357.734 7.104C357.771 7.136 357.79 7.18133 357.79 7.24V7.808C357.79 7.86133 357.771 7.90667 357.734 7.944C357.702 7.98133 357.657 8 357.598 8H353.774ZM360.799 8.08C360.42 8.08 360.098 8.024 359.831 7.912C359.564 7.8 359.346 7.64533 359.175 7.448C359.004 7.25067 358.876 7.024 358.791 6.768C358.706 6.50667 358.655 6.22933 358.639 5.936C358.634 5.792 358.628 5.63467 358.623 5.464C358.623 5.288 358.623 5.112 358.623 4.936C358.628 4.76 358.634 4.59733 358.639 4.448C358.65 4.15467 358.7 3.88 358.791 3.624C358.882 3.36267 359.012 3.136 359.183 2.944C359.359 2.752 359.58 2.6 359.847 2.488C360.114 2.376 360.431 2.32 360.799 2.32C361.172 2.32 361.492 2.376 361.759 2.488C362.026 2.6 362.244 2.752 362.415 2.944C362.591 3.136 362.722 3.36267 362.807 3.624C362.898 3.88 362.948 4.15467 362.959 4.448C362.97 4.59733 362.975 4.76 362.975 4.936C362.975 5.112 362.975 5.288 362.975 5.464C362.975 5.63467 362.97 5.792 362.959 5.936C362.948 6.22933 362.9 6.50667 362.815 6.768C362.73 7.024 362.602 7.25067 362.431 7.448C362.26 7.64533 362.039 7.8 361.767 7.912C361.5 8.024 361.178 8.08 360.799 8.08ZM360.799 7.16C361.146 7.16 361.399 7.048 361.559 6.824C361.724 6.59467 361.81 6.28533 361.815 5.896C361.826 5.74133 361.831 5.58667 361.831 5.432C361.831 5.272 361.831 5.112 361.831 4.952C361.831 4.792 361.826 4.64 361.815 4.496C361.81 4.11733 361.724 3.81333 361.559 3.584C361.399 3.34933 361.146 3.232 360.799 3.232C360.458 3.232 360.204 3.34933 360.039 3.584C359.879 3.81333 359.794 4.11733 359.783 4.496C359.783 4.64 359.78 4.792 359.775 4.952C359.775 5.112 359.775 5.272 359.775 5.432C359.78 5.58667 359.783 5.74133 359.783 5.896C359.794 6.28533 359.882 6.59467 360.047 6.824C360.212 7.048 360.463 7.16 360.799 7.16ZM366.057 8.08C365.678 8.08 365.356 8.024 365.089 7.912C364.822 7.8 364.604 7.64533 364.433 7.448C364.262 7.25067 364.134 7.024 364.049 6.768C363.964 6.50667 363.913 6.22933 363.897 5.936C363.892 5.792 363.886 5.63467 363.881 5.464C363.881 5.288 363.881 5.112 363.881 4.936C363.886 4.76 363.892 4.59733 363.897 4.448C363.908 4.15467 363.958 3.88 364.049 3.624C364.14 3.36267 364.27 3.136 364.441 2.944C364.617 2.752 364.838 2.6 365.105 2.488C365.372 2.376 365.689 2.32 366.057 2.32C366.43 2.32 366.75 2.376 367.017 2.488C367.284 2.6 367.502 2.752 367.673 2.944C367.849 3.136 367.98 3.36267 368.065 3.624C368.156 3.88 368.206 4.15467 368.217 4.448C368.228 4.59733 368.233 4.76 368.233 4.936C368.233 5.112 368.233 5.288 368.233 5.464C368.233 5.63467 368.228 5.792 368.217 5.936C368.206 6.22933 368.158 6.50667 368.073 6.768C367.988 7.024 367.86 7.25067 367.689 7.448C367.518 7.64533 367.297 7.8 367.025 7.912C366.758 8.024 366.436 8.08 366.057 8.08ZM366.057 7.16C366.404 7.16 366.657 7.048 366.817 6.824C366.982 6.59467 367.068 6.28533 367.073 5.896C367.084 5.74133 367.089 5.58667 367.089 5.432C367.089 5.272 367.089 5.112 367.089 4.952C367.089 4.792 367.084 4.64 367.073 4.496C367.068 4.11733 366.982 3.81333 366.817 3.584C366.657 3.34933 366.404 3.232 366.057 3.232C365.716 3.232 365.462 3.34933 365.297 3.584C365.137 3.81333 365.052 4.11733 365.041 4.496C365.041 4.64 365.038 4.792 365.033 4.952C365.033 5.112 365.033 5.272 365.033 5.432C365.038 5.58667 365.041 5.74133 365.041 5.896C365.052 6.28533 365.14 6.59467 365.305 6.824C365.47 7.048 365.721 7.16 366.057 7.16Z" fill="url(#paint0_linear)" fill-opacity="0.5"/>
<path d="M358.335 40.7422C358.277 40.7422 358.229 40.7235 358.191 40.6862C358.159 40.6489 358.143 40.6035 358.143 40.5502V36.4062L356.927 37.3422C356.879 37.3742 356.831 37.3875 356.783 37.3822C356.735 37.3715 356.693 37.3422 356.655 37.2942L356.319 36.8622C356.287 36.8142 356.274 36.7635 356.279 36.7102C356.29 36.6569 356.319 36.6142 356.367 36.5822L358.159 35.1982C358.191 35.1715 358.223 35.1555 358.255 35.1502C358.287 35.1449 358.322 35.1422 358.359 35.1422H359.063C359.117 35.1422 359.162 35.1609 359.199 35.1982C359.237 35.2355 359.255 35.2809 359.255 35.3342V40.5502C359.255 40.6035 359.237 40.6489 359.199 40.6862C359.162 40.7235 359.117 40.7422 359.063 40.7422H358.335ZM360.982 40.7422C360.934 40.7422 360.894 40.7262 360.862 40.6942C360.83 40.6569 360.814 40.6142 360.814 40.5662C360.814 40.5449 360.82 40.5209 360.83 40.4942L362.758 36.0942H360.246C360.188 36.0942 360.14 36.0755 360.102 36.0382C360.07 36.0009 360.054 35.9555 360.054 35.9022V35.3422C360.054 35.2835 360.07 35.2355 360.102 35.1982C360.14 35.1609 360.188 35.1422 360.246 35.1422H363.758C363.817 35.1422 363.862 35.1609 363.894 35.1982C363.932 35.2355 363.95 35.2835 363.95 35.3422V35.8382C363.95 35.9129 363.942 35.9769 363.926 36.0302C363.916 36.0782 363.9 36.1289 363.878 36.1822L361.966 40.5502C361.95 40.5875 361.921 40.6302 361.878 40.6782C361.841 40.7209 361.785 40.7422 361.71 40.7422H360.982ZM366.614 40.8302C366.156 40.8302 365.769 40.7555 365.454 40.6062C365.14 40.4515 364.9 40.2515 364.734 40.0062C364.574 39.7609 364.489 39.4995 364.478 39.2222C364.473 39.1742 364.486 39.1369 364.518 39.1102C364.556 39.0782 364.598 39.0622 364.646 39.0622H365.39C365.449 39.0622 365.497 39.0755 365.534 39.1022C365.577 39.1235 365.609 39.1635 365.63 39.2222C365.684 39.3822 365.758 39.5129 365.854 39.6142C365.956 39.7155 366.07 39.7902 366.198 39.8382C366.332 39.8862 366.47 39.9102 366.614 39.9102C366.806 39.9102 366.98 39.8729 367.134 39.7982C367.294 39.7182 367.422 39.6009 367.518 39.4462C367.614 39.2915 367.662 39.1022 367.662 38.8782C367.662 38.6809 367.617 38.5102 367.526 38.3662C367.436 38.2222 367.31 38.1102 367.15 38.0302C366.996 37.9449 366.817 37.9022 366.614 37.9022C366.465 37.9022 366.342 37.9209 366.246 37.9582C366.15 37.9955 366.068 38.0382 365.998 38.0862C365.934 38.1342 365.876 38.1769 365.822 38.2142C365.774 38.2515 365.718 38.2702 365.654 38.2702H364.918C364.87 38.2702 364.828 38.2542 364.79 38.2222C364.758 38.1849 364.742 38.1422 364.742 38.0942L365.022 35.3582C365.028 35.2889 365.052 35.2355 365.094 35.1982C365.137 35.1609 365.188 35.1422 365.246 35.1422H368.254C368.308 35.1422 368.353 35.1609 368.39 35.1982C368.428 35.2355 368.446 35.2809 368.446 35.3342V35.8702C368.446 35.9235 368.428 35.9689 368.39 36.0062C368.353 36.0435 368.308 36.0622 368.254 36.0622H365.942L365.814 37.3662C365.91 37.3022 366.038 37.2409 366.198 37.1822C366.358 37.1235 366.58 37.0942 366.862 37.0942C367.118 37.0942 367.361 37.1369 367.59 37.2222C367.825 37.3022 368.033 37.4222 368.214 37.5822C368.396 37.7369 368.537 37.9262 368.638 38.1502C368.745 38.3689 368.798 38.6195 368.798 38.9022C368.798 39.2915 368.708 39.6302 368.526 39.9182C368.345 40.2062 368.092 40.4302 367.766 40.5902C367.441 40.7502 367.057 40.8302 366.614 40.8302Z" fill="url(#paint1_linear)" fill-opacity="0.5"/>
<path d="M357.734 73.9404C357.675 73.9404 357.627 73.9218 357.59 73.8844C357.558 73.8471 357.542 73.8018 357.542 73.7484V69.6044L356.326 70.5404C356.278 70.5724 356.23 70.5858 356.182 70.5804C356.134 70.5698 356.091 70.5404 356.054 70.4924L355.718 70.0604C355.686 70.0124 355.673 69.9618 355.678 69.9084C355.689 69.8551 355.718 69.8124 355.766 69.7804L357.558 68.3964C357.59 68.3698 357.622 68.3538 357.654 68.3484C357.686 68.3431 357.721 68.3404 357.758 68.3404H358.462C358.515 68.3404 358.561 68.3591 358.598 68.3964C358.635 68.4338 358.654 68.4791 358.654 68.5324V73.7484C358.654 73.8018 358.635 73.8471 358.598 73.8844C358.561 73.9218 358.515 73.9404 358.462 73.9404H357.734ZM361.669 74.0284C361.21 74.0284 360.824 73.9538 360.509 73.8044C360.194 73.6498 359.954 73.4498 359.789 73.2044C359.629 72.9591 359.544 72.6978 359.533 72.4204C359.528 72.3724 359.541 72.3351 359.573 72.3084C359.61 72.2764 359.653 72.2604 359.701 72.2604H360.445C360.504 72.2604 360.552 72.2738 360.589 72.3004C360.632 72.3218 360.664 72.3618 360.685 72.4204C360.738 72.5804 360.813 72.7111 360.909 72.8124C361.01 72.9138 361.125 72.9884 361.253 73.0364C361.386 73.0844 361.525 73.1084 361.669 73.1084C361.861 73.1084 362.034 73.0711 362.189 72.9964C362.349 72.9164 362.477 72.7991 362.573 72.6444C362.669 72.4898 362.717 72.3004 362.717 72.0764C362.717 71.8791 362.672 71.7084 362.581 71.5644C362.49 71.4204 362.365 71.3084 362.205 71.2284C362.05 71.1431 361.872 71.1004 361.669 71.1004C361.52 71.1004 361.397 71.1191 361.301 71.1564C361.205 71.1938 361.122 71.2364 361.053 71.2844C360.989 71.3324 360.93 71.3751 360.877 71.4124C360.829 71.4498 360.773 71.4684 360.709 71.4684H359.973C359.925 71.4684 359.882 71.4524 359.845 71.4204C359.813 71.3831 359.797 71.3404 359.797 71.2924L360.077 68.5564C360.082 68.4871 360.106 68.4338 360.149 68.3964C360.192 68.3591 360.242 68.3404 360.301 68.3404H363.309C363.362 68.3404 363.408 68.3591 363.445 68.3964C363.482 68.4338 363.501 68.4791 363.501 68.5324V69.0684C363.501 69.1218 363.482 69.1671 363.445 69.2044C363.408 69.2418 363.362 69.2604 363.309 69.2604H360.997L360.869 70.5644C360.965 70.5004 361.093 70.4391 361.253 70.3804C361.413 70.3218 361.634 70.2924 361.917 70.2924C362.173 70.2924 362.416 70.3351 362.645 70.4204C362.88 70.5004 363.088 70.6204 363.269 70.7804C363.45 70.9351 363.592 71.1244 363.693 71.3484C363.8 71.5671 363.853 71.8178 363.853 72.1004C363.853 72.4898 363.762 72.8284 363.581 73.1164C363.4 73.4044 363.146 73.6284 362.821 73.7884C362.496 73.9484 362.112 74.0284 361.669 74.0284ZM366.806 74.0204C366.427 74.0204 366.105 73.9644 365.838 73.8524C365.571 73.7404 365.353 73.5858 365.182 73.3884C365.011 73.1911 364.883 72.9644 364.798 72.7084C364.713 72.4471 364.662 72.1698 364.646 71.8764C364.641 71.7324 364.635 71.5751 364.63 71.4044C364.63 71.2284 364.63 71.0524 364.63 70.8764C364.635 70.7004 364.641 70.5378 364.646 70.3884C364.657 70.0951 364.707 69.8204 364.798 69.5644C364.889 69.3031 365.019 69.0764 365.19 68.8844C365.366 68.6924 365.587 68.5404 365.854 68.4284C366.121 68.3164 366.438 68.2604 366.806 68.2604C367.179 68.2604 367.499 68.3164 367.766 68.4284C368.033 68.5404 368.251 68.6924 368.422 68.8844C368.598 69.0764 368.729 69.3031 368.814 69.5644C368.905 69.8204 368.955 70.0951 368.966 70.3884C368.977 70.5378 368.982 70.7004 368.982 70.8764C368.982 71.0524 368.982 71.2284 368.982 71.4044C368.982 71.5751 368.977 71.7324 368.966 71.8764C368.955 72.1698 368.907 72.4471 368.822 72.7084C368.737 72.9644 368.609 73.1911 368.438 73.3884C368.267 73.5858 368.046 73.7404 367.774 73.8524C367.507 73.9644 367.185 74.0204 366.806 74.0204ZM366.806 73.1004C367.153 73.1004 367.406 72.9884 367.566 72.7644C367.731 72.5351 367.817 72.2258 367.822 71.8364C367.833 71.6818 367.838 71.5271 367.838 71.3724C367.838 71.2124 367.838 71.0524 367.838 70.8924C367.838 70.7324 367.833 70.5804 367.822 70.4364C367.817 70.0578 367.731 69.7538 367.566 69.5244C367.406 69.2898 367.153 69.1724 366.806 69.1724C366.465 69.1724 366.211 69.2898 366.046 69.5244C365.886 69.7538 365.801 70.0578 365.79 70.4364C365.79 70.5804 365.787 70.7324 365.782 70.8924C365.782 71.0524 365.782 71.2124 365.782 71.3724C365.787 71.5271 365.79 71.6818 365.79 71.8364C365.801 72.2258 365.889 72.5351 366.054 72.7644C366.219 72.9884 366.47 73.1004 366.806 73.1004Z" fill="url(#paint2_linear)" fill-opacity="0.5"/>
<path d="M357.599 107C357.54 107 357.492 106.981 357.455 106.944C357.423 106.907 357.407 106.861 357.407 106.808V102.664L356.191 103.6C356.143 103.632 356.095 103.645 356.047 103.64C355.999 103.629 355.956 103.6 355.919 103.552L355.583 103.12C355.551 103.072 355.537 103.021 355.543 102.968C355.553 102.915 355.583 102.872 355.631 102.84L357.423 101.456C357.455 101.429 357.487 101.413 357.519 101.408C357.551 101.403 357.585 101.4 357.623 101.4H358.327C358.38 101.4 358.425 101.419 358.463 101.456C358.5 101.493 358.519 101.539 358.519 101.592V106.808C358.519 106.861 358.5 106.907 358.463 106.944C358.425 106.981 358.38 107 358.327 107H357.599ZM359.638 107C359.585 107 359.539 106.981 359.502 106.944C359.465 106.907 359.446 106.861 359.446 106.808V106.4C359.446 106.352 359.457 106.296 359.478 106.232C359.505 106.163 359.561 106.093 359.646 106.024L360.91 104.768C361.262 104.491 361.545 104.256 361.758 104.064C361.977 103.867 362.134 103.688 362.23 103.528C362.331 103.363 362.382 103.2 362.382 103.04C362.382 102.8 362.315 102.605 362.182 102.456C362.054 102.307 361.849 102.232 361.566 102.232C361.379 102.232 361.222 102.272 361.094 102.352C360.966 102.427 360.865 102.528 360.79 102.656C360.721 102.784 360.673 102.925 360.646 103.08C360.635 103.149 360.606 103.197 360.558 103.224C360.51 103.251 360.462 103.264 360.414 103.264H359.702C359.654 103.264 359.614 103.248 359.582 103.216C359.55 103.184 359.534 103.147 359.534 103.104C359.539 102.875 359.587 102.653 359.678 102.44C359.769 102.221 359.899 102.029 360.07 101.864C360.246 101.693 360.459 101.557 360.71 101.456C360.961 101.355 361.243 101.304 361.558 101.304C362.001 101.304 362.366 101.379 362.654 101.528C362.947 101.677 363.166 101.88 363.31 102.136C363.459 102.392 363.534 102.68 363.534 103C363.534 103.251 363.486 103.483 363.39 103.696C363.294 103.904 363.155 104.107 362.974 104.304C362.793 104.496 362.574 104.693 362.318 104.896L361.182 106.048H363.462C363.521 106.048 363.566 106.067 363.598 106.104C363.635 106.136 363.654 106.181 363.654 106.24V106.808C363.654 106.861 363.635 106.907 363.598 106.944C363.566 106.981 363.521 107 363.462 107H359.638ZM366.487 107.088C366.028 107.088 365.642 107.013 365.327 106.864C365.012 106.709 364.772 106.509 364.607 106.264C364.447 106.019 364.362 105.757 364.351 105.48C364.346 105.432 364.359 105.395 364.391 105.368C364.428 105.336 364.471 105.32 364.519 105.32H365.263C365.322 105.32 365.37 105.333 365.407 105.36C365.45 105.381 365.482 105.421 365.503 105.48C365.556 105.64 365.631 105.771 365.727 105.872C365.828 105.973 365.943 106.048 366.071 106.096C366.204 106.144 366.343 106.168 366.487 106.168C366.679 106.168 366.852 106.131 367.007 106.056C367.167 105.976 367.295 105.859 367.391 105.704C367.487 105.549 367.535 105.36 367.535 105.136C367.535 104.939 367.49 104.768 367.399 104.624C367.308 104.48 367.183 104.368 367.023 104.288C366.868 104.203 366.69 104.16 366.487 104.16C366.338 104.16 366.215 104.179 366.119 104.216C366.023 104.253 365.94 104.296 365.871 104.344C365.807 104.392 365.748 104.435 365.695 104.472C365.647 104.509 365.591 104.528 365.527 104.528H364.791C364.743 104.528 364.7 104.512 364.663 104.48C364.631 104.443 364.615 104.4 364.615 104.352L364.895 101.616C364.9 101.547 364.924 101.493 364.967 101.456C365.01 101.419 365.06 101.4 365.119 101.4H368.127C368.18 101.4 368.226 101.419 368.263 101.456C368.3 101.493 368.319 101.539 368.319 101.592V102.128C368.319 102.181 368.3 102.227 368.263 102.264C368.226 102.301 368.18 102.32 368.127 102.32H365.815L365.687 103.624C365.783 103.56 365.911 103.499 366.071 103.44C366.231 103.381 366.452 103.352 366.735 103.352C366.991 103.352 367.234 103.395 367.463 103.48C367.698 103.56 367.906 103.68 368.087 103.84C368.268 103.995 368.41 104.184 368.511 104.408C368.618 104.627 368.671 104.877 368.671 105.16C368.671 105.549 368.58 105.888 368.399 106.176C368.218 106.464 367.964 106.688 367.639 106.848C367.314 107.008 366.93 107.088 366.487 107.088Z" fill="url(#paint3_linear)" fill-opacity="0.5"/>
<path d="M356.997 140.763C356.939 140.763 356.891 140.744 356.853 140.707C356.821 140.669 356.805 140.624 356.805 140.571V136.427L355.589 137.363C355.541 137.395 355.493 137.408 355.445 137.403C355.397 137.392 355.355 137.363 355.317 137.315L354.981 136.883C354.949 136.835 354.936 136.784 354.941 136.731C354.952 136.677 354.981 136.635 355.029 136.603L356.821 135.219C356.853 135.192 356.885 135.176 356.917 135.171C356.949 135.165 356.984 135.163 357.021 135.163H357.725C357.779 135.163 357.824 135.181 357.861 135.219C357.899 135.256 357.917 135.301 357.917 135.355V140.571C357.917 140.624 357.899 140.669 357.861 140.707C357.824 140.744 357.779 140.763 357.725 140.763H356.997ZM361.108 140.843C360.73 140.843 360.407 140.787 360.14 140.675C359.874 140.563 359.655 140.408 359.484 140.211C359.314 140.013 359.186 139.787 359.1 139.531C359.015 139.269 358.964 138.992 358.948 138.699C358.943 138.555 358.938 138.397 358.932 138.227C358.932 138.051 358.932 137.875 358.932 137.699C358.938 137.523 358.943 137.36 358.948 137.211C358.959 136.917 359.01 136.643 359.1 136.387C359.191 136.125 359.322 135.899 359.492 135.707C359.668 135.515 359.89 135.363 360.156 135.251C360.423 135.139 360.74 135.083 361.108 135.083C361.482 135.083 361.802 135.139 362.068 135.251C362.335 135.363 362.554 135.515 362.724 135.707C362.9 135.899 363.031 136.125 363.116 136.387C363.207 136.643 363.258 136.917 363.268 137.211C363.279 137.36 363.284 137.523 363.284 137.699C363.284 137.875 363.284 138.051 363.284 138.227C363.284 138.397 363.279 138.555 363.268 138.699C363.258 138.992 363.21 139.269 363.124 139.531C363.039 139.787 362.911 140.013 362.74 140.211C362.57 140.408 362.348 140.563 362.076 140.675C361.81 140.787 361.487 140.843 361.108 140.843ZM361.108 139.923C361.455 139.923 361.708 139.811 361.868 139.587C362.034 139.357 362.119 139.048 362.124 138.659C362.135 138.504 362.14 138.349 362.14 138.195C362.14 138.035 362.14 137.875 362.14 137.715C362.14 137.555 362.135 137.403 362.124 137.259C362.119 136.88 362.034 136.576 361.868 136.347C361.708 136.112 361.455 135.995 361.108 135.995C360.767 135.995 360.514 136.112 360.348 136.347C360.188 136.576 360.103 136.88 360.092 137.259C360.092 137.403 360.09 137.555 360.084 137.715C360.084 137.875 360.084 138.035 360.084 138.195C360.09 138.349 360.092 138.504 360.092 138.659C360.103 139.048 360.191 139.357 360.356 139.587C360.522 139.811 360.772 139.923 361.108 139.923ZM366.366 140.843C365.988 140.843 365.665 140.787 365.398 140.675C365.132 140.563 364.913 140.408 364.742 140.211C364.572 140.013 364.444 139.787 364.358 139.531C364.273 139.269 364.222 138.992 364.206 138.699C364.201 138.555 364.196 138.397 364.19 138.227C364.19 138.051 364.19 137.875 364.19 137.699C364.196 137.523 364.201 137.36 364.206 137.211C364.217 136.917 364.268 136.643 364.358 136.387C364.449 136.125 364.58 135.899 364.75 135.707C364.926 135.515 365.148 135.363 365.414 135.251C365.681 135.139 365.998 135.083 366.366 135.083C366.74 135.083 367.06 135.139 367.326 135.251C367.593 135.363 367.812 135.515 367.982 135.707C368.158 135.899 368.289 136.125 368.374 136.387C368.465 136.643 368.516 136.917 368.526 137.211C368.537 137.36 368.542 137.523 368.542 137.699C368.542 137.875 368.542 138.051 368.542 138.227C368.542 138.397 368.537 138.555 368.526 138.699C368.516 138.992 368.468 139.269 368.382 139.531C368.297 139.787 368.169 140.013 367.998 140.211C367.828 140.408 367.606 140.563 367.334 140.675C367.068 140.787 366.745 140.843 366.366 140.843ZM366.366 139.923C366.713 139.923 366.966 139.811 367.126 139.587C367.292 139.357 367.377 139.048 367.382 138.659C367.393 138.504 367.398 138.349 367.398 138.195C367.398 138.035 367.398 137.875 367.398 137.715C367.398 137.555 367.393 137.403 367.382 137.259C367.377 136.88 367.292 136.576 367.126 136.347C366.966 136.112 366.713 135.995 366.366 135.995C366.025 135.995 365.772 136.112 365.606 136.347C365.446 136.576 365.361 136.88 365.35 137.259C365.35 137.403 365.348 137.555 365.342 137.715C365.342 137.875 365.342 138.035 365.342 138.195C365.348 138.349 365.35 138.504 365.35 138.659C365.361 139.048 365.449 139.357 365.614 139.587C365.78 139.811 366.03 139.923 366.366 139.923Z" fill="url(#paint4_linear)" fill-opacity="0.5"/>
<path d="M43.9199 143.898C73.4601 127.059 116.697 106.583 193.5 70.5C249.413 44.2317 315.901 19.9044 346.535 14" stroke="url(#paint5_linear)" stroke-opacity="0.5"/>
<path d="M120.615 145L120.615 12" stroke="#2F2F49"/>
<path d="M195.557 145L195.557 12" stroke="#2F2F49"/>
<path d="M270.498 145V12" stroke="#2F2F49"/>
<path d="M44.6748 46L347.675 46" stroke="#2F2F49"/>
<path d="M44.6748 79L347.675 79" stroke="#2F2F49"/>
<path d="M44.6748 112L347.675 112" stroke="#2F2F49"/>
<rect x="44.1748" y="12.5" width="303" height="132" stroke="#2F2F49"/>
<path d="M43.6748 79.5C87.6811 79.0136 186.462 80.7857 255 73.9999C305.5 69 321.5 66.9999 347 65" stroke="#6F1571" stroke-linecap="round"/>
<path d="M44 78.5294L45.6436 84.7012C46.0304 86.1535 48.0753 86.1978 48.5245 84.7636L52.5064 72.0514C52.9951 70.4913 55.2724 70.7274 55.4308 72.3545L56.9899 88.3772C57.1104 89.6153 58.882 89.7064 59.1288 88.4871V88.4871C59.3573 87.358 60.9572 87.3195 61.2397 88.4364L61.947 91.2319C62.3004 92.6288 64.2282 92.7725 64.7848 91.4434L68.821 81.8048C69.3332 80.5814 71.0646 80.576 71.5845 81.7962L73.9026 87.2364C74.3626 88.3159 75.8282 88.473 76.5065 87.5154L77.6378 85.9185C78.3013 84.9818 79.728 85.1071 80.2181 86.145L81.4831 88.8236C82.0864 90.1009 83.9597 89.9124 84.2963 88.5404L86.8692 78.0527C87.1407 76.9461 88.7305 76.9952 88.9332 78.1165L89.4831 81.1595C89.6518 82.0934 91.0275 81.9701 91.0275 81.021V81.021C91.0275 80.2579 92.0115 79.9505 92.4459 80.5779L98.5139 89.3415C98.6786 89.5793 98.9085 89.7645 99.176 89.8746L104.309 91.988C105.154 92.3357 106.11 91.8543 106.334 90.9689L108.233 83.4642C108.6 82.0142 110.63 81.9354 111.108 83.3527L113.746 91.1709C114.018 91.977 114.905 92.3958 115.7 92.0936L121.168 90.0153C121.672 89.824 122.239 89.9172 122.655 90.2595L128.341 94.9422C128.815 95.3323 129.479 95.3945 130.017 95.0992L133.031 93.4444C133.809 93.0174 134.785 93.3551 135.133 94.1713L137.502 99.7321C138.065 101.053 139.984 100.904 140.336 99.512L142.316 91.6892C142.564 90.7066 143.696 90.2483 144.558 90.7809L146.403 91.9204C147.068 92.3309 147.936 92.1625 148.399 91.5333L150.497 88.6836C151.241 87.6717 152.826 87.9689 153.153 89.1819L155.794 98.9705C156.183 100.409 158.204 100.463 158.668 99.0464L161.904 89.1627C162.382 87.7029 164.485 87.8197 164.798 89.3235L166.739 98.641C167.048 100.121 169.105 100.267 169.619 98.8449L170.71 95.8259C170.767 95.6685 170.849 95.5219 170.955 95.3919L174.438 91.0892C175.023 90.3664 176.118 90.3448 176.732 91.044L181.674 96.6795C182.415 97.5239 183.786 97.2849 184.198 96.2398L185.831 92.0907C186.357 90.7532 188.281 90.8504 188.67 92.2341L189.655 95.7373C189.985 96.9092 191.499 97.2213 192.265 96.2752L193.423 94.8452C194.18 93.9101 195.674 94.202 196.024 95.3533L196.335 96.378C196.646 97.4018 197.898 97.7803 198.724 97.1002L198.907 96.9491C199.711 96.2876 200.927 96.6252 201.275 97.6063L202.403 100.792C202.942 102.315 205.176 102.027 205.312 100.418L205.969 92.6282C206.102 91.0442 208.285 90.7288 208.861 92.2102L211.095 97.9495C211.588 99.2148 213.374 99.2269 213.883 97.9682L214.107 97.4169C214.479 96.4976 215.625 96.1861 216.411 96.7905L224.275 102.835C224.969 103.368 225.97 103.197 226.447 102.463L229.351 97.9992C230.012 96.9828 231.544 97.1304 231.999 98.2544L233.04 100.826C233.205 101.235 233.542 101.55 233.961 101.688L239.06 103.367C239.83 103.621 240.664 103.216 240.939 102.453L241.7 100.348C242.208 98.9439 244.232 99.0628 244.571 100.517L245.891 106.165C246.226 107.601 248.214 107.742 248.749 106.368L251.651 98.914C252.099 97.7611 253.738 97.7811 254.158 98.9446L254.271 99.2574C254.711 100.475 256.483 100.307 256.688 99.0291V99.0291C256.905 97.6682 258.84 97.6041 259.147 98.9477L260.009 102.719C260.382 104.35 262.742 104.239 262.959 102.579L263.212 100.637C263.427 98.9888 265.765 98.8619 266.157 100.477L266.446 101.666C266.812 103.174 268.947 103.202 269.352 101.703L269.604 100.77C269.856 99.8361 271.06 99.5813 271.668 100.333V100.333C272.143 100.919 273.036 100.919 273.51 100.333L273.818 99.9533C274.414 99.217 275.535 99.2109 276.139 99.9406L278.443 102.724C279.226 103.669 280.752 103.325 281.053 102.135L281.542 100.203C281.901 98.7813 283.878 98.6676 284.398 100.039L285.528 103.016C285.895 103.984 287.11 104.298 287.9 103.629L289.2 102.528C289.871 101.959 290.885 102.088 291.393 102.805L293.487 105.76C293.999 106.483 295.096 106.402 295.496 105.611V105.611C295.902 104.81 297.019 104.74 297.521 105.484L297.609 105.615C298.143 106.405 299.325 106.347 299.778 105.508L301.618 102.099C302.279 100.873 304.109 101.132 304.404 102.493L305.239 106.346C305.597 107.997 307.988 107.888 308.194 106.211L308.82 101.112C309.006 99.5907 311.084 99.2953 311.687 100.704L314.119 106.385C314.701 107.744 316.691 107.53 316.971 106.078L317.569 102.978C317.842 101.559 319.766 101.309 320.393 102.611L322.587 107.162C323.195 108.425 325.048 108.238 325.392 106.879L325.985 104.534C326.099 104.086 326.413 103.715 326.836 103.529L330.199 102.052C330.938 101.727 331.801 102.046 332.152 102.772L335.221 109.111C335.915 110.545 338.071 110.051 338.071 108.458V103.676C338.071 102.618 339.138 101.892 340.122 102.281L347 105" stroke="white" stroke-linecap="round"/>
<defs>
<linearGradient id="paint0_linear" x1="361.983" y1="9.7453e-08" x2="356.676" y2="13.0203" gradientUnits="userSpaceOnUse">
<stop stop-color="#36E2FA"/>
<stop offset="1" stop-color="#368AFA"/>
</linearGradient>
<linearGradient id="paint1_linear" x1="364.655" y1="32.7422" x2="357.898" y2="43.7944" gradientUnits="userSpaceOnUse">
<stop stop-color="#36E2FA"/>
<stop offset="1" stop-color="#368AFA"/>
</linearGradient>
<linearGradient id="paint2_linear" x1="364.521" y1="65.9404" x2="358.074" y2="77.5404" gradientUnits="userSpaceOnUse">
<stop stop-color="#36E2FA"/>
<stop offset="1" stop-color="#368AFA"/>
</linearGradient>
<linearGradient id="paint3_linear" x1="364.231" y1="99" x2="359.985" y2="108.718" gradientUnits="userSpaceOnUse">
<stop stop-color="#36E2FA"/>
<stop offset="1" stop-color="#368AFA"/>
</linearGradient>
<linearGradient id="paint4_linear" x1="363.89" y1="132.763" x2="359.843" y2="142.685" gradientUnits="userSpaceOnUse">
<stop stop-color="#36E2FA"/>
<stop offset="1" stop-color="#368AFA"/>
</linearGradient>
<linearGradient id="paint5_linear" x1="243.446" y1="14" x2="206.518" y2="154.634" gradientUnits="userSpaceOnUse">
<stop stop-color="#36E2FA"/>
<stop offset="1" stop-color="#368AFA"/>
</linearGradient>
</defs>
</svg>
