<svg width="369" height="146" viewBox="0 0 369 146" fill="none" xmlns="http://www.w3.org/2000/svg">
<path d="M0 12.5028L16.7396 12.5028" stroke="#BFB2B2"/>
<path d="M16.7412 145L16.7412 11.9999" stroke="#BFB2B2"/>
<path d="M0 45.5807L16.7396 45.5807" stroke="#BFB2B2"/>
<path d="M0 78.5036L16.7396 78.5036" stroke="#BFB2B2"/>
<path d="M0 111.426L16.7396 111.426" stroke="#BFB2B2"/>
<path d="M0 144.498L16.7396 144.498" stroke="#BFB2B2"/>
<path d="M7.11932 8C7.06065 8 7.01265 7.98133 6.97532 7.944C6.94332 7.90667 6.92732 7.86133 6.92732 7.808V3.664L5.71132 4.6C5.66332 4.632 5.61532 4.64533 5.56732 4.64C5.51932 4.62933 5.47665 4.6 5.43932 4.552L5.10332 4.12C5.07132 4.072 5.05799 4.02133 5.06332 3.968C5.07399 3.91467 5.10332 3.872 5.15132 3.84L6.94332 2.456C6.97532 2.42933 7.00732 2.41333 7.03932 2.408C7.07132 2.40267 7.10599 2.4 7.14332 2.4H7.84732C7.90065 2.4 7.94599 2.41867 7.98332 2.456C8.02065 2.49333 8.03932 2.53867 8.03932 2.592V7.808C8.03932 7.86133 8.02065 7.90667 7.98332 7.944C7.94599 7.98133 7.90065 8 7.84732 8H7.11932ZM11.1584 8.08C10.6998 8.08 10.3051 7.99467 9.97445 7.824C9.64378 7.648 9.38778 7.41333 9.20645 7.12C9.02511 6.82133 8.93445 6.488 8.93445 6.12C8.93445 5.95467 8.95578 5.79467 8.99845 5.64C9.04111 5.48533 9.09711 5.33867 9.16645 5.2C9.23578 5.06133 9.30245 4.93867 9.36645 4.832C9.43578 4.72 9.49711 4.632 9.55045 4.568L11.0144 2.56C11.0358 2.53333 11.0678 2.50133 11.1104 2.464C11.1531 2.42133 11.2118 2.4 11.2864 2.4H12.0304C12.0784 2.4 12.1184 2.41867 12.1504 2.456C12.1824 2.488 12.1984 2.528 12.1984 2.576C12.1984 2.59733 12.1931 2.61867 12.1824 2.64C12.1771 2.656 12.1691 2.66933 12.1584 2.68L11.0384 4.232C11.0864 4.216 11.1424 4.20533 11.2064 4.2C11.2704 4.19467 11.3291 4.192 11.3824 4.192C11.6491 4.19733 11.9024 4.25067 12.1424 4.352C12.3824 4.448 12.5931 4.58133 12.7744 4.752C12.9558 4.92267 13.0971 5.12267 13.1984 5.352C13.3051 5.58133 13.3584 5.832 13.3584 6.104C13.3584 6.456 13.2704 6.784 13.0944 7.088C12.9184 7.38667 12.6651 7.62667 12.3344 7.808C12.0091 7.98933 11.6171 8.08 11.1584 8.08ZM11.1504 7.16C11.3424 7.16 11.5184 7.12 11.6784 7.04C11.8438 6.96 11.9771 6.84267 12.0784 6.688C12.1798 6.53333 12.2304 6.34133 12.2304 6.112C12.2304 5.888 12.1798 5.69867 12.0784 5.544C11.9771 5.38933 11.8438 5.272 11.6784 5.192C11.5184 5.112 11.3424 5.072 11.1504 5.072C10.9584 5.072 10.7798 5.112 10.6144 5.192C10.4544 5.272 10.3238 5.38933 10.2224 5.544C10.1211 5.69867 10.0704 5.888 10.0704 6.112C10.0704 6.34133 10.1211 6.53333 10.2224 6.688C10.3238 6.84267 10.4544 6.96 10.6144 7.04C10.7798 7.12 10.9584 7.16 11.1504 7.16Z" fill="#AAAAAA"/>
<path d="M11.0488 41.08C10.6968 41.08 10.3821 41.0373 10.1048 40.952C9.82747 40.8667 9.5928 40.7467 9.4008 40.592C9.21414 40.4373 9.07014 40.256 8.9688 40.048C8.8728 39.84 8.8248 39.608 8.8248 39.352C8.8248 39.0427 8.89947 38.776 9.0488 38.552C9.20347 38.3227 9.40347 38.1467 9.6488 38.024C9.45147 37.9013 9.2968 37.744 9.1848 37.552C9.07814 37.36 9.0248 37.136 9.0248 36.88C9.0248 36.5707 9.10214 36.3013 9.2568 36.072C9.4168 35.8373 9.64614 35.6533 9.9448 35.52C10.2488 35.3867 10.6168 35.32 11.0488 35.32C11.4808 35.32 11.8461 35.3867 12.1448 35.52C12.4435 35.648 12.6701 35.8293 12.8248 36.064C12.9795 36.2933 13.0568 36.5627 13.0568 36.872C13.0568 37.128 13.0035 37.352 12.8968 37.544C12.7901 37.736 12.6408 37.896 12.4488 38.024C12.6995 38.1413 12.8995 38.3173 13.0488 38.552C13.1981 38.7813 13.2728 39.0507 13.2728 39.36C13.2728 39.696 13.1848 39.9947 13.0088 40.256C12.8381 40.512 12.5848 40.7147 12.2488 40.864C11.9181 41.008 11.5181 41.08 11.0488 41.08ZM11.0488 40.248C11.2568 40.248 11.4435 40.2133 11.6088 40.144C11.7795 40.0693 11.9128 39.9653 12.0088 39.832C12.1101 39.6987 12.1608 39.5413 12.1608 39.36C12.1608 39.1733 12.1101 39.016 12.0088 38.888C11.9128 38.7547 11.7795 38.6533 11.6088 38.584C11.4435 38.5093 11.2568 38.472 11.0488 38.472C10.8408 38.472 10.6515 38.5093 10.4808 38.584C10.3155 38.6533 10.1821 38.7547 10.0808 38.888C9.9848 39.016 9.9368 39.1733 9.9368 39.36C9.9368 39.5413 9.9848 39.6987 10.0808 39.832C10.1821 39.9653 10.3155 40.0693 10.4808 40.144C10.6515 40.2133 10.8408 40.248 11.0488 40.248ZM11.0488 37.68C11.2248 37.6747 11.3848 37.64 11.5288 37.576C11.6781 37.512 11.7955 37.424 11.8808 37.312C11.9715 37.2 12.0168 37.0693 12.0168 36.92C12.0168 36.7653 11.9741 36.632 11.8888 36.52C11.8088 36.4027 11.6941 36.312 11.5448 36.248C11.4008 36.184 11.2355 36.152 11.0488 36.152C10.8621 36.152 10.6941 36.184 10.5448 36.248C10.4008 36.312 10.2861 36.4027 10.2008 36.52C10.1208 36.632 10.0808 36.7653 10.0808 36.92C10.0808 37.0747 10.1208 37.208 10.2008 37.32C10.2861 37.432 10.4008 37.52 10.5448 37.584C10.6941 37.648 10.8621 37.68 11.0488 37.68Z" fill="#AAAAAA"/>
<path d="M10.9287 74.08C10.55 74.08 10.2274 74.024 9.96069 73.912C9.69402 73.8 9.47535 73.6453 9.30469 73.448C9.13402 73.2507 9.00602 73.024 8.92069 72.768C8.83535 72.5067 8.78469 72.2293 8.76869 71.936C8.76335 71.792 8.75802 71.6347 8.75269 71.464C8.75269 71.288 8.75269 71.112 8.75269 70.936C8.75802 70.76 8.76335 70.5973 8.76869 70.448C8.77935 70.1547 8.83002 69.88 8.92069 69.624C9.01135 69.3627 9.14202 69.136 9.31269 68.944C9.48869 68.752 9.71002 68.6 9.97669 68.488C10.2434 68.376 10.5607 68.32 10.9287 68.32C11.302 68.32 11.622 68.376 11.8887 68.488C12.1554 68.6 12.374 68.752 12.5447 68.944C12.7207 69.136 12.8514 69.3627 12.9367 69.624C13.0274 69.88 13.078 70.1547 13.0887 70.448C13.0994 70.5973 13.1047 70.76 13.1047 70.936C13.1047 71.112 13.1047 71.288 13.1047 71.464C13.1047 71.6347 13.0994 71.792 13.0887 71.936C13.078 72.2293 13.03 72.5067 12.9447 72.768C12.8594 73.024 12.7314 73.2507 12.5607 73.448C12.39 73.6453 12.1687 73.8 11.8967 73.912C11.63 74.024 11.3074 74.08 10.9287 74.08ZM10.9287 73.16C11.2754 73.16 11.5287 73.048 11.6887 72.824C11.854 72.5947 11.9394 72.2853 11.9447 71.896C11.9554 71.7413 11.9607 71.5867 11.9607 71.432C11.9607 71.272 11.9607 71.112 11.9607 70.952C11.9607 70.792 11.9554 70.64 11.9447 70.496C11.9394 70.1173 11.854 69.8133 11.6887 69.584C11.5287 69.3493 11.2754 69.232 10.9287 69.232C10.5874 69.232 10.334 69.3493 10.1687 69.584C10.0087 69.8133 9.92335 70.1173 9.91269 70.496C9.91269 70.64 9.91002 70.792 9.90469 70.952C9.90469 71.112 9.90469 71.272 9.90469 71.432C9.91002 71.5867 9.91269 71.7413 9.91269 71.896C9.92335 72.2853 10.0114 72.5947 10.1767 72.824C10.342 73.048 10.5927 73.16 10.9287 73.16Z" fill="#AAAAAA"/>
<path d="M5.90205 105.056C5.84339 105.056 5.79539 105.037 5.75805 105C5.72605 104.963 5.71005 104.917 5.71005 104.864V104.336C5.71005 104.283 5.72605 104.237 5.75805 104.2C5.79539 104.163 5.84339 104.144 5.90205 104.144H8.35805C8.41139 104.144 8.45672 104.163 8.49405 104.2C8.53139 104.237 8.55005 104.283 8.55005 104.336V104.864C8.55005 104.917 8.53139 104.963 8.49405 105C8.45672 105.037 8.41139 105.056 8.35805 105.056H5.90205ZM11.6816 107.08C11.3296 107.08 11.015 107.037 10.7376 106.952C10.4603 106.867 10.2256 106.747 10.0336 106.592C9.84695 106.437 9.70295 106.256 9.60162 106.048C9.50562 105.84 9.45762 105.608 9.45762 105.352C9.45762 105.043 9.53228 104.776 9.68162 104.552C9.83628 104.323 10.0363 104.147 10.2816 104.024C10.0843 103.901 9.92962 103.744 9.81762 103.552C9.71095 103.36 9.65762 103.136 9.65762 102.88C9.65762 102.571 9.73495 102.301 9.88962 102.072C10.0496 101.837 10.279 101.653 10.5776 101.52C10.8816 101.387 11.2496 101.32 11.6816 101.32C12.1136 101.32 12.479 101.387 12.7776 101.52C13.0763 101.648 13.303 101.829 13.4576 102.064C13.6123 102.293 13.6896 102.563 13.6896 102.872C13.6896 103.128 13.6363 103.352 13.5296 103.544C13.423 103.736 13.2736 103.896 13.0816 104.024C13.3323 104.141 13.5323 104.317 13.6816 104.552C13.831 104.781 13.9056 105.051 13.9056 105.36C13.9056 105.696 13.8176 105.995 13.6416 106.256C13.471 106.512 13.2176 106.715 12.8816 106.864C12.551 107.008 12.151 107.08 11.6816 107.08ZM11.6816 106.248C11.8896 106.248 12.0763 106.213 12.2416 106.144C12.4123 106.069 12.5456 105.965 12.6416 105.832C12.743 105.699 12.7936 105.541 12.7936 105.36C12.7936 105.173 12.743 105.016 12.6416 104.888C12.5456 104.755 12.4123 104.653 12.2416 104.584C12.0763 104.509 11.8896 104.472 11.6816 104.472C11.4736 104.472 11.2843 104.509 11.1136 104.584C10.9483 104.653 10.815 104.755 10.7136 104.888C10.6176 105.016 10.5696 105.173 10.5696 105.36C10.5696 105.541 10.6176 105.699 10.7136 105.832C10.815 105.965 10.9483 106.069 11.1136 106.144C11.2843 106.213 11.4736 106.248 11.6816 106.248ZM11.6816 103.68C11.8576 103.675 12.0176 103.64 12.1616 103.576C12.311 103.512 12.4283 103.424 12.5136 103.312C12.6043 103.2 12.6496 103.069 12.6496 102.92C12.6496 102.765 12.607 102.632 12.5216 102.52C12.4416 102.403 12.327 102.312 12.1776 102.248C12.0336 102.184 11.8683 102.152 11.6816 102.152C11.495 102.152 11.327 102.184 11.1776 102.248C11.0336 102.312 10.919 102.403 10.8336 102.52C10.7536 102.632 10.7136 102.765 10.7136 102.92C10.7136 103.075 10.7536 103.208 10.8336 103.32C10.919 103.432 11.0336 103.52 11.1776 103.584C11.327 103.648 11.495 103.68 11.6816 103.68Z" fill="#AAAAAA"/>
<path d="M3.0583 139.056C2.99964 139.056 2.95164 139.037 2.9143 139C2.8823 138.963 2.8663 138.917 2.8663 138.864V138.336C2.8663 138.283 2.8823 138.237 2.9143 138.2C2.95164 138.163 2.99964 138.144 3.0583 138.144H5.5143C5.56764 138.144 5.61297 138.163 5.6503 138.2C5.68764 138.237 5.7063 138.283 5.7063 138.336V138.864C5.7063 138.917 5.68764 138.963 5.6503 139C5.61297 139.037 5.56764 139.056 5.5143 139.056H3.0583ZM8.17205 141C8.11339 141 8.06539 140.981 8.02805 140.944C7.99605 140.907 7.98005 140.861 7.98005 140.808V136.664L6.76405 137.6C6.71605 137.632 6.66805 137.645 6.62005 137.64C6.57205 137.629 6.52939 137.6 6.49205 137.552L6.15605 137.12C6.12405 137.072 6.11072 137.021 6.11605 136.968C6.12672 136.915 6.15605 136.872 6.20405 136.84L7.99605 135.456C8.02805 135.429 8.06005 135.413 8.09205 135.408C8.12405 135.403 8.15872 135.4 8.19605 135.4H8.90005C8.95339 135.4 8.99872 135.419 9.03605 135.456C9.07339 135.493 9.09205 135.539 9.09205 135.592V140.808C9.09205 140.861 9.07339 140.907 9.03605 140.944C8.99872 140.981 8.95339 141 8.90005 141H8.17205ZM12.2112 141.08C11.7525 141.08 11.3578 140.995 11.0272 140.824C10.6965 140.648 10.4405 140.413 10.2592 140.12C10.0778 139.821 9.98718 139.488 9.98718 139.12C9.98718 138.955 10.0085 138.795 10.0512 138.64C10.0938 138.485 10.1498 138.339 10.2192 138.2C10.2885 138.061 10.3552 137.939 10.4192 137.832C10.4885 137.72 10.5498 137.632 10.6032 137.568L12.0672 135.56C12.0885 135.533 12.1205 135.501 12.1632 135.464C12.2058 135.421 12.2645 135.4 12.3392 135.4H13.0832C13.1312 135.4 13.1712 135.419 13.2032 135.456C13.2352 135.488 13.2512 135.528 13.2512 135.576C13.2512 135.597 13.2458 135.619 13.2352 135.64C13.2298 135.656 13.2218 135.669 13.2112 135.68L12.0912 137.232C12.1392 137.216 12.1952 137.205 12.2592 137.2C12.3232 137.195 12.3818 137.192 12.4352 137.192C12.7018 137.197 12.9552 137.251 13.1952 137.352C13.4352 137.448 13.6458 137.581 13.8272 137.752C14.0085 137.923 14.1498 138.123 14.2512 138.352C14.3578 138.581 14.4112 138.832 14.4112 139.104C14.4112 139.456 14.3232 139.784 14.1472 140.088C13.9712 140.387 13.7178 140.627 13.3872 140.808C13.0618 140.989 12.6698 141.08 12.2112 141.08ZM12.2032 140.16C12.3952 140.16 12.5712 140.12 12.7312 140.04C12.8965 139.96 13.0298 139.843 13.1312 139.688C13.2325 139.533 13.2832 139.341 13.2832 139.112C13.2832 138.888 13.2325 138.699 13.1312 138.544C13.0298 138.389 12.8965 138.272 12.7312 138.192C12.5712 138.112 12.3952 138.072 12.2032 138.072C12.0112 138.072 11.8325 138.112 11.6672 138.192C11.5072 138.272 11.3765 138.389 11.2752 138.544C11.1738 138.699 11.1232 138.888 11.1232 139.112C11.1232 139.341 11.1738 139.533 11.2752 139.688C11.3765 139.843 11.5072 139.96 11.6672 140.04C11.8325 140.12 12.0112 140.16 12.2032 140.16Z" fill="#AAAAAA"/>
<path d="M33.9527 8C33.8941 8 33.8461 7.98133 33.8087 7.944C33.7767 7.90667 33.7607 7.86133 33.7607 7.808V3.664L32.5447 4.6C32.4967 4.632 32.4487 4.64533 32.4007 4.64C32.3527 4.62933 32.3101 4.6 32.2727 4.552L31.9367 4.12C31.9047 4.072 31.8914 4.02133 31.8967 3.968C31.9074 3.91467 31.9367 3.872 31.9847 3.84L33.7767 2.456C33.8087 2.42933 33.8407 2.41333 33.8727 2.408C33.9047 2.40267 33.9394 2.4 33.9767 2.4H34.6807C34.7341 2.4 34.7794 2.41867 34.8167 2.456C34.8541 2.49333 34.8727 2.53867 34.8727 2.592V7.808C34.8727 7.86133 34.8541 7.90667 34.8167 7.944C34.7794 7.98133 34.7341 8 34.6807 8H33.9527ZM36.1119 8C36.0585 8 36.0132 7.98133 35.9759 7.944C35.9385 7.90667 35.9199 7.86133 35.9199 7.808V7.016C35.9199 6.95733 35.9385 6.90933 35.9759 6.872C36.0132 6.83467 36.0585 6.816 36.1119 6.816H36.9119C36.9652 6.816 37.0105 6.83467 37.0479 6.872C37.0852 6.90933 37.1039 6.95733 37.1039 7.016V7.808C37.1039 7.86133 37.0852 7.90667 37.0479 7.944C37.0105 7.98133 36.9652 8 36.9119 8H36.1119ZM40.0285 8.088C39.5698 8.088 39.1832 8.01333 38.8685 7.864C38.5538 7.70933 38.3138 7.50933 38.1485 7.264C37.9885 7.01867 37.9032 6.75733 37.8925 6.48C37.8872 6.432 37.9005 6.39467 37.9325 6.368C37.9698 6.336 38.0125 6.32 38.0605 6.32H38.8045C38.8632 6.32 38.9112 6.33333 38.9485 6.36C38.9912 6.38133 39.0232 6.42133 39.0445 6.48C39.0978 6.64 39.1725 6.77067 39.2685 6.872C39.3698 6.97333 39.4845 7.048 39.6125 7.096C39.7458 7.144 39.8845 7.168 40.0285 7.168C40.2205 7.168 40.3938 7.13067 40.5485 7.056C40.7085 6.976 40.8365 6.85867 40.9325 6.704C41.0285 6.54933 41.0765 6.36 41.0765 6.136C41.0765 5.93867 41.0312 5.768 40.9405 5.624C40.8498 5.48 40.7245 5.368 40.5645 5.288C40.4098 5.20267 40.2312 5.16 40.0285 5.16C39.8792 5.16 39.7565 5.17867 39.6605 5.216C39.5645 5.25333 39.4818 5.296 39.4125 5.344C39.3485 5.392 39.2898 5.43467 39.2365 5.472C39.1885 5.50933 39.1325 5.528 39.0685 5.528H38.3325C38.2845 5.528 38.2418 5.512 38.2045 5.48C38.1725 5.44267 38.1565 5.4 38.1565 5.352L38.4365 2.616C38.4418 2.54667 38.4658 2.49333 38.5085 2.456C38.5512 2.41867 38.6018 2.4 38.6605 2.4H41.6685C41.7218 2.4 41.7672 2.41867 41.8045 2.456C41.8418 2.49333 41.8605 2.53867 41.8605 2.592V3.128C41.8605 3.18133 41.8418 3.22667 41.8045 3.264C41.7672 3.30133 41.7218 3.32 41.6685 3.32H39.3565L39.2285 4.624C39.3245 4.56 39.4525 4.49867 39.6125 4.44C39.7725 4.38133 39.9938 4.352 40.2765 4.352C40.5325 4.352 40.7752 4.39467 41.0045 4.48C41.2392 4.56 41.4472 4.68 41.6285 4.84C41.8098 4.99467 41.9512 5.184 42.0525 5.408C42.1592 5.62667 42.2125 5.87733 42.2125 6.16C42.2125 6.54933 42.1218 6.888 41.9405 7.176C41.7592 7.464 41.5058 7.688 41.1805 7.848C40.8552 8.008 40.4712 8.088 40.0285 8.088Z" fill="white"/>
<path d="M41.0538 40.7422C40.9951 40.7422 40.9471 40.7235 40.9098 40.6862C40.8778 40.6489 40.8618 40.6035 40.8618 40.5502V36.4062L39.6458 37.3422C39.5978 37.3742 39.5498 37.3875 39.5018 37.3822C39.4538 37.3715 39.4111 37.3422 39.3738 37.2942L39.0378 36.8622C39.0058 36.8142 38.9924 36.7635 38.9978 36.7102C39.0084 36.6569 39.0378 36.6142 39.0858 36.5822L40.8778 35.1982C40.9098 35.1715 40.9418 35.1555 40.9738 35.1502C41.0058 35.1449 41.0404 35.1422 41.0778 35.1422H41.7818C41.8351 35.1422 41.8804 35.1609 41.9178 35.1982C41.9551 35.2355 41.9738 35.2809 41.9738 35.3342V40.5502C41.9738 40.6035 41.9551 40.6489 41.9178 40.6862C41.8804 40.7235 41.8351 40.7422 41.7818 40.7422H41.0538Z" fill="white"/>
<path d="M32.8914 74.0204C32.5128 74.0204 32.1901 73.9644 31.9234 73.8524C31.6568 73.7404 31.4381 73.5858 31.2674 73.3884C31.0968 73.1911 30.9688 72.9644 30.8834 72.7084C30.7981 72.4471 30.7474 72.1698 30.7314 71.8764C30.7261 71.7324 30.7208 71.5751 30.7154 71.4044C30.7154 71.2284 30.7154 71.0524 30.7154 70.8764C30.7208 70.7004 30.7261 70.5378 30.7314 70.3884C30.7421 70.0951 30.7928 69.8204 30.8834 69.5644C30.9741 69.3031 31.1048 69.0764 31.2754 68.8844C31.4514 68.6924 31.6728 68.5404 31.9394 68.4284C32.2061 68.3164 32.5234 68.2604 32.8914 68.2604C33.2648 68.2604 33.5848 68.3164 33.8514 68.4284C34.1181 68.5404 34.3368 68.6924 34.5074 68.8844C34.6834 69.0764 34.8141 69.3031 34.8994 69.5644C34.9901 69.8204 35.0408 70.0951 35.0514 70.3884C35.0621 70.5378 35.0674 70.7004 35.0674 70.8764C35.0674 71.0524 35.0674 71.2284 35.0674 71.4044C35.0674 71.5751 35.0621 71.7324 35.0514 71.8764C35.0408 72.1698 34.9928 72.4471 34.9074 72.7084C34.8221 72.9644 34.6941 73.1911 34.5234 73.3884C34.3528 73.5858 34.1314 73.7404 33.8594 73.8524C33.5928 73.9644 33.2701 74.0204 32.8914 74.0204ZM32.8914 73.1004C33.2381 73.1004 33.4914 72.9884 33.6514 72.7644C33.8168 72.5351 33.9021 72.2258 33.9074 71.8364C33.9181 71.6818 33.9234 71.5271 33.9234 71.3724C33.9234 71.2124 33.9234 71.0524 33.9234 70.8924C33.9234 70.7324 33.9181 70.5804 33.9074 70.4364C33.9021 70.0578 33.8168 69.7538 33.6514 69.5244C33.4914 69.2898 33.2381 69.1724 32.8914 69.1724C32.5501 69.1724 32.2968 69.2898 32.1314 69.5244C31.9714 69.7538 31.8861 70.0578 31.8754 70.4364C31.8754 70.5804 31.8728 70.7324 31.8674 70.8924C31.8674 71.0524 31.8674 71.2124 31.8674 71.3724C31.8728 71.5271 31.8754 71.6818 31.8754 71.8364C31.8861 72.2258 31.9741 72.5351 32.1394 72.7644C32.3048 72.9884 32.5554 73.1004 32.8914 73.1004ZM36.1113 73.9404C36.058 73.9404 36.0126 73.9218 35.9753 73.8844C35.938 73.8471 35.9193 73.8018 35.9193 73.7484V72.9564C35.9193 72.8978 35.938 72.8498 35.9753 72.8124C36.0126 72.7751 36.058 72.7564 36.1113 72.7564H36.9113C36.9646 72.7564 37.01 72.7751 37.0473 72.8124C37.0846 72.8498 37.1033 72.8978 37.1033 72.9564V73.7484C37.1033 73.8018 37.0846 73.8471 37.0473 73.8844C37.01 73.9218 36.9646 73.9404 36.9113 73.9404H36.1113ZM40.0279 74.0284C39.5693 74.0284 39.1826 73.9538 38.8679 73.8044C38.5533 73.6498 38.3133 73.4498 38.1479 73.2044C37.9879 72.9591 37.9026 72.6978 37.8919 72.4204C37.8866 72.3724 37.8999 72.3351 37.9319 72.3084C37.9693 72.2764 38.0119 72.2604 38.0599 72.2604H38.8039C38.8626 72.2604 38.9106 72.2738 38.9479 72.3004C38.9906 72.3218 39.0226 72.3618 39.0439 72.4204C39.0973 72.5804 39.1719 72.7111 39.2679 72.8124C39.3693 72.9138 39.4839 72.9884 39.6119 73.0364C39.7453 73.0844 39.8839 73.1084 40.0279 73.1084C40.2199 73.1084 40.3933 73.0711 40.5479 72.9964C40.7079 72.9164 40.8359 72.7991 40.9319 72.6444C41.0279 72.4898 41.0759 72.3004 41.0759 72.0764C41.0759 71.8791 41.0306 71.7084 40.9399 71.5644C40.8493 71.4204 40.7239 71.3084 40.5639 71.2284C40.4093 71.1431 40.2306 71.1004 40.0279 71.1004C39.8786 71.1004 39.7559 71.1191 39.6599 71.1564C39.5639 71.1938 39.4813 71.2364 39.4119 71.2844C39.3479 71.3324 39.2893 71.3751 39.2359 71.4124C39.1879 71.4498 39.1319 71.4684 39.0679 71.4684H38.3319C38.2839 71.4684 38.2413 71.4524 38.2039 71.4204C38.1719 71.3831 38.1559 71.3404 38.1559 71.2924L38.4359 68.5564C38.4413 68.4871 38.4653 68.4338 38.5079 68.3964C38.5506 68.3591 38.6013 68.3404 38.6599 68.3404H41.6679C41.7213 68.3404 41.7666 68.3591 41.8039 68.3964C41.8413 68.4338 41.8599 68.4791 41.8599 68.5324V69.0684C41.8599 69.1218 41.8413 69.1671 41.8039 69.2044C41.7666 69.2418 41.7213 69.2604 41.6679 69.2604H39.3559L39.2279 70.5644C39.3239 70.5004 39.4519 70.4391 39.6119 70.3804C39.7719 70.3218 39.9933 70.2924 40.2759 70.2924C40.5319 70.2924 40.7746 70.3351 41.0039 70.4204C41.2386 70.5004 41.4466 70.6204 41.6279 70.7804C41.8093 70.9351 41.9506 71.1244 42.0519 71.3484C42.1586 71.5671 42.2119 71.8178 42.2119 72.1004C42.2119 72.4898 42.1213 72.8284 41.9399 73.1164C41.7586 73.4044 41.5053 73.6284 41.1799 73.7884C40.8546 73.9484 40.4706 74.0284 40.0279 74.0284Z" fill="white"/>
<path d="M39.9075 107.08C39.5288 107.08 39.2062 107.024 38.9395 106.912C38.6728 106.8 38.4542 106.645 38.2835 106.448C38.1128 106.251 37.9848 106.024 37.8995 105.768C37.8142 105.507 37.7635 105.229 37.7475 104.936C37.7422 104.792 37.7368 104.635 37.7315 104.464C37.7315 104.288 37.7315 104.112 37.7315 103.936C37.7368 103.76 37.7422 103.597 37.7475 103.448C37.7582 103.155 37.8088 102.88 37.8995 102.624C37.9902 102.363 38.1208 102.136 38.2915 101.944C38.4675 101.752 38.6888 101.6 38.9555 101.488C39.2222 101.376 39.5395 101.32 39.9075 101.32C40.2808 101.32 40.6008 101.376 40.8675 101.488C41.1342 101.6 41.3528 101.752 41.5235 101.944C41.6995 102.136 41.8302 102.363 41.9155 102.624C42.0062 102.88 42.0568 103.155 42.0675 103.448C42.0782 103.597 42.0835 103.76 42.0835 103.936C42.0835 104.112 42.0835 104.288 42.0835 104.464C42.0835 104.635 42.0782 104.792 42.0675 104.936C42.0568 105.229 42.0088 105.507 41.9235 105.768C41.8382 106.024 41.7102 106.251 41.5395 106.448C41.3688 106.645 41.1475 106.8 40.8755 106.912C40.6088 107.024 40.2862 107.08 39.9075 107.08ZM39.9075 106.16C40.2542 106.16 40.5075 106.048 40.6675 105.824C40.8328 105.595 40.9182 105.285 40.9235 104.896C40.9342 104.741 40.9395 104.587 40.9395 104.432C40.9395 104.272 40.9395 104.112 40.9395 103.952C40.9395 103.792 40.9342 103.64 40.9235 103.496C40.9182 103.117 40.8328 102.813 40.6675 102.584C40.5075 102.349 40.2542 102.232 39.9075 102.232C39.5662 102.232 39.3128 102.349 39.1475 102.584C38.9875 102.813 38.9022 103.117 38.8915 103.496C38.8915 103.64 38.8888 103.792 38.8835 103.952C38.8835 104.112 38.8835 104.272 38.8835 104.432C38.8888 104.587 38.8915 104.741 38.8915 104.896C38.9022 105.285 38.9902 105.595 39.1555 105.824C39.3208 106.048 39.5715 106.16 39.9075 106.16Z" fill="white"/>
<path d="M27.1118 138.819C27.0531 138.819 27.0051 138.801 26.9678 138.763C26.9358 138.726 26.9198 138.681 26.9198 138.627V138.099C26.9198 138.046 26.9358 138.001 26.9678 137.963C27.0051 137.926 27.0531 137.907 27.1118 137.907H29.5678C29.6211 137.907 29.6664 137.926 29.7038 137.963C29.7411 138.001 29.7598 138.046 29.7598 138.099V138.627C29.7598 138.681 29.7411 138.726 29.7038 138.763C29.6664 138.801 29.6211 138.819 29.5678 138.819H27.1118ZM32.8913 140.843C32.5127 140.843 32.19 140.787 31.9233 140.675C31.6567 140.563 31.438 140.409 31.2673 140.211C31.0967 140.014 30.9687 139.787 30.8833 139.531C30.798 139.27 30.7473 138.993 30.7313 138.699C30.726 138.555 30.7207 138.398 30.7153 138.227C30.7153 138.051 30.7153 137.875 30.7153 137.699C30.7207 137.523 30.726 137.361 30.7313 137.211C30.742 136.918 30.7927 136.643 30.8833 136.387C30.974 136.126 31.1047 135.899 31.2753 135.707C31.4513 135.515 31.6727 135.363 31.9393 135.251C32.206 135.139 32.5233 135.083 32.8913 135.083C33.2647 135.083 33.5847 135.139 33.8513 135.251C34.118 135.363 34.3367 135.515 34.5073 135.707C34.6833 135.899 34.814 136.126 34.8993 136.387C34.99 136.643 35.0407 136.918 35.0513 137.211C35.062 137.361 35.0673 137.523 35.0673 137.699C35.0673 137.875 35.0673 138.051 35.0673 138.227C35.0673 138.398 35.062 138.555 35.0513 138.699C35.0407 138.993 34.9927 139.27 34.9073 139.531C34.822 139.787 34.694 140.014 34.5233 140.211C34.3527 140.409 34.1313 140.563 33.8593 140.675C33.5927 140.787 33.27 140.843 32.8913 140.843ZM32.8913 139.923C33.238 139.923 33.4913 139.811 33.6513 139.587C33.8167 139.358 33.902 139.049 33.9073 138.659C33.918 138.505 33.9233 138.35 33.9233 138.195C33.9233 138.035 33.9233 137.875 33.9233 137.715C33.9233 137.555 33.918 137.403 33.9073 137.259C33.902 136.881 33.8167 136.577 33.6513 136.347C33.4913 136.113 33.238 135.995 32.8913 135.995C32.55 135.995 32.2967 136.113 32.1313 136.347C31.9713 136.577 31.886 136.881 31.8753 137.259C31.8753 137.403 31.8727 137.555 31.8673 137.715C31.8673 137.875 31.8673 138.035 31.8673 138.195C31.8727 138.35 31.8753 138.505 31.8753 138.659C31.886 139.049 31.974 139.358 32.1393 139.587C32.3047 139.811 32.5553 139.923 32.8913 139.923ZM36.1112 140.763C36.0579 140.763 36.0125 140.745 35.9752 140.707C35.9379 140.67 35.9192 140.625 35.9192 140.571V139.779C35.9192 139.721 35.9379 139.673 35.9752 139.635C36.0125 139.598 36.0579 139.579 36.1112 139.579H36.9112C36.9645 139.579 37.0099 139.598 37.0472 139.635C37.0845 139.673 37.1032 139.721 37.1032 139.779V140.571C37.1032 140.625 37.0845 140.67 37.0472 140.707C37.0099 140.745 36.9645 140.763 36.9112 140.763H36.1112ZM40.0278 140.851C39.5692 140.851 39.1825 140.777 38.8678 140.627C38.5532 140.473 38.3132 140.273 38.1478 140.027C37.9878 139.782 37.9025 139.521 37.8918 139.243C37.8865 139.195 37.8998 139.158 37.9318 139.131C37.9692 139.099 38.0118 139.083 38.0598 139.083H38.8038C38.8625 139.083 38.9105 139.097 38.9478 139.123C38.9905 139.145 39.0225 139.185 39.0438 139.243C39.0972 139.403 39.1718 139.534 39.2678 139.635C39.3692 139.737 39.4838 139.811 39.6118 139.859C39.7452 139.907 39.8838 139.931 40.0278 139.931C40.2198 139.931 40.3932 139.894 40.5478 139.819C40.7078 139.739 40.8358 139.622 40.9318 139.467C41.0278 139.313 41.0758 139.123 41.0758 138.899C41.0758 138.702 41.0305 138.531 40.9398 138.387C40.8492 138.243 40.7238 138.131 40.5638 138.051C40.4092 137.966 40.2305 137.923 40.0278 137.923C39.8785 137.923 39.7558 137.942 39.6598 137.979C39.5638 138.017 39.4812 138.059 39.4118 138.107C39.3478 138.155 39.2892 138.198 39.2358 138.235C39.1878 138.273 39.1318 138.291 39.0678 138.291H38.3318C38.2838 138.291 38.2412 138.275 38.2038 138.243C38.1718 138.206 38.1558 138.163 38.1558 138.115L38.4358 135.379C38.4412 135.31 38.4652 135.257 38.5078 135.219C38.5505 135.182 38.6012 135.163 38.6598 135.163H41.6678C41.7212 135.163 41.7665 135.182 41.8038 135.219C41.8412 135.257 41.8598 135.302 41.8598 135.355V135.891C41.8598 135.945 41.8412 135.99 41.8038 136.027C41.7665 136.065 41.7212 136.083 41.6678 136.083H39.3558L39.2278 137.387C39.3238 137.323 39.4518 137.262 39.6118 137.203C39.7718 137.145 39.9932 137.115 40.2758 137.115C40.5318 137.115 40.7745 137.158 41.0038 137.243C41.2385 137.323 41.4465 137.443 41.6278 137.603C41.8092 137.758 41.9505 137.947 42.0518 138.171C42.1585 138.39 42.2118 138.641 42.2118 138.923C42.2118 139.313 42.1212 139.651 41.9398 139.939C41.7585 140.227 41.5052 140.451 41.1798 140.611C40.8545 140.771 40.4705 140.851 40.0278 140.851Z" fill="white"/>
<path d="M353.715 8C353.662 8 353.617 7.98133 353.579 7.944C353.542 7.90667 353.523 7.86133 353.523 7.808V7.4C353.523 7.352 353.534 7.296 353.555 7.232C353.582 7.16267 353.638 7.09333 353.723 7.024L354.987 5.768C355.339 5.49067 355.622 5.256 355.835 5.064C356.054 4.86667 356.211 4.688 356.307 4.528C356.409 4.36267 356.459 4.2 356.459 4.04C356.459 3.8 356.393 3.60533 356.259 3.456C356.131 3.30667 355.926 3.232 355.643 3.232C355.457 3.232 355.299 3.272 355.171 3.352C355.043 3.42667 354.942 3.528 354.867 3.656C354.798 3.784 354.75 3.92533 354.723 4.08C354.713 4.14933 354.683 4.19733 354.635 4.224C354.587 4.25067 354.539 4.264 354.491 4.264H353.779C353.731 4.264 353.691 4.248 353.659 4.216C353.627 4.184 353.611 4.14667 353.611 4.104C353.617 3.87467 353.665 3.65333 353.755 3.44C353.846 3.22133 353.977 3.02933 354.147 2.864C354.323 2.69333 354.537 2.55733 354.787 2.456C355.038 2.35467 355.321 2.304 355.635 2.304C356.078 2.304 356.443 2.37867 356.731 2.528C357.025 2.67733 357.243 2.88 357.387 3.136C357.537 3.392 357.611 3.68 357.611 4C357.611 4.25067 357.563 4.48267 357.467 4.696C357.371 4.904 357.233 5.10667 357.051 5.304C356.87 5.496 356.651 5.69333 356.395 5.896L355.259 7.048H357.539C357.598 7.048 357.643 7.06667 357.675 7.104C357.713 7.136 357.731 7.18133 357.731 7.24V7.808C357.731 7.86133 357.713 7.90667 357.675 7.944C357.643 7.98133 357.598 8 357.539 8H353.715ZM360.741 8.08C360.362 8.08 360.039 8.024 359.773 7.912C359.506 7.8 359.287 7.64533 359.117 7.448C358.946 7.25067 358.818 7.024 358.733 6.768C358.647 6.50667 358.597 6.22933 358.581 5.936C358.575 5.792 358.57 5.63467 358.565 5.464C358.565 5.288 358.565 5.112 358.565 4.936C358.57 4.76 358.575 4.59733 358.581 4.448C358.591 4.15467 358.642 3.88 358.733 3.624C358.823 3.36267 358.954 3.136 359.125 2.944C359.301 2.752 359.522 2.6 359.789 2.488C360.055 2.376 360.373 2.32 360.741 2.32C361.114 2.32 361.434 2.376 361.701 2.488C361.967 2.6 362.186 2.752 362.357 2.944C362.533 3.136 362.663 3.36267 362.749 3.624C362.839 3.88 362.89 4.15467 362.901 4.448C362.911 4.59733 362.917 4.76 362.917 4.936C362.917 5.112 362.917 5.288 362.917 5.464C362.917 5.63467 362.911 5.792 362.901 5.936C362.89 6.22933 362.842 6.50667 362.757 6.768C362.671 7.024 362.543 7.25067 362.373 7.448C362.202 7.64533 361.981 7.8 361.709 7.912C361.442 8.024 361.119 8.08 360.741 8.08ZM360.741 7.16C361.087 7.16 361.341 7.048 361.501 6.824C361.666 6.59467 361.751 6.28533 361.757 5.896C361.767 5.74133 361.773 5.58667 361.773 5.432C361.773 5.272 361.773 5.112 361.773 4.952C361.773 4.792 361.767 4.64 361.757 4.496C361.751 4.11733 361.666 3.81333 361.501 3.584C361.341 3.34933 361.087 3.232 360.741 3.232C360.399 3.232 360.146 3.34933 359.981 3.584C359.821 3.81333 359.735 4.11733 359.725 4.496C359.725 4.64 359.722 4.792 359.717 4.952C359.717 5.112 359.717 5.272 359.717 5.432C359.722 5.58667 359.725 5.74133 359.725 5.896C359.735 6.28533 359.823 6.59467 359.989 6.824C360.154 7.048 360.405 7.16 360.741 7.16ZM365.998 8.08C365.62 8.08 365.297 8.024 365.03 7.912C364.764 7.8 364.545 7.64533 364.374 7.448C364.204 7.25067 364.076 7.024 363.99 6.768C363.905 6.50667 363.854 6.22933 363.838 5.936C363.833 5.792 363.828 5.63467 363.822 5.464C363.822 5.288 363.822 5.112 363.822 4.936C363.828 4.76 363.833 4.59733 363.838 4.448C363.849 4.15467 363.9 3.88 363.99 3.624C364.081 3.36267 364.212 3.136 364.382 2.944C364.558 2.752 364.78 2.6 365.046 2.488C365.313 2.376 365.63 2.32 365.998 2.32C366.372 2.32 366.692 2.376 366.958 2.488C367.225 2.6 367.444 2.752 367.614 2.944C367.79 3.136 367.921 3.36267 368.006 3.624C368.097 3.88 368.148 4.15467 368.158 4.448C368.169 4.59733 368.174 4.76 368.174 4.936C368.174 5.112 368.174 5.288 368.174 5.464C368.174 5.63467 368.169 5.792 368.158 5.936C368.148 6.22933 368.1 6.50667 368.014 6.768C367.929 7.024 367.801 7.25067 367.63 7.448C367.46 7.64533 367.238 7.8 366.966 7.912C366.7 8.024 366.377 8.08 365.998 8.08ZM365.998 7.16C366.345 7.16 366.598 7.048 366.758 6.824C366.924 6.59467 367.009 6.28533 367.014 5.896C367.025 5.74133 367.03 5.58667 367.03 5.432C367.03 5.272 367.03 5.112 367.03 4.952C367.03 4.792 367.025 4.64 367.014 4.496C367.009 4.11733 366.924 3.81333 366.758 3.584C366.598 3.34933 366.345 3.232 365.998 3.232C365.657 3.232 365.404 3.34933 365.238 3.584C365.078 3.81333 364.993 4.11733 364.982 4.496C364.982 4.64 364.98 4.792 364.974 4.952C364.974 5.112 364.974 5.272 364.974 5.432C364.98 5.58667 364.982 5.74133 364.982 5.896C364.993 6.28533 365.081 6.59467 365.246 6.824C365.412 7.048 365.662 7.16 365.998 7.16Z" fill="url(#paint0_linear)" fill-opacity="0.5"/>
<path d="M357.839 40.7422C357.781 40.7422 357.733 40.7235 357.695 40.6862C357.663 40.6489 357.647 40.6035 357.647 40.5502V36.4062L356.431 37.3422C356.383 37.3742 356.335 37.3875 356.287 37.3822C356.239 37.3715 356.197 37.3422 356.159 37.2942L355.823 36.8622C355.791 36.8142 355.778 36.7635 355.783 36.7102C355.794 36.6569 355.823 36.6142 355.871 36.5822L357.663 35.1982C357.695 35.1715 357.727 35.1555 357.759 35.1502C357.791 35.1449 357.826 35.1422 357.863 35.1422H358.567C358.621 35.1422 358.666 35.1609 358.703 35.1982C358.741 35.2355 358.759 35.2809 358.759 35.3342V40.5502C358.759 40.6035 358.741 40.6489 358.703 40.6862C358.666 40.7235 358.621 40.7422 358.567 40.7422H357.839ZM360.486 40.7422C360.438 40.7422 360.398 40.7262 360.366 40.6942C360.334 40.6569 360.318 40.6142 360.318 40.5662C360.318 40.5449 360.324 40.5209 360.334 40.4942L362.262 36.0942H359.75C359.692 36.0942 359.644 36.0755 359.606 36.0382C359.574 36.0009 359.558 35.9555 359.558 35.9022V35.3422C359.558 35.2835 359.574 35.2355 359.606 35.1982C359.644 35.1609 359.692 35.1422 359.75 35.1422H363.262C363.321 35.1422 363.366 35.1609 363.398 35.1982C363.436 35.2355 363.454 35.2835 363.454 35.3422V35.8382C363.454 35.9129 363.446 35.9769 363.43 36.0302C363.42 36.0782 363.404 36.1289 363.382 36.1822L361.47 40.5502C361.454 40.5875 361.425 40.6302 361.382 40.6782C361.345 40.7209 361.289 40.7422 361.214 40.7422H360.486ZM366.118 40.8302C365.659 40.8302 365.273 40.7555 364.958 40.6062C364.643 40.4515 364.403 40.2515 364.238 40.0062C364.078 39.7609 363.993 39.4995 363.982 39.2222C363.977 39.1742 363.99 39.1369 364.022 39.1102C364.059 39.0782 364.102 39.0622 364.15 39.0622H364.894C364.953 39.0622 365.001 39.0755 365.038 39.1022C365.081 39.1235 365.113 39.1635 365.134 39.2222C365.187 39.3822 365.262 39.5129 365.358 39.6142C365.459 39.7155 365.574 39.7902 365.702 39.8382C365.835 39.8862 365.974 39.9102 366.118 39.9102C366.31 39.9102 366.483 39.8729 366.638 39.7982C366.798 39.7182 366.926 39.6009 367.022 39.4462C367.118 39.2915 367.166 39.1022 367.166 38.8782C367.166 38.6809 367.121 38.5102 367.03 38.3662C366.939 38.2222 366.814 38.1102 366.654 38.0302C366.499 37.9449 366.321 37.9022 366.118 37.9022C365.969 37.9022 365.846 37.9209 365.75 37.9582C365.654 37.9955 365.571 38.0382 365.502 38.0862C365.438 38.1342 365.379 38.1769 365.326 38.2142C365.278 38.2515 365.222 38.2702 365.158 38.2702H364.422C364.374 38.2702 364.331 38.2542 364.294 38.2222C364.262 38.1849 364.246 38.1422 364.246 38.0942L364.526 35.3582C364.531 35.2889 364.555 35.2355 364.598 35.1982C364.641 35.1609 364.691 35.1422 364.75 35.1422H367.758C367.811 35.1422 367.857 35.1609 367.894 35.1982C367.931 35.2355 367.95 35.2809 367.95 35.3342V35.8702C367.95 35.9235 367.931 35.9689 367.894 36.0062C367.857 36.0435 367.811 36.0622 367.758 36.0622H365.446L365.318 37.3662C365.414 37.3022 365.542 37.2409 365.702 37.1822C365.862 37.1235 366.083 37.0942 366.366 37.0942C366.622 37.0942 366.865 37.1369 367.094 37.2222C367.329 37.3022 367.537 37.4222 367.718 37.5822C367.899 37.7369 368.041 37.9262 368.142 38.1502C368.249 38.3689 368.302 38.6195 368.302 38.9022C368.302 39.2915 368.211 39.6302 368.03 39.9182C367.849 40.2062 367.595 40.4302 367.27 40.5902C366.945 40.7502 366.561 40.8302 366.118 40.8302Z" fill="url(#paint1_linear)" fill-opacity="0.5"/>
<path d="M356.925 73.9404C356.867 73.9404 356.819 73.9218 356.781 73.8844C356.749 73.8471 356.733 73.8018 356.733 73.7484V69.6044L355.517 70.5404C355.469 70.5724 355.421 70.5858 355.373 70.5804C355.325 70.5698 355.283 70.5404 355.245 70.4924L354.909 70.0604C354.877 70.0124 354.864 69.9618 354.869 69.9084C354.88 69.8551 354.909 69.8124 354.957 69.7804L356.749 68.3964C356.781 68.3698 356.813 68.3538 356.845 68.3484C356.877 68.3431 356.912 68.3404 356.949 68.3404H357.653C357.707 68.3404 357.752 68.3591 357.789 68.3964C357.827 68.4338 357.845 68.4791 357.845 68.5324V73.7484C357.845 73.8018 357.827 73.8471 357.789 73.8844C357.752 73.9218 357.707 73.9404 357.653 73.9404H356.925ZM360.861 74.0284C360.402 74.0284 360.015 73.9538 359.701 73.8044C359.386 73.6498 359.146 73.4498 358.981 73.2044C358.821 72.9591 358.735 72.6978 358.725 72.4204C358.719 72.3724 358.733 72.3351 358.765 72.3084C358.802 72.2764 358.845 72.2604 358.893 72.2604H359.637C359.695 72.2604 359.743 72.2738 359.781 72.3004C359.823 72.3218 359.855 72.3618 359.877 72.4204C359.93 72.5804 360.005 72.7111 360.101 72.8124C360.202 72.9138 360.317 72.9884 360.445 73.0364C360.578 73.0844 360.717 73.1084 360.861 73.1084C361.053 73.1084 361.226 73.0711 361.381 72.9964C361.541 72.9164 361.669 72.7991 361.765 72.6444C361.861 72.4898 361.909 72.3004 361.909 72.0764C361.909 71.8791 361.863 71.7084 361.773 71.5644C361.682 71.4204 361.557 71.3084 361.397 71.2284C361.242 71.1431 361.063 71.1004 360.861 71.1004C360.711 71.1004 360.589 71.1191 360.493 71.1564C360.397 71.1938 360.314 71.2364 360.245 71.2844C360.181 71.3324 360.122 71.3751 360.069 71.4124C360.021 71.4498 359.965 71.4684 359.901 71.4684H359.165C359.117 71.4684 359.074 71.4524 359.037 71.4204C359.005 71.3831 358.989 71.3404 358.989 71.2924L359.269 68.5564C359.274 68.4871 359.298 68.4338 359.341 68.3964C359.383 68.3591 359.434 68.3404 359.493 68.3404H362.501C362.554 68.3404 362.599 68.3591 362.637 68.3964C362.674 68.4338 362.693 68.4791 362.693 68.5324V69.0684C362.693 69.1218 362.674 69.1671 362.637 69.2044C362.599 69.2418 362.554 69.2604 362.501 69.2604H360.189L360.061 70.5644C360.157 70.5004 360.285 70.4391 360.445 70.3804C360.605 70.3218 360.826 70.2924 361.109 70.2924C361.365 70.2924 361.607 70.3351 361.837 70.4204C362.071 70.5004 362.279 70.6204 362.461 70.7804C362.642 70.9351 362.783 71.1244 362.885 71.3484C362.991 71.5671 363.045 71.8178 363.045 72.1004C363.045 72.4898 362.954 72.8284 362.773 73.1164C362.591 73.4044 362.338 73.6284 362.013 73.7884C361.687 73.9484 361.303 74.0284 360.861 74.0284ZM365.997 74.0204C365.619 74.0204 365.296 73.9644 365.029 73.8524C364.763 73.7404 364.544 73.5858 364.373 73.3884C364.203 73.1911 364.075 72.9644 363.989 72.7084C363.904 72.4471 363.853 72.1698 363.837 71.8764C363.832 71.7324 363.827 71.5751 363.821 71.4044C363.821 71.2284 363.821 71.0524 363.821 70.8764C363.827 70.7004 363.832 70.5378 363.837 70.3884C363.848 70.0951 363.899 69.8204 363.989 69.5644C364.08 69.3031 364.211 69.0764 364.381 68.8844C364.557 68.6924 364.779 68.5404 365.045 68.4284C365.312 68.3164 365.629 68.2604 365.997 68.2604C366.371 68.2604 366.691 68.3164 366.957 68.4284C367.224 68.5404 367.443 68.6924 367.613 68.8844C367.789 69.0764 367.92 69.3031 368.005 69.5644C368.096 69.8204 368.147 70.0951 368.157 70.3884C368.168 70.5378 368.173 70.7004 368.173 70.8764C368.173 71.0524 368.173 71.2284 368.173 71.4044C368.173 71.5751 368.168 71.7324 368.157 71.8764C368.147 72.1698 368.099 72.4471 368.013 72.7084C367.928 72.9644 367.8 73.1911 367.629 73.3884C367.459 73.5858 367.237 73.7404 366.965 73.8524C366.699 73.9644 366.376 74.0204 365.997 74.0204ZM365.997 73.1004C366.344 73.1004 366.597 72.9884 366.757 72.7644C366.923 72.5351 367.008 72.2258 367.013 71.8364C367.024 71.6818 367.029 71.5271 367.029 71.3724C367.029 71.2124 367.029 71.0524 367.029 70.8924C367.029 70.7324 367.024 70.5804 367.013 70.4364C367.008 70.0578 366.923 69.7538 366.757 69.5244C366.597 69.2898 366.344 69.1724 365.997 69.1724C365.656 69.1724 365.403 69.2898 365.237 69.5244C365.077 69.7538 364.992 70.0578 364.981 70.4364C364.981 70.5804 364.979 70.7324 364.973 70.8924C364.973 71.0524 364.973 71.2124 364.973 71.3724C364.979 71.5271 364.981 71.6818 364.981 71.8364C364.992 72.2258 365.08 72.5351 365.245 72.7644C365.411 72.9884 365.661 73.1004 365.997 73.1004Z" fill="url(#paint2_linear)" fill-opacity="0.5"/>
<path d="M357.103 107C357.044 107 356.996 106.981 356.959 106.944C356.927 106.907 356.911 106.861 356.911 106.808V102.664L355.695 103.6C355.647 103.632 355.599 103.645 355.551 103.64C355.503 103.629 355.46 103.6 355.423 103.552L355.087 103.12C355.055 103.072 355.041 103.021 355.047 102.968C355.057 102.915 355.087 102.872 355.135 102.84L356.927 101.456C356.959 101.429 356.991 101.413 357.023 101.408C357.055 101.403 357.089 101.4 357.127 101.4H357.831C357.884 101.4 357.929 101.419 357.967 101.456C358.004 101.493 358.023 101.539 358.023 101.592V106.808C358.023 106.861 358.004 106.907 357.967 106.944C357.929 106.981 357.884 107 357.831 107H357.103ZM359.142 107C359.089 107 359.043 106.981 359.006 106.944C358.969 106.907 358.95 106.861 358.95 106.808V106.4C358.95 106.352 358.961 106.296 358.982 106.232C359.009 106.163 359.065 106.093 359.15 106.024L360.414 104.768C360.766 104.491 361.049 104.256 361.262 104.064C361.481 103.867 361.638 103.688 361.734 103.528C361.835 103.363 361.886 103.2 361.886 103.04C361.886 102.8 361.819 102.605 361.686 102.456C361.558 102.307 361.353 102.232 361.07 102.232C360.883 102.232 360.726 102.272 360.598 102.352C360.47 102.427 360.369 102.528 360.294 102.656C360.225 102.784 360.177 102.925 360.15 103.08C360.139 103.149 360.11 103.197 360.062 103.224C360.014 103.251 359.966 103.264 359.918 103.264H359.206C359.158 103.264 359.118 103.248 359.086 103.216C359.054 103.184 359.038 103.147 359.038 103.104C359.043 102.875 359.091 102.653 359.182 102.44C359.273 102.221 359.403 102.029 359.574 101.864C359.75 101.693 359.963 101.557 360.214 101.456C360.465 101.355 360.747 101.304 361.062 101.304C361.505 101.304 361.87 101.379 362.158 101.528C362.451 101.677 362.67 101.88 362.814 102.136C362.963 102.392 363.038 102.68 363.038 103C363.038 103.251 362.99 103.483 362.894 103.696C362.798 103.904 362.659 104.107 362.478 104.304C362.297 104.496 362.078 104.693 361.822 104.896L360.686 106.048H362.966C363.025 106.048 363.07 106.067 363.102 106.104C363.139 106.136 363.158 106.181 363.158 106.24V106.808C363.158 106.861 363.139 106.907 363.102 106.944C363.07 106.981 363.025 107 362.966 107H359.142ZM365.991 107.088C365.532 107.088 365.146 107.013 364.831 106.864C364.516 106.709 364.276 106.509 364.111 106.264C363.951 106.019 363.866 105.757 363.855 105.48C363.85 105.432 363.863 105.395 363.895 105.368C363.932 105.336 363.975 105.32 364.023 105.32H364.767C364.826 105.32 364.874 105.333 364.911 105.36C364.954 105.381 364.986 105.421 365.007 105.48C365.06 105.64 365.135 105.771 365.231 105.872C365.332 105.973 365.447 106.048 365.575 106.096C365.708 106.144 365.847 106.168 365.991 106.168C366.183 106.168 366.356 106.131 366.511 106.056C366.671 105.976 366.799 105.859 366.895 105.704C366.991 105.549 367.039 105.36 367.039 105.136C367.039 104.939 366.994 104.768 366.903 104.624C366.812 104.48 366.687 104.368 366.527 104.288C366.372 104.203 366.194 104.16 365.991 104.16C365.842 104.16 365.719 104.179 365.623 104.216C365.527 104.253 365.444 104.296 365.375 104.344C365.311 104.392 365.252 104.435 365.199 104.472C365.151 104.509 365.095 104.528 365.031 104.528H364.295C364.247 104.528 364.204 104.512 364.167 104.48C364.135 104.443 364.119 104.4 364.119 104.352L364.399 101.616C364.404 101.547 364.428 101.493 364.471 101.456C364.514 101.419 364.564 101.4 364.623 101.4H367.631C367.684 101.4 367.73 101.419 367.767 101.456C367.804 101.493 367.823 101.539 367.823 101.592V102.128C367.823 102.181 367.804 102.227 367.767 102.264C367.73 102.301 367.684 102.32 367.631 102.32H365.319L365.191 103.624C365.287 103.56 365.415 103.499 365.575 103.44C365.735 103.381 365.956 103.352 366.239 103.352C366.495 103.352 366.738 103.395 366.967 103.48C367.202 103.56 367.41 103.68 367.591 103.84C367.772 103.995 367.914 104.184 368.015 104.408C368.122 104.627 368.175 104.877 368.175 105.16C368.175 105.549 368.084 105.888 367.903 106.176C367.722 106.464 367.468 106.688 367.143 106.848C366.818 107.008 366.434 107.088 365.991 107.088Z" fill="url(#paint3_linear)" fill-opacity="0.5"/>
<path d="M355.753 140.763C355.694 140.763 355.646 140.744 355.609 140.707C355.577 140.669 355.561 140.624 355.561 140.571V136.427L354.345 137.363C354.297 137.395 354.249 137.408 354.201 137.403C354.153 137.392 354.11 137.363 354.073 137.315L353.737 136.883C353.705 136.835 353.692 136.784 353.697 136.731C353.708 136.677 353.737 136.635 353.785 136.603L355.577 135.219C355.609 135.192 355.641 135.176 355.673 135.171C355.705 135.165 355.74 135.163 355.777 135.163H356.481C356.534 135.163 356.58 135.181 356.617 135.219C356.654 135.256 356.673 135.301 356.673 135.355V140.571C356.673 140.624 356.654 140.669 356.617 140.707C356.58 140.744 356.534 140.763 356.481 140.763H355.753ZM359.864 140.843C359.486 140.843 359.163 140.787 358.896 140.675C358.63 140.563 358.411 140.408 358.24 140.211C358.07 140.013 357.942 139.787 357.856 139.531C357.771 139.269 357.72 138.992 357.704 138.699C357.699 138.555 357.694 138.397 357.688 138.227C357.688 138.051 357.688 137.875 357.688 137.699C357.694 137.523 357.699 137.36 357.704 137.211C357.715 136.917 357.766 136.643 357.856 136.387C357.947 136.125 358.078 135.899 358.248 135.707C358.424 135.515 358.646 135.363 358.912 135.251C359.179 135.139 359.496 135.083 359.864 135.083C360.238 135.083 360.558 135.139 360.824 135.251C361.091 135.363 361.31 135.515 361.48 135.707C361.656 135.899 361.787 136.125 361.872 136.387C361.963 136.643 362.014 136.917 362.024 137.211C362.035 137.36 362.04 137.523 362.04 137.699C362.04 137.875 362.04 138.051 362.04 138.227C362.04 138.397 362.035 138.555 362.024 138.699C362.014 138.992 361.966 139.269 361.88 139.531C361.795 139.787 361.667 140.013 361.496 140.211C361.326 140.408 361.104 140.563 360.832 140.675C360.566 140.787 360.243 140.843 359.864 140.843ZM359.864 139.923C360.211 139.923 360.464 139.811 360.624 139.587C360.79 139.357 360.875 139.048 360.88 138.659C360.891 138.504 360.896 138.349 360.896 138.195C360.896 138.035 360.896 137.875 360.896 137.715C360.896 137.555 360.891 137.403 360.88 137.259C360.875 136.88 360.79 136.576 360.624 136.347C360.464 136.112 360.211 135.995 359.864 135.995C359.523 135.995 359.27 136.112 359.104 136.347C358.944 136.576 358.859 136.88 358.848 137.259C358.848 137.403 358.846 137.555 358.84 137.715C358.84 137.875 358.84 138.035 358.84 138.195C358.846 138.349 358.848 138.504 358.848 138.659C358.859 139.048 358.947 139.357 359.112 139.587C359.278 139.811 359.528 139.923 359.864 139.923ZM365.122 140.843C364.743 140.843 364.421 140.787 364.154 140.675C363.887 140.563 363.669 140.408 363.498 140.211C363.327 140.013 363.199 139.787 363.114 139.531C363.029 139.269 362.978 138.992 362.962 138.699C362.957 138.555 362.951 138.397 362.946 138.227C362.946 138.051 362.946 137.875 362.946 137.699C362.951 137.523 362.957 137.36 362.962 137.211C362.973 136.917 363.023 136.643 363.114 136.387C363.205 136.125 363.335 135.899 363.506 135.707C363.682 135.515 363.903 135.363 364.17 135.251C364.437 135.139 364.754 135.083 365.122 135.083C365.495 135.083 365.815 135.139 366.082 135.251C366.349 135.363 366.567 135.515 366.738 135.707C366.914 135.899 367.045 136.125 367.13 136.387C367.221 136.643 367.271 136.917 367.282 137.211C367.293 137.36 367.298 137.523 367.298 137.699C367.298 137.875 367.298 138.051 367.298 138.227C367.298 138.397 367.293 138.555 367.282 138.699C367.271 138.992 367.223 139.269 367.138 139.531C367.053 139.787 366.925 140.013 366.754 140.211C366.583 140.408 366.362 140.563 366.09 140.675C365.823 140.787 365.501 140.843 365.122 140.843ZM365.122 139.923C365.469 139.923 365.722 139.811 365.882 139.587C366.047 139.357 366.133 139.048 366.138 138.659C366.149 138.504 366.154 138.349 366.154 138.195C366.154 138.035 366.154 137.875 366.154 137.715C366.154 137.555 366.149 137.403 366.138 137.259C366.133 136.88 366.047 136.576 365.882 136.347C365.722 136.112 365.469 135.995 365.122 135.995C364.781 135.995 364.527 136.112 364.362 136.347C364.202 136.576 364.117 136.88 364.106 137.259C364.106 137.403 364.103 137.555 364.098 137.715C364.098 137.875 364.098 138.035 364.098 138.195C364.103 138.349 364.106 138.504 364.106 138.659C364.117 139.048 364.205 139.357 364.37 139.587C364.535 139.811 364.786 139.923 365.122 139.923Z" fill="url(#paint4_linear)" fill-opacity="0.5"/>
<path d="M120.615 145L120.615 12" stroke="#BFB2B2"/>
<path d="M195.557 145L195.557 12" stroke="#BFB2B2"/>
<path d="M270.498 145V12" stroke="#BFB2B2"/>
<path d="M44.6748 46L347.675 46" stroke="#BFB2B2"/>
<path d="M44.6748 79L347.675 79" stroke="#BFB2B2"/>
<path d="M44.6748 112L347.675 112" stroke="#BFB2B2"/>
<rect x="44.1748" y="12.5" width="303" height="132" stroke="#BFB2B2"/>
<path d="M45 143.898C74.523 127.059 119.567 103.083 196.325 67C262.046 36.1063 316.823 19.9044 347.439 14" stroke="#2469C5" stroke-linecap="round"/>
<path d="M347.769 71.9689C304.053 71.3911 210.187 74.3447 139.95 77.18C83.932 79.4413 64.2312 79.7676 44.7074 79.7676" stroke="#6F1571" stroke-linecap="round"/>
<path d="M44.3252 81.8833L48.9521 89.5462C49.5936 90.6087 51.1744 90.4768 51.631 89.3226L52.9555 85.9747C53.3167 85.0615 54.672 85.3109 54.6846 86.2928V86.2928C54.6948 87.0926 55.6683 87.4792 56.2245 86.9043L59.7762 83.2326C60.5073 82.4768 61.7689 82.6884 62.2136 83.6413L63.2484 85.8588C63.7497 86.9331 65.2403 87.0287 65.8748 86.0272L66.2547 85.4275C66.8053 84.5583 68.0475 84.4889 68.6916 85.2911L69.9618 86.8734C70.543 87.5974 71.6357 87.6249 72.2525 86.931L73.8195 85.1685C74.5147 84.3866 75.7766 84.5386 76.2662 85.4633L78.4774 89.6398C78.9966 90.6205 80.3642 90.7174 81.0165 89.8196L82.8595 87.2832C83.1509 86.8822 83.7851 87.0838 83.7914 87.5795V87.5795C83.7951 87.864 84.0287 88.0916 84.3132 88.088L87.2394 88.0505C87.7395 88.0441 88.21 88.2874 88.4938 88.6993L90.3323 91.3678C90.4494 91.5378 90.6003 91.6818 90.7757 91.7907L94.3908 94.0376C94.9808 94.4043 95.7454 94.318 96.2387 93.8289L102.193 87.9259C103.08 87.0467 104.59 87.573 104.739 88.813L105.914 98.6412C106.081 100.038 107.906 100.457 108.666 99.273L110.842 95.8814C111.328 95.1227 112.37 94.9615 113.063 95.5375L113.566 95.9553C114.424 96.6679 115.732 96.2284 115.985 95.1424L116.623 92.4087C116.959 90.9701 118.953 90.832 119.484 92.2106L120.721 95.4251C121.096 96.398 122.324 96.7015 123.109 96.015L128.38 91.4024C128.58 91.2281 128.729 91.0041 128.814 90.7532L129.008 90.179C129.468 88.8164 131.396 88.8194 131.852 90.1835L133.558 95.2924C133.883 96.2634 135.063 96.6313 135.882 96.0168L137.093 95.1078C137.803 94.5746 138.818 94.7718 139.277 95.5321L140.104 96.9012C140.716 97.9142 142.205 97.8531 142.731 96.7935L144.17 93.8993C144.745 92.742 146.417 92.8054 146.903 94.0029L147.366 95.1437C147.685 95.9309 148.772 96.0028 149.192 95.2645V95.2645C149.548 94.6406 150.42 94.5711 150.869 95.131L151.474 95.8846C151.917 96.4355 152.775 96.3672 153.125 95.7532V95.7532C153.543 95.0181 154.629 95.1015 154.93 95.892L155.866 98.3473C156.362 99.6487 158.209 99.6304 158.679 98.3195L159.944 94.7938C160.424 93.4535 162.327 93.4744 162.778 94.8249L163.795 97.8684C164.195 99.0647 165.912 98.9883 166.204 97.7612L166.229 97.6533C166.48 96.6011 167.88 96.3824 168.439 97.3083L168.509 97.4235C168.925 98.1129 169.911 98.1506 170.379 97.4951L171.277 96.2359C171.622 95.7532 172.383 95.9915 172.39 96.5844V96.5844C172.398 97.2098 173.227 97.4236 173.537 96.8801L175.383 93.6375C176.042 92.4797 177.793 92.6854 178.208 93.9516C179.418 97.6479 181.071 101.832 182.154 101.818C183.208 101.805 184.486 97.8114 185.399 94.1672C185.732 92.8392 187.54 92.5346 188.247 93.7066L190.654 97.6917C191.32 98.7957 193.018 98.3112 193.001 97.0217V97.0217C192.984 95.6235 194.913 95.2341 195.438 96.5298L197.859 102.494C198.423 103.886 200.455 103.676 200.724 102.199L200.961 100.9C201.177 99.7175 202.667 99.3131 203.451 100.225V100.225C204.034 100.903 205.091 100.885 205.65 100.185L207.406 97.9904C208.058 97.1754 209.322 97.2586 209.862 98.152L210.307 98.8897C210.944 99.9442 212.51 99.8242 212.978 98.6851L214.98 93.82C215.513 92.5251 217.372 92.6016 217.797 93.936L219.657 99.7846C220.089 101.141 221.989 101.19 222.49 99.858L223.292 97.7284C223.589 96.9394 224.575 96.6782 225.223 97.2169V97.2169C225.81 97.7045 226.695 97.5434 227.073 96.8803L227.713 95.7551C228.29 94.7412 229.81 94.9509 230.09 96.0833L230.129 96.2395C230.435 97.4727 232.173 97.5136 232.537 96.2962V96.2962C232.874 95.1662 234.446 95.0913 234.89 96.1841L235.827 98.4926C236.404 99.9151 238.492 99.6547 238.702 98.134L239.28 93.9551C239.497 92.386 241.682 92.1807 242.187 93.6818L245.492 103.494C245.966 104.903 247.982 104.837 248.363 103.4L248.741 101.977C249.081 100.697 250.895 100.689 251.246 101.966V101.966C251.596 103.244 253.41 103.236 253.75 101.956L254.371 99.6174C254.728 98.2731 256.564 98.0963 257.171 99.3478L257.38 99.7799C257.987 101.031 259.823 100.855 260.18 99.5104L260.501 98.2998C260.901 96.7922 263.051 96.8211 263.41 98.3389L264.038 100.987C264.275 101.989 265.537 102.317 266.232 101.557V101.557C266.665 101.084 267.38 101.003 267.907 101.368L269.452 102.436C269.957 102.784 270.645 102.418 270.637 101.805V101.805C270.629 101.16 271.379 100.802 271.875 101.214L272.884 102.052C273.586 102.635 274.65 102.376 275.007 101.537L275.138 101.229C275.566 100.22 276.897 99.9961 277.632 100.81L278.41 101.672C279.079 102.413 280.27 102.306 280.797 101.459L281.474 100.371C282.168 99.2546 283.861 99.508 284.198 100.779L284.599 102.295C284.884 103.371 286.2 103.772 287.037 103.04L288.718 101.569C289.403 100.97 290.459 101.113 290.959 101.874L292.906 104.832C293.358 105.519 294.279 105.714 294.97 105.269L301.124 101.311C301.944 100.783 303.042 101.166 303.356 102.09L304.867 106.534C305.21 107.542 306.628 107.565 307.003 106.568V106.568C307.299 105.782 308.318 105.579 308.892 106.193L310.191 107.58C310.975 108.418 312.373 108.1 312.717 107.005L314.667 100.799C315.1 99.4218 317.038 99.3911 317.514 100.754L318.177 102.65C318.665 104.048 320.668 103.968 321.044 102.536L321.155 102.112C321.499 100.801 323.267 100.582 323.92 101.77L324.249 102.368C324.73 103.244 325.917 103.413 326.624 102.706L328.473 100.857C329.004 100.327 329.845 100.27 330.442 100.725L335.691 104.719C336.293 105.177 337.141 105.116 337.671 104.575L342.474 99.6739C343.188 98.9448 344.406 99.1268 344.876 100.033L347.651 105.381" stroke="white" stroke-linecap="round"/>
<defs>
<linearGradient id="paint0_linear" x1="361.924" y1="9.7453e-08" x2="356.618" y2="13.0203" gradientUnits="userSpaceOnUse">
<stop stop-color="#36E2FA"/>
<stop offset="1" stop-color="#368AFA"/>
</linearGradient>
<linearGradient id="paint1_linear" x1="364.159" y1="32.7422" x2="357.402" y2="43.7944" gradientUnits="userSpaceOnUse">
<stop stop-color="#36E2FA"/>
<stop offset="1" stop-color="#368AFA"/>
</linearGradient>
<linearGradient id="paint2_linear" x1="363.712" y1="65.9404" x2="357.265" y2="77.5404" gradientUnits="userSpaceOnUse">
<stop stop-color="#36E2FA"/>
<stop offset="1" stop-color="#368AFA"/>
</linearGradient>
<linearGradient id="paint3_linear" x1="363.735" y1="99" x2="359.489" y2="108.718" gradientUnits="userSpaceOnUse">
<stop stop-color="#36E2FA"/>
<stop offset="1" stop-color="#368AFA"/>
</linearGradient>
<linearGradient id="paint4_linear" x1="362.646" y1="132.763" x2="358.599" y2="142.685" gradientUnits="userSpaceOnUse">
<stop stop-color="#36E2FA"/>
<stop offset="1" stop-color="#368AFA"/>
</linearGradient>
</defs>
</svg>
