<svg width="50" height="50" viewBox="0 0 50 50" fill="none" xmlns="http://www.w3.org/2000/svg">
<path d="M24.9785 4.16602C13.4785 4.16602 4.16602 13.4993 4.16602 24.9994C4.16602 36.4994 13.4785 45.8327 24.9785 45.8327C36.4994 45.8327 45.8327 36.4994 45.8327 24.9994C45.8327 13.4993 36.4994 4.16602 24.9785 4.16602ZM24.9994 41.666C15.791 41.666 8.33268 34.2077 8.33268 24.9994C8.33268 15.791 15.791 8.33268 24.9994 8.33268C34.2077 8.33268 41.666 15.791 41.666 24.9994C41.666 34.2077 34.2077 41.666 24.9994 41.666Z" fill="white"/>
<path d="M26.041 14.584H22.916V27.084L33.8535 33.6465L35.416 31.084L26.041 25.5215V14.584Z" fill="white"/>
</svg>
