<svg width="44" height="41" viewBox="0 0 44 41" fill="none" xmlns="http://www.w3.org/2000/svg">
<path d="M43.1381 0.549975C42.3881 -0.0867436 41.2123 -0.176586 39.9935 0.311695H39.9896C38.7084 0.827319 3.72791 15.8312 2.30604 16.4445C2.04823 16.5343 -0.217399 17.3781 0.016976 19.257C0.224007 20.9523 2.04432 21.6554 2.26698 21.7375L11.1576 24.7804C11.7474 26.7453 13.9232 33.9914 14.4037 35.5383C14.7045 36.5031 15.1928 37.7726 16.0521 38.0343C16.8021 38.3234 17.5521 38.0578 18.0326 37.6789L23.4701 32.6359L32.2474 39.4797L32.4584 39.6047C33.0521 39.8703 33.6224 40.0031 34.1693 40.0031C34.5912 40.0031 34.9935 39.9211 35.3803 39.7648C36.6967 39.2258 37.2201 37.9718 37.2748 37.8273L43.8334 3.7531C44.2318 1.93279 43.6771 1.00701 43.1381 0.549975ZM19.0014 25.9992L16.0014 33.9992L13.0014 23.9992L36.0014 6.99919L19.0014 25.9992Z" fill="white"/>
</svg>
