<svg width="46" height="46" viewBox="0 0 46 46" fill="none" xmlns="http://www.w3.org/2000/svg">
<path d="M8 0.5C3.88867 0.5 0.5 3.88867 0.5 8V38C0.5 42.1113 3.88867 45.5 8 45.5H38C42.1113 45.5 45.5 42.1113 45.5 38V8C45.5 3.88867 42.1113 0.5 38 0.5H8ZM8 5.5H38C39.416 5.5 40.5 6.58398 40.5 8V38C40.5 39.416 39.416 40.5 38 40.5H8C6.58398 40.5 5.5 39.416 5.5 38V8C5.5 6.58398 6.58398 5.5 8 5.5ZM23 10.5V28C23 29.416 21.916 30.5 20.5 30.5C19.084 30.5 18 29.416 18 28C18 26.584 19.084 25.5 20.5 25.5V20.5C16.3887 20.5 13 23.8887 13 28C13 32.1113 16.3887 35.5 20.5 35.5C24.6113 35.5 28 32.1113 28 28V18.5859C29.543 19.6797 31.1445 20.5 33 20.5V15.5C32.8828 15.5 31.1543 14.9531 29.9531 13.9082C28.752 12.8535 28 11.5352 28 10.5H23Z" fill="white"/>
</svg>
