<svg width="234" height="482" viewBox="0 0 234 482" fill="none" xmlns="http://www.w3.org/2000/svg">
<circle cx="104.26" cy="229.281" r="4" transform="rotate(90 104.26 229.281)" fill="#4D4D4D"/>
<circle cx="79.9584" cy="311.387" r="4" transform="rotate(135 79.9584 311.387)" fill="#4D4D4D"/>
<circle cx="4.7168" cy="352.26" r="4" transform="rotate(-180 4.7168 352.26)" fill="#4D4D4D"/>
<circle cx="63.3867" cy="154.04" r="4" transform="rotate(45 63.3867 154.04)" fill="#4D4D4D"/>
<circle cx="107.842" cy="109.587" r="3.5" transform="rotate(45 107.842 109.587)" stroke="#4D4D4D"/>
<circle cx="149.392" cy="163.539" r="3.5" transform="rotate(67.5 149.392 163.539)" stroke="#4D4D4D"/>
<circle cx="167.129" cy="229.283" r="3.5" transform="rotate(90 167.129 229.283)" stroke="#4D4D4D"/>
<circle cx="158.36" cy="296.811" r="3.5" transform="rotate(112.5 158.36 296.811)" stroke="#4D4D4D"/>
<circle cx="124.413" cy="355.844" r="3.5" transform="rotate(135 124.413 355.844)" stroke="#4D4D4D"/>
<circle cx="70.4613" cy="397.392" r="3.5" transform="rotate(157.5 70.4613 397.392)" stroke="#4D4D4D"/>
<circle cx="4.7168" cy="415.129" r="3.5" transform="rotate(180 4.7168 415.129)" stroke="#4D4D4D"/>
<circle cx="48.8113" cy="75.6423" r="3.5" transform="rotate(22.5 48.8113 75.6423)" stroke="#4D4D4D"/>
<circle cx="101.353" cy="29.8938" r="4" transform="rotate(30 101.353 29.8938)" fill="#4D4D4D"/>
<circle cx="152.299" cy="65.1295" r="4" transform="rotate(45 152.299 65.1295)" fill="#4D4D4D"/>
<circle cx="192.389" cy="112.353" r="4" transform="rotate(60 192.389 112.353)" fill="#4D4D4D"/>
<circle cx="218.892" cy="168.34" r="4" transform="rotate(75 218.892 168.34)" fill="#4D4D4D"/>
<circle cx="230" cy="229.283" r="4" transform="rotate(90 230 229.283)" fill="#4D4D4D"/>
<circle cx="224.956" cy="291.022" r="4" transform="rotate(105 224.956 291.022)" fill="#4D4D4D"/>
<circle cx="204.106" cy="349.353" r="4" transform="rotate(120 204.106 349.353)" fill="#4D4D4D"/>
<circle cx="168.87" cy="400.299" r="4" transform="rotate(135 168.87 400.299)" fill="#4D4D4D"/>
<circle cx="121.647" cy="440.389" r="4" transform="rotate(150 121.647 440.389)" fill="#4D4D4D"/>
<circle cx="65.6577" cy="466.892" r="4" transform="rotate(165 65.6577 466.892)" fill="#4D4D4D"/>
<circle cx="4.7168" cy="478" r="4" transform="rotate(180 4.7168 478)" fill="#4D4D4D"/>
<circle cx="43.0218" cy="9.04351" r="4" transform="rotate(15 43.0218 9.04351)" fill="#4D4D4D"/>
</svg>
