<svg width="127" height="138" viewBox="0 0 127 138" fill="none" xmlns="http://www.w3.org/2000/svg">
<circle cx="97.9448" cy="68.3867" r="4" transform="rotate(90 97.9448 68.3867)" fill="white"/>
<circle cx="89.7948" cy="89.0781" r="4" transform="rotate(135 89.7948 89.0781)" fill="white"/>
<circle cx="69.4014" cy="97.9453" r="4" transform="rotate(-180 69.4014 97.9453)" fill="white"/>
<circle cx="48.7114" cy="89.7943" r="4" transform="rotate(-135 48.7114 89.7943)" fill="white"/>
<circle cx="39.8442" cy="69.4004" r="4" transform="rotate(-90 39.8442 69.4004)" fill="white"/>
<circle cx="47.9943" cy="48.7109" r="4" transform="rotate(-45 47.9943 48.7109)" fill="white"/>
<circle cx="68.3877" cy="39.8438" r="4" fill="white"/>
<circle cx="89.0781" cy="47.9947" r="4" transform="rotate(45 89.0781 47.9947)" fill="white"/>
<circle cx="101.067" cy="12.4582" r="4" transform="rotate(30 101.067 12.4582)" fill="white"/>
<circle cx="114.608" cy="22.6842" r="4" transform="rotate(45 114.608 22.6842)" fill="white"/>
<circle cx="125.042" cy="36.0676" r="4" transform="rotate(60 125.042 36.0676)" fill="white"/>
<circle cx="131.656" cy="51.6939" r="4" transform="rotate(75 131.656 51.6939)" fill="white"/>
<circle cx="125.542" cy="101.068" r="4" transform="rotate(120 125.542 101.068)" fill="white"/>
<circle cx="115.315" cy="114.607" r="4" transform="rotate(135 115.315 114.607)" fill="white"/>
<circle cx="101.933" cy="125.042" r="4" transform="rotate(150 101.933 125.042)" fill="white"/>
<circle cx="86.3061" cy="131.656" r="4" transform="rotate(165 86.3061 131.656)" fill="white"/>
<circle cx="69.5" cy="134" r="4" transform="rotate(180 69.5 134)" fill="white"/>
<circle cx="52.6599" cy="131.915" r="4" transform="rotate(-165 52.6599 131.915)" fill="white"/>
<circle cx="36.9329" cy="125.542" r="4" transform="rotate(-150 36.9329 125.542)" fill="white"/>
<circle cx="23.3916" cy="115.316" r="4" transform="rotate(-135 23.3916 115.316)" fill="white"/>
<circle cx="12.9582" cy="101.932" r="4" transform="rotate(-120 12.9582 101.932)" fill="white"/>
<circle cx="6.34405" cy="86.3061" r="4" transform="rotate(-105 6.34405 86.3061)" fill="white"/>
<circle cx="4" cy="69.5" r="4" transform="rotate(-90 4 69.5)" fill="white"/>
<circle cx="6.0855" cy="52.6599" r="4" transform="rotate(-75 6.0855 52.6599)" fill="white"/>
<circle cx="12.4582" cy="36.9324" r="4" transform="rotate(-60 12.4582 36.9324)" fill="white"/>
<circle cx="22.6842" cy="23.3906" r="4" transform="rotate(-45 22.6842 23.3906)" fill="white"/>
<circle cx="36.0671" cy="12.9582" r="4" transform="rotate(-30 36.0671 12.9582)" fill="white"/>
<circle cx="51.6939" cy="6.34405" r="4" transform="rotate(-15 51.6939 6.34405)" fill="white"/>
<circle cx="68.5" cy="4" r="4" fill="white"/>
<circle cx="85.3406" cy="6.08648" r="4" transform="rotate(15 85.3406 6.08648)" fill="white"/>
<circle cx="101.93" cy="35.3522" r="3.5" transform="rotate(45 101.93 35.3522)" stroke="white"/>
<circle cx="112.3" cy="50.5153" r="3.5" transform="rotate(67.5 112.3 50.5153)" stroke="white"/>
<circle cx="116.078" cy="68.4941" r="3.5" transform="rotate(90 116.078 68.4941)" stroke="white"/>
<circle cx="112.688" cy="86.5476" r="3.5" transform="rotate(112.5 112.688 86.5476)" stroke="white"/>
<circle cx="102.647" cy="101.93" r="3.5" transform="rotate(135 102.647 101.93)" stroke="white"/>
<circle cx="87.4837" cy="112.3" r="3.5" transform="rotate(157.5 87.4837 112.3)" stroke="white"/>
<circle cx="69.5068" cy="116.078" r="3.5" transform="rotate(180 69.5068 116.078)" stroke="white"/>
<circle cx="51.4519" cy="112.688" r="3.5" transform="rotate(-157.5 51.4519 112.688)" stroke="white"/>
<circle cx="36.0688" cy="102.648" r="3.5" transform="rotate(-135 36.0688 102.648)" stroke="white"/>
<circle cx="25.6995" cy="87.4847" r="3.5" transform="rotate(-112.5 25.6995 87.4847)" stroke="white"/>
<circle cx="21.9219" cy="69.5059" r="3.5" transform="rotate(-90 21.9219 69.5059)" stroke="white"/>
<circle cx="25.3117" cy="51.4524" r="3.5" transform="rotate(-67.5 25.3117 51.4524)" stroke="white"/>
<circle cx="35.3522" cy="36.0684" r="3.5" transform="rotate(-45 35.3522 36.0684)" stroke="white"/>
<circle cx="50.5153" cy="25.6999" r="3.5" transform="rotate(-22.5 50.5153 25.6999)" stroke="white"/>
<circle cx="68.4927" cy="21.9219" r="3.5" stroke="white"/>
<circle cx="86.5476" cy="25.3122" r="3.5" transform="rotate(22.5 86.5476 25.3122)" stroke="white"/>
</svg>
