<svg width="20" height="20" viewBox="0 0 20 20" fill="none" xmlns="http://www.w3.org/2000/svg">
<path d="M9.99049 0C4.47049 0 0.000488281 4.48 0.000488281 10C0.000488281 15.52 4.47049 20 9.99049 20C15.5205 20 20.0005 15.52 20.0005 10C20.0005 4.48 15.5205 0 9.99049 0ZM10.0005 18C5.58049 18 2.00049 14.42 2.00049 10C2.00049 5.58 5.58049 2 10.0005 2C14.4205 2 18.0005 5.58 18.0005 10C18.0005 14.42 14.4205 18 10.0005 18Z" fill="white"/>
<path d="M10.5005 5H9.00049V11L14.2505 14.15L15.0005 12.92L10.5005 10.25V5Z" fill="white"/>
</svg>
