<svg width="116" height="32" viewBox="0 0 116 32" fill="none" xmlns="http://www.w3.org/2000/svg">
<path d="M41.5124 0C41.2278 0.632325 40.9433 1.29627 40.6587 1.92859C39.8683 3.63587 39.0463 5.34314 38.2559 7.05042C37.5603 8.568 36.8332 10.054 36.1376 11.5715C35.2524 13.4685 34.3671 15.3655 33.4818 17.2941C32.5966 19.1911 31.7113 21.088 30.8261 22.9534C29.9724 24.8188 29.0872 26.6841 28.2336 28.5179C27.8858 29.2766 27.538 30.0354 27.1586 30.7626C27.127 30.8575 26.9689 30.9839 26.8741 30.9839C24.5977 30.9839 22.3213 30.9839 20.0133 30.9839C20.1398 30.6994 20.2346 30.4148 20.3611 30.1619C21.1831 28.3914 22.0368 26.6209 22.8588 24.882C23.744 22.985 24.6293 21.088 25.5146 19.1594C26.3682 17.3257 27.2218 15.492 28.0755 13.6582C28.9607 11.7612 29.846 9.86427 30.7312 7.93568C30.9842 7.42982 31.2055 6.89234 31.4584 6.35487C31.3003 6.35487 31.1739 6.32325 31.079 6.32325C20.8037 6.32325 10.5285 6.32325 0.253174 6.32325C0.189942 6.32325 0.0950929 6.32325 0.0318604 6.32325C0.000244141 4.23658 0.000244141 2.11829 0.000244141 0C13.8482 0 27.6645 0 41.5124 0Z" fill="white"/>
<path d="M0 24.6604C1.61243 24.6604 3.19324 24.6604 4.8689 24.6604C4.8689 20.5503 4.8689 16.4402 4.8689 12.3301C10.7811 12.3301 16.6618 12.3301 22.6056 12.3301C21.6255 14.4484 20.6454 16.535 19.6653 18.6533C17.0412 18.6533 14.4486 18.6533 11.8245 18.6533C11.8245 20.6768 11.8245 22.637 11.8245 24.6604C13.5001 24.6604 15.1758 24.6604 16.8515 24.6604C16.5353 25.3244 16.2507 25.9567 15.9662 26.589C15.3339 27.9485 14.6699 29.3396 14.0376 30.6991C13.9428 30.9204 13.7847 31.0153 13.5318 31.0153C9.16871 31.0153 4.83729 31.0153 0.474244 31.0153C0.316162 31.0153 0.158081 31.0153 0.0316162 31.0153C0 28.897 0 26.7787 0 24.6604Z" fill="white"/>
<path d="M52.0088 0.284278C53.5896 0.758522 54.9491 2.02317 55.2969 3.85691C54.2219 4.07823 53.147 4.29954 52.072 4.48924C51.7559 3.4459 51.0919 2.62388 49.606 2.6555C49.0369 2.6555 48.531 2.90843 48.2148 3.38267C47.8671 3.92015 47.9619 4.71055 48.7839 4.93187C49.764 5.1848 50.7441 5.40611 51.7559 5.62742C52.736 5.84874 53.6845 6.1649 54.4116 6.86046C55.0123 7.42955 55.3285 8.12511 55.4234 8.94713C55.5182 9.76915 55.4234 10.5596 55.0756 11.2867C54.4432 12.583 53.3367 13.2153 52.0404 13.5315C50.2699 13.9741 48.4994 13.9109 46.7921 13.1521C45.401 12.5198 44.4841 11.4764 44.2312 9.89562C44.2312 9.83238 44.2312 9.76915 44.2312 9.73753C45.3378 9.51622 46.4443 9.29491 47.5825 9.07359C47.6774 9.29491 47.7722 9.51622 47.8671 9.73753C48.2465 10.4647 48.8472 10.8441 49.6376 11.0022C50.2699 11.097 50.839 11.0338 51.4081 10.7493C51.8823 10.5279 52.1353 10.0853 52.1036 9.57945C52.0404 9.07359 51.7243 8.78905 51.2816 8.6942C50.2699 8.47289 49.2582 8.25157 48.2465 7.99864C47.4244 7.80894 46.6657 7.55601 45.9701 7.05015C45.0848 6.41783 44.7054 5.56419 44.6106 4.52085C44.5158 3.28782 44.8319 2.18125 45.7488 1.32761C46.5076 0.600441 47.4561 0.221046 48.4678 0.0629646C48.6891 0.0313484 51.0603 -0.000267871 52.0088 0.284278Z" fill="white"/>
<path d="M74.3297 16.8517C76.9222 16.8517 79.4832 16.82 82.0125 16.8833C83.3087 16.9149 84.5418 17.3891 85.4586 18.3692C86.1542 19.128 86.5336 20.0449 86.5652 21.0566C86.5968 21.9103 86.5652 22.7639 86.1542 23.5543C85.4902 24.8822 84.3837 25.6094 82.9293 26.0204C84.3837 27.696 85.838 29.3401 87.324 31.0157C87.1975 31.0157 87.1027 31.0473 87.0078 31.0473C85.7748 31.0473 84.5418 31.0473 83.2771 31.0473C83.1506 31.0473 82.9609 30.9525 82.8661 30.826C82.2338 30.1305 81.6014 29.4033 80.9691 28.7077C80.3052 27.949 79.6729 27.1902 79.0089 26.463C78.8824 26.3365 78.6928 26.2733 78.5347 26.2417C78.3134 26.2101 78.092 26.2417 77.8391 26.2417C77.8391 27.8541 77.8391 29.4349 77.8391 31.079C76.6377 31.079 75.4995 31.079 74.2981 31.079C74.3297 26.3049 74.3297 21.5941 74.3297 16.8517ZM77.8707 19.95C77.8707 21.025 77.8707 22.1 77.8707 23.1433C79.167 23.1433 80.4633 23.1749 81.7595 23.1117C82.3286 23.0801 82.8029 22.669 83.0242 22.1632C83.4352 21.1831 82.8029 20.0133 81.7279 19.95C80.4316 19.8868 79.167 19.95 77.8707 19.95Z" fill="white"/>
<path d="M57.1306 23.9646C57.0041 19.9177 60.4503 16.3451 65.0346 16.5664C68.8918 16.7561 72.2747 19.7913 72.2115 24.1543C72.1483 28.0747 68.9234 31.5525 64.2758 31.3628C60.4187 31.1731 57.0357 28.1063 57.1306 23.9646ZM64.6552 19.7913C62.3472 19.7596 60.6716 21.5934 60.64 23.933C60.64 26.2726 62.2524 28.0115 64.4972 28.1063C66.9632 28.2012 68.6389 26.241 68.6705 24.0278C68.7021 21.625 66.9316 19.728 64.6552 19.7913Z" fill="white"/>
<path d="M103.29 13.4695C103.29 9.04322 103.29 4.68018 103.29 0.253906C104.176 0.253906 105.061 0.253906 105.946 0.253906C106.041 0.253906 106.167 0.380371 106.262 0.47522C106.926 1.23401 107.558 2.02442 108.222 2.78321C109.013 3.73169 109.803 4.64856 110.594 5.59705C111.258 6.38746 111.953 7.14625 112.68 8.0315C112.68 5.37574 112.68 2.81482 112.68 0.253906C113.818 0.253906 114.893 0.253906 116 0.253906C116 4.64856 116 9.04322 116 13.5011C115.115 13.5011 114.229 13.5327 113.344 13.4695C113.123 13.4695 112.902 13.1533 112.744 12.9636C112.111 12.2365 111.479 11.5093 110.847 10.7821C110.025 9.83363 109.234 8.91676 108.412 7.96827C107.843 7.30433 107.242 6.672 106.642 5.94483C106.642 8.47413 106.642 10.9402 106.642 13.4379C105.503 13.4695 104.397 13.4695 103.29 13.4695Z" fill="white"/>
<path d="M108.507 25.3879C108.507 26.3048 108.507 27.1268 108.507 27.9805C111.005 27.9805 113.471 27.9805 116 27.9805C116 28.9922 116 29.9723 116 30.984C112.333 30.984 108.665 30.984 104.966 30.984C104.966 26.2732 104.966 21.594 104.966 16.8516C108.602 16.8516 112.238 16.8516 115.905 16.8516C115.905 17.8317 115.905 18.8118 115.905 19.8235C113.471 19.8235 111.005 19.8235 108.507 19.8235C108.507 20.7087 108.507 21.5624 108.507 22.416C110.752 22.416 112.997 22.416 115.273 22.416C115.273 23.3961 115.273 24.3446 115.273 25.3563C113.06 25.3879 110.815 25.3879 108.507 25.3879Z" fill="white"/>
<path d="M99.3698 24.9779C100.508 25.1992 101.646 25.4205 102.848 25.6734C102.689 26.2109 102.563 26.7168 102.373 27.191C101.773 28.677 100.729 29.7835 99.2749 30.5107C97.9154 31.2063 96.4611 31.4276 94.9751 31.3011C92.9517 31.143 91.2444 30.2894 89.8849 28.7718C88.9996 27.7285 88.3989 26.5587 88.2092 25.1676C87.9879 23.5235 88.146 21.9427 88.9364 20.4567C90.0746 18.4017 91.7819 17.1687 94.0582 16.6944C95.9236 16.315 97.7257 16.5363 99.433 17.4532C101.14 18.3701 102.184 19.7612 102.689 21.6265C102.721 21.7214 102.753 21.8162 102.784 21.9743C101.646 22.2589 100.508 22.5118 99.3382 22.7963C99.2433 22.5434 99.1485 22.2589 99.0536 22.0059C98.2948 19.9509 95.9868 19.3186 94.2163 20.0457C92.6987 20.6464 91.9083 21.8479 91.687 23.4603C91.4341 25.2308 92.4774 27.0329 93.9634 27.7285C95.8604 28.6137 98.3264 27.9498 99.0852 25.705C99.1801 25.4837 99.2749 25.2308 99.3698 24.9779Z" fill="white"/>
<path d="M69.2394 0.254273C69.2394 1.20276 69.2394 2.11963 69.2394 3.06812C66.9314 3.06812 64.6234 3.06812 62.3154 3.06812C62.3154 3.89014 62.3154 4.68055 62.3154 5.50257C64.4337 5.50257 66.552 5.50257 68.7019 5.50257C68.7019 6.41944 68.7019 7.30469 68.7019 8.22157C66.5836 8.22157 64.4337 8.22157 62.2838 8.22157C62.2838 9.04359 62.2838 9.83399 62.2838 10.656C64.6234 10.656 66.9314 10.656 69.3026 10.656C69.3026 11.6045 69.3026 12.5214 69.3026 13.4382C65.8881 13.4382 62.4419 13.4382 58.9641 13.4382C58.9641 9.04359 58.9641 4.64893 58.9641 0.222656C62.4103 0.254272 65.8248 0.254273 69.2394 0.254273Z" fill="white"/>
<path d="M99.6862 10.6873C99.6862 11.6674 99.6862 12.5526 99.6862 13.4695C96.24 13.4695 92.7938 13.4695 89.3477 13.4695C89.3477 9.07484 89.3477 4.68018 89.3477 0.253906C92.7622 0.253906 96.1768 0.253906 99.5913 0.253906C99.5913 1.17078 99.5913 2.11926 99.5913 3.06775C97.2833 3.06775 95.007 3.06775 92.6674 3.06775C92.6674 3.88977 92.6674 4.68018 92.6674 5.5022C94.754 5.5022 96.8723 5.5022 98.9906 5.5022C98.9906 6.41907 98.9906 7.30433 98.9906 8.2212C96.9039 8.2212 94.7857 8.2212 92.6674 8.2212C92.6674 9.04322 92.6674 9.83363 92.6674 10.6557C95.007 10.6873 97.3149 10.6873 99.6862 10.6873Z" fill="white"/>
<path d="M44.8 16.8828C48.4675 16.8828 52.0718 16.8828 55.7393 16.8828C55.7393 17.8945 55.7393 18.9063 55.7393 19.9496C53.2732 19.9496 50.8388 19.9496 48.3727 19.9496C48.3727 20.9297 48.3727 21.8466 48.3727 22.8583C50.5226 22.8583 52.7041 22.8583 54.9172 22.8583C54.9172 23.9016 54.9172 24.9133 54.9172 25.9567C52.7357 25.9567 50.5542 25.9567 48.3411 25.9567C48.3411 27.664 48.3411 29.3396 48.3411 31.0153C47.1397 31.0153 46.0015 31.0153 44.8 31.0153C44.8 26.3045 44.8 21.5936 44.8 16.8828Z" fill="white"/>
<path d="M86.4389 0.222656C86.0911 1.07629 85.7433 1.89832 85.3955 2.68872C84.7632 4.17469 84.1625 5.62903 83.5302 7.115C82.9927 8.37965 82.4552 9.6443 81.9177 10.9089C81.6016 11.6677 81.2854 12.4265 80.9693 13.1853C80.906 13.375 80.8428 13.5015 80.5899 13.5015C79.6097 13.5015 78.6296 13.5015 77.6179 13.5015C75.7526 9.10682 73.8872 4.71216 71.9902 0.254273C72.3696 0.254273 72.6226 0.254273 72.9071 0.254273C73.7291 0.254273 74.5828 0.254273 75.4048 0.254273C75.5945 0.254273 75.6893 0.285889 75.7842 0.475586C76.6378 2.59387 77.5231 4.71216 78.3767 6.83045C78.6613 7.49439 78.9142 8.18995 79.2304 8.94874C79.4833 8.31641 79.7362 7.77894 79.9575 7.24146C80.6531 5.53418 81.3803 3.79529 82.0758 2.08801C82.2971 1.58215 82.4868 1.07629 82.7081 0.570435C82.7714 0.44397 82.9295 0.285889 83.0559 0.285889C84.1309 0.222656 85.2374 0.222656 86.4389 0.222656Z" fill="white"/>
</svg>
