<svg width="18" height="18" viewBox="0 0 18 18" fill="none" xmlns="http://www.w3.org/2000/svg">
<path d="M3.62049 7.79C5.06049 10.62 7.38049 12.93 10.2105 14.38L12.4105 12.18C12.6805 11.91 13.0805 11.82 13.4305 11.94C14.5505 12.31 15.7605 12.51 17.0005 12.51C17.5505 12.51 18.0005 12.96 18.0005 13.51V17C18.0005 17.55 17.5505 18 17.0005 18C7.61049 18 0.000488281 10.39 0.000488281 1C0.000488281 0.45 0.450488 0 1.00049 0H4.50049C5.05049 0 5.50049 0.45 5.50049 1C5.50049 2.25 5.70049 3.45 6.07049 4.57C6.18049 4.92 6.10049 5.31 5.82049 5.59L3.62049 7.79Z" fill="white"/>
</svg>
