<svg width="14" height="16" viewBox="0 0 14 16" fill="none" xmlns="http://www.w3.org/2000/svg">
<path d="M2.99992 12C2.99992 12.3667 3.29992 12.6667 3.66659 12.6667H4.33325V15C4.33325 15.5533 4.77992 16 5.33325 16C5.88659 16 6.33325 15.5533 6.33325 15V12.6667H7.66659V15C7.66659 15.5533 8.11325 16 8.66659 16C9.21992 16 9.66659 15.5533 9.66659 15V12.6667H10.3333C10.6999 12.6667 10.9999 12.3667 10.9999 12V5.33333H2.99992V12ZM1.33325 5.33333C0.779919 5.33333 0.333252 5.78 0.333252 6.33333V11C0.333252 11.5533 0.779919 12 1.33325 12C1.88659 12 2.33325 11.5533 2.33325 11V6.33333C2.33325 5.78 1.88659 5.33333 1.33325 5.33333ZM12.6666 5.33333C12.1133 5.33333 11.6666 5.78 11.6666 6.33333V11C11.6666 11.5533 12.1133 12 12.6666 12C13.2199 12 13.6666 11.5533 13.6666 11V6.33333C13.6666 5.78 13.2199 5.33333 12.6666 5.33333ZM9.35325 1.44L10.2199 0.573333C10.3533 0.44 10.3533 0.233333 10.2199 0.1C10.0866 -0.0333333 9.87992 -0.0333333 9.74659 0.1L8.75992 1.08667C8.23325 0.82 7.63325 0.666667 6.99992 0.666667C6.35992 0.666667 5.75992 0.82 5.22659 1.08667L4.23325 0.1C4.09992 -0.0333333 3.89325 -0.0333333 3.75992 0.1C3.62659 0.233333 3.62659 0.44 3.75992 0.573333L4.63325 1.44667C3.64659 2.17333 2.99992 3.34 2.99992 4.66667H10.9999C10.9999 3.34 10.3533 2.16667 9.35325 1.44ZM5.66659 3.33333H4.99992V2.66667H5.66659V3.33333ZM8.99992 3.33333H8.33325V2.66667H8.99992V3.33333Z" fill="white"/>
<path d="M2.99992 12C2.99992 12.3667 3.29992 12.6667 3.66659 12.6667H4.33325V15C4.33325 15.5533 4.77992 16 5.33325 16C5.88659 16 6.33325 15.5533 6.33325 15V12.6667H7.66659V15C7.66659 15.5533 8.11325 16 8.66659 16C9.21992 16 9.66659 15.5533 9.66659 15V12.6667H10.3333C10.6999 12.6667 10.9999 12.3667 10.9999 12V5.33333H2.99992V12ZM1.33325 5.33333C0.779919 5.33333 0.333252 5.78 0.333252 6.33333V11C0.333252 11.5533 0.779919 12 1.33325 12C1.88659 12 2.33325 11.5533 2.33325 11V6.33333C2.33325 5.78 1.88659 5.33333 1.33325 5.33333ZM12.6666 5.33333C12.1133 5.33333 11.6666 5.78 11.6666 6.33333V11C11.6666 11.5533 12.1133 12 12.6666 12C13.2199 12 13.6666 11.5533 13.6666 11V6.33333C13.6666 5.78 13.2199 5.33333 12.6666 5.33333ZM9.35325 1.44L10.2199 0.573333C10.3533 0.44 10.3533 0.233333 10.2199 0.1C10.0866 -0.0333333 9.87992 -0.0333333 9.74659 0.1L8.75992 1.08667C8.23325 0.82 7.63325 0.666667 6.99992 0.666667C6.35992 0.666667 5.75992 0.82 5.22659 1.08667L4.23325 0.1C4.09992 -0.0333333 3.89325 -0.0333333 3.75992 0.1C3.62659 0.233333 3.62659 0.44 3.75992 0.573333L4.63325 1.44667C3.64659 2.17333 2.99992 3.34 2.99992 4.66667H10.9999C10.9999 3.34 10.3533 2.16667 9.35325 1.44ZM5.66659 3.33333H4.99992V2.66667H5.66659V3.33333ZM8.99992 3.33333H8.33325V2.66667H8.99992V3.33333Z" fill="url(#paint0_linear)"/>
<defs>
<linearGradient id="paint0_linear" x1="6.99992" y1="0" x2="6.99992" y2="16" gradientUnits="userSpaceOnUse">
<stop stop-color="white"/>
<stop offset="1" stop-color="#444A59"/>
</linearGradient>
</defs>
</svg>
