<svg width="331" height="331" viewBox="0 0 331 331" fill="none" xmlns="http://www.w3.org/2000/svg">
<circle cx="240.367" cy="22.2407" r="4" transform="rotate(30 240.367 22.2407)" fill="white"/>
<circle cx="274.894" cy="46.4986" r="4" transform="rotate(45 274.894 46.4986)" fill="white"/>
<circle cx="301.966" cy="78.8667" r="4" transform="rotate(60 301.966 78.8667)" fill="white"/>
<circle cx="319.739" cy="117.138" r="4" transform="rotate(75 319.739 117.138)" fill="white"/>
<circle cx="327" cy="158.706" r="4" transform="rotate(90 327 158.706)" fill="white"/>
<circle cx="323.255" cy="200.737" r="4" transform="rotate(105 323.255 200.737)" fill="white"/>
<circle cx="308.76" cy="240.366" r="4" transform="rotate(120 308.76 240.366)" fill="white"/>
<circle cx="284.502" cy="274.894" r="4" transform="rotate(135 284.502 274.894)" fill="white"/>
<circle cx="252.134" cy="301.966" r="4" transform="rotate(150 252.134 301.966)" fill="white"/>
<circle cx="213.862" cy="319.739" r="4" transform="rotate(165 213.862 319.739)" fill="white"/>
<circle cx="172.294" cy="327" r="4" transform="rotate(180 172.294 327)" fill="white"/>
<circle cx="130.263" cy="323.255" r="4" transform="rotate(-165 130.263 323.255)" fill="white"/>
<circle cx="90.6336" cy="308.759" r="4" transform="rotate(-150 90.6336 308.759)" fill="white"/>
<circle cx="56.106" cy="284.501" r="4" transform="rotate(-135 56.106 284.501)" fill="white"/>
<circle cx="29.0337" cy="252.133" r="4" transform="rotate(-120 29.0337 252.133)" fill="white"/>
<circle cx="11.2613" cy="213.861" r="4" transform="rotate(-105 11.2613 213.861)" fill="white"/>
<circle cx="4" cy="172.293" r="4" transform="rotate(-90 4 172.293)" fill="white"/>
<circle cx="7.74468" cy="130.262" r="4" transform="rotate(-75 7.74468 130.262)" fill="white"/>
<circle cx="22.2402" cy="90.6331" r="4" transform="rotate(-60 22.2402 90.6331)" fill="white"/>
<circle cx="46.4984" cy="56.1057" r="4" transform="rotate(-45 46.4984 56.1057)" fill="white"/>
<circle cx="78.8664" cy="29.0337" r="4" transform="rotate(-30 78.8664 29.0337)" fill="white"/>
<circle cx="117.138" cy="11.2613" r="4" transform="rotate(-15 117.138 11.2613)" fill="white"/>
<circle cx="158.706" cy="4" r="4" fill="white"/>
<circle cx="200.738" cy="7.74541" r="4" transform="rotate(15 200.738 7.74541)" fill="white"/>
<circle cx="244.191" cy="76.8544" r="3.5" transform="rotate(45 244.191 76.8544)" stroke="white"/>
<circle cx="272.045" cy="113.769" r="3.5" transform="rotate(67.5 272.045 113.769)" stroke="white"/>
<circle cx="283.652" cy="158.533" r="3.5" transform="rotate(90 283.652 158.533)" stroke="white"/>
<circle cx="277.245" cy="204.332" r="3.5" transform="rotate(112.5 277.245 204.332)" stroke="white"/>
<circle cx="253.799" cy="244.192" r="3.5" transform="rotate(135 253.799 244.192)" stroke="white"/>
<circle cx="216.884" cy="272.045" r="3.5" transform="rotate(157.5 216.884 272.045)" stroke="white"/>
<circle cx="172.12" cy="283.652" r="3.5" transform="rotate(180 172.12 283.652)" stroke="white"/>
<circle cx="126.321" cy="277.245" r="3.5" transform="rotate(-157.5 126.321 277.245)" stroke="white"/>
<circle cx="86.4604" cy="253.799" r="3.5" transform="rotate(-135 86.4604 253.799)" stroke="white"/>
<circle cx="58.6067" cy="216.884" r="3.5" transform="rotate(-112.5 58.6067 216.884)" stroke="white"/>
<circle cx="47" cy="172.12" r="3.5" transform="rotate(-90 47 172.12)" stroke="white"/>
<circle cx="53.4074" cy="126.321" r="3.5" transform="rotate(-67.5 53.4074 126.321)" stroke="white"/>
<circle cx="76.8531" cy="86.4612" r="3.5" transform="rotate(-45 76.8531 86.4612)" stroke="white"/>
<circle cx="113.768" cy="58.6074" r="3.5" transform="rotate(-22.5 113.768 58.6074)" stroke="white"/>
<circle cx="158.532" cy="47.0005" r="3.5" stroke="white"/>
<circle cx="204.331" cy="53.4086" r="3.5" transform="rotate(22.5 204.331 53.4086)" stroke="white"/>
<circle cx="240.304" cy="158.359" r="4" transform="rotate(90 240.304 158.359)" fill="white"/>
<circle cx="223.096" cy="213.489" r="4" transform="rotate(135 223.096 213.489)" fill="white"/>
<circle cx="171.946" cy="240.304" r="4" transform="rotate(-180 171.946 240.304)" fill="white"/>
<circle cx="116.815" cy="223.097" r="4" transform="rotate(-135 116.815 223.097)" fill="white"/>
<circle cx="90" cy="171.946" r="4" transform="rotate(-90 90 171.946)" fill="white"/>
<circle cx="107.208" cy="116.816" r="4" transform="rotate(-45 107.208 116.816)" fill="white"/>
<circle cx="158.359" cy="90.0005" r="4" fill="white"/>
<circle cx="213.489" cy="107.208" r="4" transform="rotate(45 213.489 107.208)" fill="white"/>
</svg>
