<svg width="32" height="21" viewBox="0 0 32 21" fill="none" xmlns="http://www.w3.org/2000/svg">
<path d="M0 19.25C0 20.2165 0.783502 21 1.75 21H30.25C31.2165 21 32 20.2165 32 19.25C32 18.2835 31.2165 17.5 30.25 17.5H1.75C0.783502 17.5 0 18.2835 0 19.25ZM9 10.5C9 11.4665 9.7835 12.25 10.75 12.25H30.25C31.2165 12.25 32 11.4665 32 10.5C32 9.5335 31.2165 8.75 30.25 8.75H10.75C9.7835 8.75 9 9.5335 9 10.5ZM1.75 0C0.783502 0 0 0.783502 0 1.75C0 2.7165 0.783502 3.5 1.75 3.5H30.25C31.2165 3.5 32 2.7165 32 1.75C32 0.783502 31.2165 0 30.25 0H1.75Z" fill="white"/>
</svg>
