<svg width="1919" height="1092" viewBox="0 0 1919 1092" fill="none" xmlns="http://www.w3.org/2000/svg">
<mask id="mask0" style="mask-type:alpha" maskUnits="userSpaceOnUse" x="0" y="0" width="1921" height="1092">
<path d="M0.384155 0.0795898H1920.38V961.08C1920.38 1032.88 1862.18 1091.08 1790.38 1091.08H130.384C58.5871 1091.08 0.384155 1032.88 0.384155 961.08V0.0795898Z" fill="url(#paint0_linear)"/>
</mask>
<g mask="url(#mask0)">
<g filter="url(#filter0_f)">
<ellipse cx="815.384" cy="920.079" rx="729" ry="141" transform="rotate(3.53767 815.384 920.079)" fill="black" fill-opacity="0.4"/>
</g>
<g filter="url(#filter1_f)">
<path d="M215.328 1114.46C97.3284 906.96 109.328 350.868 136.829 196.612C164.328 42.3561 -463.672 -416.57 -792.625 618.07C-1121.58 1652.71 -410.511 1800.66 -410.511 1800.66C-277.275 1720.71 413.021 1462.11 215.328 1114.46Z" fill="#C52B30" fill-opacity="0.6"/>
</g>
<g filter="url(#filter2_f)">
<path d="M1767.88 876.988C1670.07 981.175 1589.88 914.316 1433.88 1125.12L2309.88 1125.11L1939.38 -255.507C1735.59 -113.019 2220.38 395.005 1767.88 876.988Z" fill="#1E1B66"/>
</g>
</g>
<defs>
<filter id="filter0_f" x="50.7204" y="735.294" width="1529.33" height="369.571" filterUnits="userSpaceOnUse" color-interpolation-filters="sRGB">
<feFlood flood-opacity="0" result="BackgroundImageFix"/>
<feBlend mode="normal" in="SourceGraphic" in2="BackgroundImageFix" result="shape"/>
<feGaussianBlur stdDeviation="18.5" result="effect1_foregroundBlur"/>
</filter>
<filter id="filter1_f" x="-1223.51" y="-382.605" width="1818.18" height="2527.26" filterUnits="userSpaceOnUse" color-interpolation-filters="sRGB">
<feFlood flood-opacity="0" result="BackgroundImageFix"/>
<feBlend mode="normal" in="SourceGraphic" in2="BackgroundImageFix" result="shape"/>
<feGaussianBlur stdDeviation="172" result="effect1_foregroundBlur"/>
</filter>
<filter id="filter2_f" x="1089.88" y="-599.507" width="1564" height="2068.62" filterUnits="userSpaceOnUse" color-interpolation-filters="sRGB">
<feFlood flood-opacity="0" result="BackgroundImageFix"/>
<feBlend mode="normal" in="SourceGraphic" in2="BackgroundImageFix" result="shape"/>
<feGaussianBlur stdDeviation="172" result="effect1_foregroundBlur"/>
</filter>
<linearGradient id="paint0_linear" x1="960.384" y1="0.0795898" x2="960.384" y2="1091.08" gradientUnits="userSpaceOnUse">
<stop stop-color="#1B1D2C"/>
<stop offset="1" stop-color="#34353F"/>
</linearGradient>
</defs>
</svg>
